500 0 1 0                                           
26 Datakit CrossCadWare V23.4 2    24 Mon Dec 18 02:29:37 2023 
1 9.9999999999999995e-007 1e-010
-0 body $1 $3 $-1 $-1 #
-1 rgb_color-st-attrib $-1 $2 $-1 $0 0.968627 0.525490 0.003922 #
-2 string_attrib-name_attrib-gen-attrib $-1 $-1 $1 $0 keep keep_kept ignore 17 ATTRIB_XACIS_NAME 11 ARM Plate A #
-3 lump $-1 $-1 $4 $0 #
-4 shell $-1 $-1 $-1 $5 $-1 $3 #
-5 face $6 $7 $62 $4 $-1 $43 forward single #
-6 rgb_color-st-attrib $-1 $-1 $-1 $5 0.968627 0.525490 0.003922 #
-7 face $8 $9 $63 $4 $-1 $44 forward single #
-8 rgb_color-st-attrib $-1 $-1 $-1 $7 0.968627 0.525490 0.003922 #
-9 face $10 $11 $64 $4 $-1 $45 forward single #
-10 rgb_color-st-attrib $-1 $-1 $-1 $9 0.968627 0.525490 0.003922 #
-11 face $12 $13 $65 $4 $-1 $46 reversed single #
-12 rgb_color-st-attrib $-1 $-1 $-1 $11 0.968627 0.525490 0.003922 #
-13 face $14 $15 $66 $4 $-1 $47 reversed single #
-14 rgb_color-st-attrib $-1 $-1 $-1 $13 0.968627 0.525490 0.003922 #
-15 face $16 $17 $67 $4 $-1 $48 reversed single #
-16 rgb_color-st-attrib $-1 $-1 $-1 $15 0.968627 0.525490 0.003922 #
-17 face $18 $19 $68 $4 $-1 $49 reversed single #
-18 rgb_color-st-attrib $-1 $-1 $-1 $17 0.968627 0.525490 0.003922 #
-19 face $20 $21 $69 $4 $-1 $50 reversed single #
-20 rgb_color-st-attrib $-1 $-1 $-1 $19 0.968627 0.525490 0.003922 #
-21 face $22 $23 $70 $4 $-1 $51 reversed single #
-22 rgb_color-st-attrib $-1 $-1 $-1 $21 0.968627 0.525490 0.003922 #
-23 face $24 $25 $71 $4 $-1 $52 reversed single #
-24 rgb_color-st-attrib $-1 $-1 $-1 $23 0.968627 0.525490 0.003922 #
-25 face $26 $27 $72 $4 $-1 $53 forward single #
-26 rgb_color-st-attrib $-1 $-1 $-1 $25 0.968627 0.525490 0.003922 #
-27 face $28 $29 $73 $4 $-1 $54 reversed single #
-28 rgb_color-st-attrib $-1 $-1 $-1 $27 0.968627 0.525490 0.003922 #
-29 face $30 $31 $74 $4 $-1 $55 forward single #
-30 rgb_color-st-attrib $-1 $-1 $-1 $29 0.968627 0.525490 0.003922 #
-31 face $32 $33 $80 $4 $-1 $56 reversed single #
-32 rgb_color-st-attrib $-1 $-1 $-1 $31 0.968627 0.525490 0.003922 #
-33 face $34 $35 $86 $4 $-1 $57 reversed single #
-34 rgb_color-st-attrib $-1 $-1 $-1 $33 0.968627 0.525490 0.003922 #
-35 face $36 $37 $87 $4 $-1 $58 reversed single #
-36 rgb_color-st-attrib $-1 $-1 $-1 $35 0.968627 0.525490 0.003922 #
-37 face $38 $39 $88 $4 $-1 $59 reversed single #
-38 rgb_color-st-attrib $-1 $-1 $-1 $37 0.968627 0.525490 0.003922 #
-39 face $40 $41 $89 $4 $-1 $60 reversed single #
-40 rgb_color-st-attrib $-1 $-1 $-1 $39 0.968627 0.525490 0.003922 #
-41 face $42 $-1 $90 $4 $-1 $61 reversed single #
-42 rgb_color-st-attrib $-1 $-1 $-1 $41 0.968627 0.525490 0.003922 #
-43 plane-surface $-1 213.7925469682 -1.5875000000 123.1384479078 0.0000000000 0.0000000000 1.0000000000 1.0000000000 0.0000000000 0.0000000000 forward_v I I I I #
-44 cone-surface $-1 181.3017705714 -1.5875000000 110.4384479078 0.0000000000 1.0000000000 0.0000000000 2.2053318564 0.0000000000 -12.5070584633 1 I I 0 1 1 forward I I I I #
-45 plane-surface $-1 169.8459034533 -1.5875000000 119.7839109795 -0.3420201433 0.0000000000 0.9396926208 0.9396926208 0.0000000000 0.3420201433 forward_v I I I I #
-46 plane-surface $-1 131.2750591238 -1.5875000000 92.2302140226 0.9396926208 0.0000000000 0.3420201433 0.3420201433 0.0000000000 -0.9396926208 forward_v I I I I #
-47 plane-surface $-1 153.5198593700 -1.5875000000 86.8116014690 -0.3420201433 0.0000000000 0.9396926208 0.9396926208 0.0000000000 0.3420201433 forward_v I I I I #
-48 plane-surface $-1 214.9122232957 -1.5875000000 97.7384479078 0.0000000000 0.0000000000 1.0000000000 1.0000000000 0.0000000000 -0.0000000000 forward_v I I I I #
-49 cone-surface $-1 163.2821277439 -1.5875000000 97.1223054312 0.0000000000 1.0000000000 0.0000000000 2.4257000000 0.0000000000 0.0000000000 1 I I 0 1 1 forward I I I I #
-50 cone-surface $-1 246.2833233650 -1.5875000000 110.4384479078 0.0000000000 1.0000000000 0.0000000000 2.1082000000 0.0000000000 0.0000000000 1 I I 0 1 1 forward I I I I #
-51 cone-surface $-1 139.4139351759 -1.5875000000 88.4349937907 0.0000000000 1.0000000000 0.0000000000 2.4257000000 0.0000000000 -0.0000000000 1 I I 0 1 1 forward I I I I #
-52 cone-surface $-1 135.0702793557 -1.5875000000 100.3690900747 0.0000000000 1.0000000000 0.0000000000 2.4257000000 0.0000000000 0.0000000000 1 I I 0 1 1 forward I I I I #
-53 cone-surface $-1 246.2833233650 -1.5875000000 110.4384479078 0.0000000000 1.0000000000 0.0000000000 -12.7000000000 0.0000000000 0.0000000000 1 I I 0 1 1 forward I I I I #
-54 cone-surface $-1 158.9384719236 -1.5875000000 109.0564017152 0.0000000000 1.0000000000 0.0000000000 2.4257000000 0.0000000000 -0.0000000000 1 I I 0 1 1 forward I I I I #
-55 plane-surface $-1 192.9573633343 -1.5875000000 101.7172828232 0.0000000000 -1.0000000000 0.0000000000 1.0000000000 0.0000000000 0.0000000000 forward_v I I I I #
-56 plane-surface $-1 192.9573633343 0.0000000000 101.7172828232 0.0000000000 -1.0000000000 0.0000000000 1.0000000000 0.0000000000 0.0000000000 forward_v I I I I #
-57 cone-surface $-1 163.2821277439 -1.5875000000 97.1223054312 0.0000000000 1.0000000000 0.0000000000 -2.4257000000 0.0000000000 0.0000000000 1 I I 0 1 1 forward I I I I #
-58 cone-surface $-1 246.2833233650 -1.5875000000 110.4384479078 0.0000000000 1.0000000000 0.0000000000 -2.1082000000 0.0000000000 0.0000000000 1 I I 0 1 1 forward I I I I #
-59 cone-surface $-1 139.4139351759 -1.5875000000 88.4349937907 0.0000000000 1.0000000000 0.0000000000 -2.4257000000 0.0000000000 0.0000000000 1 I I 0 1 1 forward I I I I #
-60 cone-surface $-1 135.0702793557 -1.5875000000 100.3690900747 0.0000000000 1.0000000000 0.0000000000 -2.4257000000 0.0000000000 0.0000000000 1 I I 0 1 1 forward I I I I #
-61 cone-surface $-1 158.9384719236 -1.5875000000 109.0564017152 0.0000000000 1.0000000000 0.0000000000 -2.4257000000 0.0000000000 0.0000000000 1 I I 0 1 1 forward I I I I #
-62 loop $-1 $-1 $91 $5 #
-63 loop $-1 $-1 $95 $7 #
-64 loop $-1 $-1 $99 $9 #
-65 loop $-1 $-1 $103 $11 #
-66 loop $-1 $-1 $107 $13 #
-67 loop $-1 $-1 $111 $15 #
-68 loop $-1 $-1 $115 $17 #
-69 loop $-1 $-1 $119 $19 #
-70 loop $-1 $-1 $123 $21 #
-71 loop $-1 $-1 $127 $23 #
-72 loop $-1 $-1 $131 $25 #
-73 loop $-1 $-1 $135 $27 #
-74 loop $-1 $75 $139 $29 #
-75 loop $-1 $76 $146 $29 #
-76 loop $-1 $77 $148 $29 #
-77 loop $-1 $78 $150 $29 #
-78 loop $-1 $79 $152 $29 #
-79 loop $-1 $-1 $154 $29 #
-80 loop $-1 $81 $156 $31 #
-81 loop $-1 $82 $163 $31 #
-82 loop $-1 $83 $165 $31 #
-83 loop $-1 $84 $167 $31 #
-84 loop $-1 $85 $169 $31 #
-85 loop $-1 $-1 $171 $31 #
-86 loop $-1 $-1 $173 $33 #
-87 loop $-1 $-1 $177 $35 #
-88 loop $-1 $-1 $181 $37 #
-89 loop $-1 $-1 $185 $39 #
-90 loop $-1 $-1 $189 $41 #
-91 coedge $-1 $92 $94 $156 $193 reversed $62 $-1 #
-92 coedge $-1 $93 $91 $98 $194 reversed $62 $-1 #
-93 coedge $-1 $94 $92 $139 $195 forward $62 $-1 #
-94 coedge $-1 $91 $93 $132 $196 forward $62 $-1 #
-95 coedge $-1 $96 $98 $162 $197 forward $63 $-1 #
-96 coedge $-1 $97 $95 $102 $198 reversed $63 $-1 #
-97 coedge $-1 $98 $96 $140 $199 reversed $63 $-1 #
-98 coedge $-1 $95 $97 $92 $194 forward $63 $-1 #
-99 coedge $-1 $100 $102 $161 $200 reversed $64 $-1 #
-100 coedge $-1 $101 $99 $106 $201 reversed $64 $-1 #
-101 coedge $-1 $102 $100 $141 $202 forward $64 $-1 #
-102 coedge $-1 $99 $101 $96 $198 forward $64 $-1 #
-103 coedge $-1 $104 $106 $160 $203 forward $65 $-1 #
-104 coedge $-1 $105 $103 $110 $204 reversed $65 $-1 #
-105 coedge $-1 $106 $104 $142 $205 reversed $65 $-1 #
-106 coedge $-1 $103 $105 $100 $201 forward $65 $-1 #
-107 coedge $-1 $108 $110 $159 $206 forward $66 $-1 #
-108 coedge $-1 $109 $107 $114 $207 reversed $66 $-1 #
-109 coedge $-1 $110 $108 $143 $208 reversed $66 $-1 #
-110 coedge $-1 $107 $109 $104 $204 forward $66 $-1 #
-111 coedge $-1 $112 $114 $158 $209 forward $67 $-1 #
-112 coedge $-1 $113 $111 $134 $210 reversed $67 $-1 #
-113 coedge $-1 $114 $112 $144 $211 reversed $67 $-1 #
-114 coedge $-1 $111 $113 $108 $207 forward $67 $-1 #
-115 coedge $-1 $116 $118 $173 $212 forward $68 $-1 #
-116 coedge $-1 $117 $115 $170 $213 reversed $68 $-1 #
-117 coedge $-1 $118 $116 $175 $214 reversed $68 $-1 #
-118 coedge $-1 $115 $117 $152 $215 forward $68 $-1 #
-119 coedge $-1 $120 $122 $177 $216 forward $69 $-1 #
-120 coedge $-1 $121 $119 $168 $217 reversed $69 $-1 #
-121 coedge $-1 $122 $120 $179 $218 reversed $69 $-1 #
-122 coedge $-1 $119 $121 $150 $219 forward $69 $-1 #
-123 coedge $-1 $124 $126 $181 $220 forward $70 $-1 #
-124 coedge $-1 $125 $123 $166 $221 forward $70 $-1 #
-125 coedge $-1 $126 $124 $183 $222 reversed $70 $-1 #
-126 coedge $-1 $123 $125 $148 $223 reversed $70 $-1 #
-127 coedge $-1 $128 $130 $185 $224 forward $71 $-1 #
-128 coedge $-1 $129 $127 $164 $225 reversed $71 $-1 #
-129 coedge $-1 $130 $128 $187 $226 reversed $71 $-1 #
-130 coedge $-1 $127 $129 $146 $227 forward $71 $-1 #
-131 coedge $-1 $132 $134 $157 $228 forward $72 $-1 #
-132 coedge $-1 $133 $131 $94 $196 reversed $72 $-1 #
-133 coedge $-1 $134 $132 $145 $229 reversed $72 $-1 #
-134 coedge $-1 $131 $133 $112 $210 forward $72 $-1 #
-135 coedge $-1 $136 $138 $189 $230 forward $73 $-1 #
-136 coedge $-1 $137 $135 $172 $231 forward $73 $-1 #
-137 coedge $-1 $138 $136 $191 $232 reversed $73 $-1 #
-138 coedge $-1 $135 $137 $154 $233 reversed $73 $-1 #
-139 coedge $-1 $140 $145 $93 $195 reversed $74 $-1 #
-140 coedge $-1 $141 $139 $97 $199 forward $74 $-1 #
-141 coedge $-1 $142 $140 $101 $202 reversed $74 $-1 #
-142 coedge $-1 $143 $141 $105 $205 forward $74 $-1 #
-143 coedge $-1 $144 $142 $109 $208 forward $74 $-1 #
-144 coedge $-1 $145 $143 $113 $211 forward $74 $-1 #
-145 coedge $-1 $139 $144 $133 $229 forward $74 $-1 #
-146 coedge $-1 $147 $147 $130 $227 reversed $75 $-1 #
-147 coedge $-1 $146 $146 $186 $234 reversed $75 $-1 #
-148 coedge $-1 $149 $149 $126 $223 forward $76 $-1 #
-149 coedge $-1 $148 $148 $182 $235 forward $76 $-1 #
-150 coedge $-1 $151 $151 $122 $219 reversed $77 $-1 #
-151 coedge $-1 $150 $150 $178 $236 reversed $77 $-1 #
-152 coedge $-1 $153 $153 $118 $215 reversed $78 $-1 #
-153 coedge $-1 $152 $152 $174 $237 reversed $78 $-1 #
-154 coedge $-1 $155 $155 $138 $233 forward $79 $-1 #
-155 coedge $-1 $154 $154 $190 $238 forward $79 $-1 #
-156 coedge $-1 $157 $162 $91 $193 forward $80 $-1 #
-157 coedge $-1 $158 $156 $131 $228 reversed $80 $-1 #
-158 coedge $-1 $159 $157 $111 $209 reversed $80 $-1 #
-159 coedge $-1 $160 $158 $107 $206 reversed $80 $-1 #
-160 coedge $-1 $161 $159 $103 $203 reversed $80 $-1 #
-161 coedge $-1 $162 $160 $99 $200 forward $80 $-1 #
-162 coedge $-1 $156 $161 $95 $197 reversed $80 $-1 #
-163 coedge $-1 $164 $164 $188 $239 forward $81 $-1 #
-164 coedge $-1 $163 $163 $128 $225 forward $81 $-1 #
-165 coedge $-1 $166 $166 $184 $240 reversed $82 $-1 #
-166 coedge $-1 $165 $165 $124 $221 reversed $82 $-1 #
-167 coedge $-1 $168 $168 $180 $241 forward $83 $-1 #
-168 coedge $-1 $167 $167 $120 $217 forward $83 $-1 #
-169 coedge $-1 $170 $170 $176 $242 forward $84 $-1 #
-170 coedge $-1 $169 $169 $116 $213 forward $84 $-1 #
-171 coedge $-1 $172 $172 $192 $243 reversed $85 $-1 #
-172 coedge $-1 $171 $171 $136 $231 reversed $85 $-1 #
-173 coedge $-1 $174 $176 $115 $212 reversed $86 $-1 #
-174 coedge $-1 $175 $173 $153 $237 forward $86 $-1 #
-175 coedge $-1 $176 $174 $117 $214 forward $86 $-1 #
-176 coedge $-1 $173 $175 $169 $242 reversed $86 $-1 #
-177 coedge $-1 $178 $180 $119 $216 reversed $87 $-1 #
-178 coedge $-1 $179 $177 $151 $236 forward $87 $-1 #
-179 coedge $-1 $180 $178 $121 $218 forward $87 $-1 #
-180 coedge $-1 $177 $179 $167 $241 reversed $87 $-1 #
-181 coedge $-1 $182 $184 $123 $220 reversed $88 $-1 #
-182 coedge $-1 $183 $181 $149 $235 reversed $88 $-1 #
-183 coedge $-1 $184 $182 $125 $222 forward $88 $-1 #
-184 coedge $-1 $181 $183 $165 $240 forward $88 $-1 #
-185 coedge $-1 $186 $188 $127 $224 reversed $89 $-1 #
-186 coedge $-1 $187 $185 $147 $234 forward $89 $-1 #
-187 coedge $-1 $188 $186 $129 $226 forward $89 $-1 #
-188 coedge $-1 $185 $187 $163 $239 reversed $89 $-1 #
-189 coedge $-1 $190 $192 $135 $230 reversed $90 $-1 #
-190 coedge $-1 $191 $189 $155 $238 reversed $90 $-1 #
-191 coedge $-1 $192 $190 $137 $232 forward $90 $-1 #
-192 coedge $-1 $189 $191 $171 $243 forward $90 $-1 #
-193 edge $-1 $245 -32.4907763968 $247 32.4907763968 $91 $244 forward 7 unknown #
-194 edge $-1 $250 0.0000000000 $245 1.5875000000 $92 $249 forward 7 unknown #
-195 edge $-1 $250 -32.4907763968 $253 32.4907763968 $93 $252 forward 7 unknown #
-196 edge $-1 $253 0.0000000000 $247 1.5875000000 $94 $255 forward 7 unknown #
-197 edge $-1 $245 3.1415926536 $257 3.4906584998 $95 $256 forward 7 unknown #
-198 edge $-1 $260 0.0000000000 $257 1.5875000000 $96 $259 forward 7 unknown #
-199 edge $-1 $250 3.1415926536 $260 3.4906584998 $97 $262 forward 7 unknown #
-200 edge $-1 $264 -45.6686571763 $257 7.5686571763 $99 $263 forward 7 unknown #
-201 edge $-1 $267 0.0000000000 $264 1.5875000000 $100 $266 forward 7 unknown #
-202 edge $-1 $267 -45.6686571763 $260 7.5686571763 $101 $269 forward 7 unknown #
-203 edge $-1 $264 -12.7000000000 $271 12.7000000000 $103 $270 forward 7 unknown #
-204 edge $-1 $274 0.0000000000 $271 1.5875000000 $104 $273 forward 7 unknown #
-205 edge $-1 $267 -12.7000000000 $274 12.7000000000 $105 $276 forward 7 unknown #
-206 edge $-1 $271 -19.0500000000 $278 31.9479616976 $107 $277 forward 7 unknown #
-207 edge $-1 $281 0.0000000000 $278 1.5875000000 $108 $280 forward 7 unknown #
-208 edge $-1 $274 -19.0500000000 $281 31.9479616976 $109 $283 forward 7 unknown #
-209 edge $-1 $278 -31.3711000693 $285 31.3711000693 $111 $284 forward 7 unknown #
-210 edge $-1 $288 0.0000000000 $285 1.5875000000 $112 $287 forward 7 unknown #
-211 edge $-1 $281 -31.3711000693 $288 31.3711000693 $113 $290 forward 7 unknown #
-212 edge $-1 $292 0.0000000000 $294 1.5875000000 $115 $291 forward 7 unknown #
-213 edge $-1 $297 3.1415926536 $294 6.2831853072 $116 $296 forward 7 unknown #
-214 edge $-1 $300 0.0000000000 $297 1.5875000000 $117 $299 forward 7 unknown #
-215 edge $-1 $300 3.1415926536 $292 6.2831853072 $118 $302 forward 7 unknown #
-216 edge $-1 $304 0.0000000000 $306 1.5875000000 $119 $303 forward 7 unknown #
-217 edge $-1 $309 3.1415926536 $306 6.2831853072 $120 $308 forward 7 unknown #
-218 edge $-1 $312 0.0000000000 $309 1.5875000000 $121 $311 forward 7 unknown #
-219 edge $-1 $312 3.1415926536 $304 6.2831853072 $122 $314 forward 7 unknown #
-220 edge $-1 $316 0.0000000000 $318 1.5875000000 $123 $315 forward 7 unknown #
-221 edge $-1 $318 0.0000000000 $321 3.1415926536 $124 $320 forward 7 unknown #
-222 edge $-1 $324 0.0000000000 $321 1.5875000000 $125 $323 forward 7 unknown #
-223 edge $-1 $316 0.0000000000 $324 3.1415926536 $126 $326 forward 7 unknown #
-224 edge $-1 $328 0.0000000000 $330 1.5875000000 $127 $327 forward 7 unknown #
-225 edge $-1 $333 3.1415926536 $330 6.2831853072 $128 $332 forward 7 unknown #
-226 edge $-1 $336 0.0000000000 $333 1.5875000000 $129 $335 forward 7 unknown #
-227 edge $-1 $336 3.1415926536 $328 6.2831853072 $130 $338 forward 7 unknown #
-228 edge $-1 $285 0.0000000000 $247 3.1415926536 $131 $339 forward 7 unknown #
-229 edge $-1 $288 0.0000000000 $253 3.1415926536 $133 $340 forward 7 unknown #
-230 edge $-1 $342 0.0000000000 $344 1.5875000000 $135 $341 forward 7 unknown #
-231 edge $-1 $344 0.0000000000 $347 3.1415926536 $136 $346 forward 7 unknown #
-232 edge $-1 $350 0.0000000000 $347 1.5875000000 $137 $349 forward 7 unknown #
-233 edge $-1 $342 0.0000000000 $350 3.1415926536 $138 $352 forward 7 unknown #
-234 edge $-1 $328 0.0000000000 $336 3.1415926536 $147 $353 forward 7 unknown #
-235 edge $-1 $324 3.1415926536 $316 6.2831853072 $149 $354 forward 7 unknown #
-236 edge $-1 $304 0.0000000000 $312 3.1415926536 $151 $355 forward 7 unknown #
-237 edge $-1 $292 0.0000000000 $300 3.1415926536 $153 $356 forward 7 unknown #
-238 edge $-1 $350 3.1415926536 $342 6.2831853072 $155 $357 forward 7 unknown #
-239 edge $-1 $330 0.0000000000 $333 3.1415926536 $163 $358 forward 7 unknown #
-240 edge $-1 $321 3.1415926536 $318 6.2831853072 $165 $359 forward 7 unknown #
-241 edge $-1 $306 0.0000000000 $309 3.1415926536 $167 $360 forward 7 unknown #
-242 edge $-1 $294 0.0000000000 $297 3.1415926536 $169 $361 forward 7 unknown #
-243 edge $-1 $347 3.1415926536 $344 6.2831853072 $171 $362 forward 7 unknown #
-244 straight-curve $-1 213.792546968221501 0.000000000000000 123.138447907752990 1.000000000000000 0.000000000000000 0.000000000000000 I I #
-245 vertex $-1 $193 $246 #
-246 point $-1 181.301770571409008 0.000000000000000 123.138447907752990 #
-247 vertex $-1 $193 $248 #
-248 point $-1 246.283323365033993 0.000000000000000 123.138447907752990 #
-249 straight-curve $-1 181.301770571409008 -1.587500000000000 123.138447907752990 0.000000000000000 1.000000000000000 0.000000000000000 I I #
-250 vertex $-1 $194 $251 #
-251 point $-1 181.301770571409008 -1.587500000000000 123.138447907752990 #
-252 straight-curve $-1 213.792546968221501 -1.587500000000000 123.138447907752990 1.000000000000000 0.000000000000000 0.000000000000000 I I #
-253 vertex $-1 $195 $254 #
-254 point $-1 246.283323365033993 -1.587500000000000 123.138447907752990 #
-255 straight-curve $-1 246.283323365033993 -1.587500000000000 123.138447907752990 0.000000000000000 1.000000000000000 0.000000000000000 I I #
-256 ellipse-curve $-1 181.301770571409008 0.000000000000000 110.438447907753201 0.000000000000000 -1.000000000000000 0.000000000000000 0.000000000000000 0.000000000000000 -12.699999999999861 1.000000000000000 I I #
-257 vertex $-1 $197 $258 #
-258 point $-1 176.958114751173014 0.000000000000000 122.372544191734008 #
-259 straight-curve $-1 176.958114751173014 -1.587500000000000 122.372544191734008 0.000000000000000 1.000000000000000 0.000000000000000 I I #
-260 vertex $-1 $198 $261 #
-261 point $-1 176.958114751173014 -1.587500000000000 122.372544191734008 #
-262 ellipse-curve $-1 181.301770571409008 -1.587500000000000 110.438447907753201 0.000000000000000 -1.000000000000000 0.000000000000000 0.000000000000000 0.000000000000000 -12.699999999999861 1.000000000000000 I I #
-263 straight-curve $-1 169.845903453336007 0.000000000000000 119.783910979509400 0.939692620785909 0.000000000000000 0.342020143325668 I I #
-264 vertex $-1 $200 $265 #
-265 point $-1 126.931403303555399 0.000000000000000 104.164310306576994 #
-266 straight-curve $-1 126.931403303555399 -1.587500000000000 104.164310306576994 0.000000000000000 1.000000000000000 0.000000000000000 I I #
-267 vertex $-1 $201 $268 #
-268 point $-1 126.931403303555399 -1.587500000000000 104.164310306576994 #
-269 straight-curve $-1 169.845903453336007 -1.587500000000000 119.783910979509400 0.939692620785909 0.000000000000000 0.342020143325668 I I #
-270 straight-curve $-1 131.275059123791380 0.000000000000000 92.230214022596002 0.342020143325669 0.000000000000000 -0.939692620785908 I I #
-271 vertex $-1 $203 $272 #
-272 point $-1 135.618714944027403 0.000000000000000 80.296117738615010 #
-273 straight-curve $-1 135.618714944027403 -1.587500000000000 80.296117738615010 0.000000000000000 1.000000000000000 0.000000000000000 I I #
-274 vertex $-1 $204 $275 #
-275 point $-1 135.618714944027403 -1.587500000000000 80.296117738615010 #
-276 straight-curve $-1 131.275059123791380 -1.587500000000000 92.230214022596002 0.342020143325669 0.000000000000000 -0.939692620785908 I I #
-277 straight-curve $-1 153.519859369999011 0.000000000000000 86.811601468968888 0.939692620785909 0.000000000000000 0.342020143325668 I I #
-278 vertex $-1 $206 $279 #
-279 point $-1 183.541123226406512 0.000000000000000 97.738447907752999 #
-280 straight-curve $-1 183.541123226406512 -1.587500000000000 97.738447907752999 0.000000000000000 1.000000000000000 0.000000000000000 I I #
-281 vertex $-1 $207 $282 #
-282 point $-1 183.541123226406512 -1.587500000000000 97.738447907752999 #
-283 straight-curve $-1 153.519859369999011 -1.587500000000000 86.811601468968888 0.939692620785909 0.000000000000000 0.342020143325668 I I #
-284 straight-curve $-1 214.912223295720480 0.000000000000000 97.738447907752999 1.000000000000000 0.000000000000000 -0.000000000000000 I I #
-285 vertex $-1 $209 $286 #
-286 point $-1 246.283323365033993 0.000000000000000 97.738447907752999 #
-287 straight-curve $-1 246.283323365033993 -1.587500000000000 97.738447907752999 0.000000000000000 1.000000000000000 0.000000000000000 I I #
-288 vertex $-1 $210 $289 #
-289 point $-1 246.283323365033993 -1.587500000000000 97.738447907752999 #
-290 straight-curve $-1 214.912223295720480 -1.587500000000000 97.738447907752999 1.000000000000000 0.000000000000000 -0.000000000000000 I I #
-291 straight-curve $-1 163.282127743861992 -1.587500000000000 94.696605431195394 0.000000000000000 1.000000000000000 0.000000000000000 I I #
-292 vertex $-1 $212 $293 #
-293 point $-1 163.282127743861992 -1.587500000000000 94.696605431195394 #
-294 vertex $-1 $212 $295 #
-295 point $-1 163.282127743861992 0.000000000000000 94.696605431195394 #
-296 ellipse-curve $-1 163.282127743861992 0.000000000000000 97.122305431195400 0.000000000000000 -1.000000000000000 0.000000000000000 0.000000000000000 0.000000000000000 -2.425700000000000 1.000000000000000 I I #
-297 vertex $-1 $213 $298 #
-298 point $-1 163.282127743861992 0.000000000000000 99.548005431195406 #
-299 straight-curve $-1 163.282127743861992 -1.587500000000000 99.548005431195406 0.000000000000000 1.000000000000000 0.000000000000000 I I #
-300 vertex $-1 $214 $301 #
-301 point $-1 163.282127743861992 -1.587500000000000 99.548005431195406 #
-302 ellipse-curve $-1 163.282127743861992 -1.587500000000000 97.122305431195400 0.000000000000000 -1.000000000000000 0.000000000000000 0.000000000000000 0.000000000000000 -2.425700000000000 1.000000000000000 I I #
-303 straight-curve $-1 246.283323365033993 -1.587500000000000 108.330247907753005 0.000000000000000 1.000000000000000 0.000000000000000 I I #
-304 vertex $-1 $216 $305 #
-305 point $-1 246.283323365033993 -1.587500000000000 108.330247907753005 #
-306 vertex $-1 $216 $307 #
-307 point $-1 246.283323365033993 0.000000000000000 108.330247907753005 #
-308 ellipse-curve $-1 246.283323365033993 0.000000000000000 110.438447907753002 0.000000000000000 -1.000000000000000 0.000000000000000 0.000000000000000 0.000000000000000 -2.108200000000000 1.000000000000000 I I #
-309 vertex $-1 $217 $310 #
-310 point $-1 246.283323365033993 0.000000000000000 112.546647907752998 #
-311 straight-curve $-1 246.283323365033993 -1.587500000000000 112.546647907752998 0.000000000000000 1.000000000000000 0.000000000000000 I I #
-312 vertex $-1 $218 $313 #
-313 point $-1 246.283323365033993 -1.587500000000000 112.546647907752998 #
-314 ellipse-curve $-1 246.283323365033993 -1.587500000000000 110.438447907753002 0.000000000000000 -1.000000000000000 0.000000000000000 0.000000000000000 0.000000000000000 -2.108200000000000 1.000000000000000 I I #
-315 straight-curve $-1 139.413935175900008 -1.587500000000000 86.009293790723405 0.000000000000000 1.000000000000000 0.000000000000000 I I #
-316 vertex $-1 $220 $317 #
-317 point $-1 139.413935175900008 -1.587500000000000 86.009293790723405 #
-318 vertex $-1 $220 $319 #
-319 point $-1 139.413935175900008 0.000000000000000 86.009293790723405 #
-320 ellipse-curve $-1 139.413935175900008 0.000000000000000 88.434993790723411 0.000000000000000 1.000000000000000 0.000000000000000 0.000000000000000 0.000000000000000 -2.425700000000000 1.000000000000000 I I #
-321 vertex $-1 $221 $322 #
-322 point $-1 139.413935175900008 0.000000000000000 90.860693790723417 #
-323 straight-curve $-1 139.413935175900008 -1.587500000000000 90.860693790723417 0.000000000000000 1.000000000000000 0.000000000000000 I I #
-324 vertex $-1 $222 $325 #
-325 point $-1 139.413935175900008 -1.587500000000000 90.860693790723417 #
-326 ellipse-curve $-1 139.413935175900008 -1.587500000000000 88.434993790723411 0.000000000000000 1.000000000000000 0.000000000000000 0.000000000000000 0.000000000000000 -2.425700000000000 1.000000000000000 I I #
-327 straight-curve $-1 135.070279355664013 -1.587500000000000 97.943390074704396 0.000000000000000 1.000000000000000 0.000000000000000 I I #
-328 vertex $-1 $224 $329 #
-329 point $-1 135.070279355664013 -1.587500000000000 97.943390074704396 #
-330 vertex $-1 $224 $331 #
-331 point $-1 135.070279355664013 0.000000000000000 97.943390074704396 #
-332 ellipse-curve $-1 135.070279355664013 0.000000000000000 100.369090074704403 0.000000000000000 -1.000000000000000 0.000000000000000 0.000000000000000 0.000000000000000 -2.425700000000000 1.000000000000000 I I #
-333 vertex $-1 $225 $334 #
-334 point $-1 135.070279355664013 0.000000000000000 102.794790074704409 #
-335 straight-curve $-1 135.070279355664013 -1.587500000000000 102.794790074704409 0.000000000000000 1.000000000000000 0.000000000000000 I I #
-336 vertex $-1 $226 $337 #
-337 point $-1 135.070279355664013 -1.587500000000000 102.794790074704409 #
-338 ellipse-curve $-1 135.070279355664013 -1.587500000000000 100.369090074704403 0.000000000000000 -1.000000000000000 0.000000000000000 0.000000000000000 0.000000000000000 -2.425700000000000 1.000000000000000 I I #
-339 ellipse-curve $-1 246.283323365033993 0.000000000000000 110.438447907753002 0.000000000000000 -1.000000000000000 0.000000000000000 0.000000000000000 0.000000000000000 -12.699999999999999 1.000000000000000 I I #
-340 ellipse-curve $-1 246.283323365033993 -1.587500000000000 110.438447907753002 0.000000000000000 -1.000000000000000 0.000000000000000 0.000000000000000 0.000000000000000 -12.699999999999999 1.000000000000000 I I #
-341 straight-curve $-1 158.938471923625997 -1.587500000000000 106.630701715176400 0.000000000000000 1.000000000000000 0.000000000000000 I I #
-342 vertex $-1 $230 $343 #
-343 point $-1 158.938471923625997 -1.587500000000000 106.630701715176400 #
-344 vertex $-1 $230 $345 #
-345 point $-1 158.938471923625997 0.000000000000000 106.630701715176400 #
-346 ellipse-curve $-1 158.938471923625997 0.000000000000000 109.056401715176406 0.000000000000000 1.000000000000000 0.000000000000000 0.000000000000000 0.000000000000000 -2.425700000000000 1.000000000000000 I I #
-347 vertex $-1 $231 $348 #
-348 point $-1 158.938471923625997 0.000000000000000 111.482101715176412 #
-349 straight-curve $-1 158.938471923625997 -1.587500000000000 111.482101715176412 0.000000000000000 1.000000000000000 0.000000000000000 I I #
-350 vertex $-1 $232 $351 #
-351 point $-1 158.938471923625997 -1.587500000000000 111.482101715176412 #
-352 ellipse-curve $-1 158.938471923625997 -1.587500000000000 109.056401715176406 0.000000000000000 1.000000000000000 0.000000000000000 0.000000000000000 0.000000000000000 -2.425700000000000 1.000000000000000 I I #
-353 ellipse-curve $-1 135.070279355664013 -1.587500000000000 100.369090074704403 0.000000000000000 -1.000000000000000 0.000000000000000 0.000000000000000 0.000000000000000 -2.425700000000000 1.000000000000000 I I #
-354 ellipse-curve $-1 139.413935175900008 -1.587500000000000 88.434993790723411 0.000000000000000 1.000000000000000 0.000000000000000 0.000000000000000 0.000000000000000 -2.425700000000000 1.000000000000000 I I #
-355 ellipse-curve $-1 246.283323365033993 -1.587500000000000 110.438447907753002 0.000000000000000 -1.000000000000000 0.000000000000000 0.000000000000000 0.000000000000000 -2.108200000000000 1.000000000000000 I I #
-356 ellipse-curve $-1 163.282127743861992 -1.587500000000000 97.122305431195400 0.000000000000000 -1.000000000000000 0.000000000000000 0.000000000000000 0.000000000000000 -2.425700000000000 1.000000000000000 I I #
-357 ellipse-curve $-1 158.938471923625997 -1.587500000000000 109.056401715176406 0.000000000000000 1.000000000000000 0.000000000000000 0.000000000000000 0.000000000000000 -2.425700000000000 1.000000000000000 I I #
-358 ellipse-curve $-1 135.070279355664013 0.000000000000000 100.369090074704403 0.000000000000000 -1.000000000000000 0.000000000000000 0.000000000000000 0.000000000000000 -2.425700000000000 1.000000000000000 I I #
-359 ellipse-curve $-1 139.413935175900008 0.000000000000000 88.434993790723411 0.000000000000000 1.000000000000000 0.000000000000000 0.000000000000000 0.000000000000000 -2.425700000000000 1.000000000000000 I I #
-360 ellipse-curve $-1 246.283323365033993 0.000000000000000 110.438447907753002 0.000000000000000 -1.000000000000000 0.000000000000000 0.000000000000000 0.000000000000000 -2.108200000000000 1.000000000000000 I I #
-361 ellipse-curve $-1 163.282127743861992 0.000000000000000 97.122305431195400 0.000000000000000 -1.000000000000000 0.000000000000000 0.000000000000000 0.000000000000000 -2.425700000000000 1.000000000000000 I I #
-362 ellipse-curve $-1 158.938471923625997 0.000000000000000 109.056401715176406 0.000000000000000 1.000000000000000 0.000000000000000 0.000000000000000 0.000000000000000 -2.425700000000000 1.000000000000000 I I #
End-of-ACIS-data 