500 0 1 0                                           
26 Datakit CrossCadWare V23.4 2    24 Mon Dec 18 06:08:29 2023 
1 9.9999999999999995e-007 1e-010
-0 body $1 $3 $-1 $-1 #
-1 rgb_color-st-attrib $-1 $2 $-1 $0 0.615686 0.811765 0.925490 #
-2 string_attrib-name_attrib-gen-attrib $-1 $-1 $1 $0 keep keep_kept ignore 17 ATTRIB_XACIS_NAME 7 Plate A #
-3 lump $-1 $-1 $4 $0 #
-4 shell $-1 $-1 $-1 $5 $-1 $3 #
-5 face $6 $7 $65 $4 $-1 $45 reversed single #
-6 rgb_color-st-attrib $-1 $-1 $-1 $5 0.615686 0.811765 0.925490 #
-7 face $8 $9 $66 $4 $-1 $46 forward single #
-8 rgb_color-st-attrib $-1 $-1 $-1 $7 0.615686 0.811765 0.925490 #
-9 face $10 $11 $67 $4 $-1 $47 forward single #
-10 rgb_color-st-attrib $-1 $-1 $-1 $9 0.615686 0.811765 0.925490 #
-11 face $12 $13 $68 $4 $-1 $48 forward single #
-12 rgb_color-st-attrib $-1 $-1 $-1 $11 0.615686 0.811765 0.925490 #
-13 face $14 $15 $69 $4 $-1 $49 reversed single #
-14 rgb_color-st-attrib $-1 $-1 $-1 $13 0.615686 0.811765 0.925490 #
-15 face $16 $17 $70 $4 $-1 $50 forward single #
-16 rgb_color-st-attrib $-1 $-1 $-1 $15 0.615686 0.811765 0.925490 #
-17 face $18 $19 $71 $4 $-1 $51 reversed single #
-18 rgb_color-st-attrib $-1 $-1 $-1 $17 0.615686 0.811765 0.925490 #
-19 face $20 $21 $72 $4 $-1 $52 reversed single #
-20 rgb_color-st-attrib $-1 $-1 $-1 $19 0.615686 0.811765 0.925490 #
-21 face $22 $23 $73 $4 $-1 $53 reversed single #
-22 rgb_color-st-attrib $-1 $-1 $-1 $21 0.615686 0.811765 0.925490 #
-23 face $24 $25 $74 $4 $-1 $54 reversed single #
-24 rgb_color-st-attrib $-1 $-1 $-1 $23 0.615686 0.811765 0.925490 #
-25 face $26 $27 $75 $4 $-1 $55 reversed single #
-26 rgb_color-st-attrib $-1 $-1 $-1 $25 0.615686 0.811765 0.925490 #
-27 face $28 $29 $76 $4 $-1 $56 reversed single #
-28 rgb_color-st-attrib $-1 $-1 $-1 $27 0.615686 0.811765 0.925490 #
-29 face $30 $31 $77 $4 $-1 $57 forward single #
-30 rgb_color-st-attrib $-1 $-1 $-1 $29 0.615686 0.811765 0.925490 #
-31 face $32 $33 $78 $4 $-1 $58 forward single #
-32 rgb_color-st-attrib $-1 $-1 $-1 $31 0.615686 0.811765 0.925490 #
-33 face $34 $35 $84 $4 $-1 $59 reversed single #
-34 rgb_color-st-attrib $-1 $-1 $-1 $33 0.615686 0.811765 0.925490 #
-35 face $36 $37 $90 $4 $-1 $60 reversed single #
-36 rgb_color-st-attrib $-1 $-1 $-1 $35 0.615686 0.811765 0.925490 #
-37 face $38 $39 $91 $4 $-1 $61 reversed single #
-38 rgb_color-st-attrib $-1 $-1 $-1 $37 0.615686 0.811765 0.925490 #
-39 face $40 $41 $92 $4 $-1 $62 reversed single #
-40 rgb_color-st-attrib $-1 $-1 $-1 $39 0.615686 0.811765 0.925490 #
-41 face $42 $43 $93 $4 $-1 $63 reversed single #
-42 rgb_color-st-attrib $-1 $-1 $-1 $41 0.615686 0.811765 0.925490 #
-43 face $44 $-1 $94 $4 $-1 $64 reversed single #
-44 rgb_color-st-attrib $-1 $-1 $-1 $43 0.615686 0.811765 0.925490 #
-45 plane-surface $-1 -151.6062500000 -1.5875000000 17.4625000000 0.0000000000 0.0000000000 1.0000000000 1.0000000000 0.0000000000 0.0000000000 forward_v I I I I #
-46 cone-surface $-1 -130.1750000000 -1.5875000000 22.2250000000 0.0000000000 1.0000000000 0.0000000000 -3.3675960454 0.0000000000 3.3675960454 1 I I 0 1 1 forward I I I I #
-47 plane-surface $-1 -125.4125000000 -1.5875000000 44.4500000000 1.0000000000 0.0000000000 0.0000000000 0.0000000000 0.0000000000 -1.0000000000 forward_v I I I I #
-48 cone-surface $-1 -130.1750000000 -1.5875000000 66.6750000000 0.0000000000 1.0000000000 0.0000000000 -3.3675960454 0.0000000000 -3.3675960454 1 I I 0 1 1 forward I I I I #
-49 plane-surface $-1 -151.6062500000 -1.5875000000 71.4375000000 0.0000000000 0.0000000000 -1.0000000000 -1.0000000000 0.0000000000 -0.0000000000 forward_v I I I I #
-50 cone-surface $-1 -173.0375000000 -1.5875000000 66.6750000000 0.0000000000 1.0000000000 0.0000000000 3.3675960454 0.0000000000 -3.3675960454 1 I I 0 1 1 forward I I I I #
-51 plane-surface $-1 -177.8000000000 -1.5875000000 44.4500000000 1.0000000000 0.0000000000 0.0000000000 0.0000000000 0.0000000000 -1.0000000000 forward_v I I I I #
-52 cone-surface $-1 -173.0375000000 -1.5875000000 22.2250000000 0.0000000000 1.0000000000 0.0000000000 2.1082000000 0.0000000000 0.0000000000 1 I I 0 1 1 forward I I I I #
-53 cone-surface $-1 -130.1750000000 -1.5875000000 22.2250000000 0.0000000000 1.0000000000 0.0000000000 2.1082000000 0.0000000000 0.0000000000 1 I I 0 1 1 forward I I I I #
-54 cone-surface $-1 -130.1750000000 -1.5875000000 66.6750000000 0.0000000000 1.0000000000 0.0000000000 2.1082000000 0.0000000000 0.0000000000 1 I I 0 1 1 forward I I I I #
-55 cone-surface $-1 -173.0375000000 -1.5875000000 66.6750000000 0.0000000000 1.0000000000 0.0000000000 2.1082000000 0.0000000000 0.0000000000 1 I I 0 1 1 forward I I I I #
-56 cone-surface $-1 -161.9250000000 -1.5875000000 44.4500000000 0.0000000000 1.0000000000 0.0000000000 11.1125000000 0.0000000000 0.0000000000 1 I I 0 1 1 forward I I I I #
-57 cone-surface $-1 -173.0375000000 -1.5875000000 22.2250000000 -0.0000000000 1.0000000000 0.0000000000 3.3675960454 0.0000000000 3.3675960454 1 I I 0 1 1 forward I I I I #
-58 plane-surface $-1 -151.6062500000 -1.5875000000 44.4500000000 0.0000000000 -1.0000000000 0.0000000000 1.0000000000 0.0000000000 0.0000000000 forward_v I I I I #
-59 plane-surface $-1 -151.6062500000 0.0000000000 44.4500000000 0.0000000000 -1.0000000000 0.0000000000 1.0000000000 0.0000000000 0.0000000000 forward_v I I I I #
-60 cone-surface $-1 -173.0375000000 -1.5875000000 22.2250000000 0.0000000000 1.0000000000 0.0000000000 -2.1082000000 0.0000000000 0.0000000000 1 I I 0 1 1 forward I I I I #
-61 cone-surface $-1 -130.1750000000 -1.5875000000 22.2250000000 0.0000000000 1.0000000000 0.0000000000 -2.1082000000 0.0000000000 0.0000000000 1 I I 0 1 1 forward I I I I #
-62 cone-surface $-1 -130.1750000000 -1.5875000000 66.6750000000 0.0000000000 1.0000000000 0.0000000000 -2.1082000000 0.0000000000 0.0000000000 1 I I 0 1 1 forward I I I I #
-63 cone-surface $-1 -173.0375000000 -1.5875000000 66.6750000000 0.0000000000 1.0000000000 0.0000000000 -2.1082000000 0.0000000000 0.0000000000 1 I I 0 1 1 forward I I I I #
-64 cone-surface $-1 -161.9250000000 -1.5875000000 44.4500000000 0.0000000000 1.0000000000 0.0000000000 -11.1125000000 0.0000000000 0.0000000000 1 I I 0 1 1 forward I I I I #
-65 loop $-1 $-1 $95 $5 #
-66 loop $-1 $-1 $99 $7 #
-67 loop $-1 $-1 $103 $9 #
-68 loop $-1 $-1 $107 $11 #
-69 loop $-1 $-1 $111 $13 #
-70 loop $-1 $-1 $115 $15 #
-71 loop $-1 $-1 $119 $17 #
-72 loop $-1 $-1 $123 $19 #
-73 loop $-1 $-1 $127 $21 #
-74 loop $-1 $-1 $131 $23 #
-75 loop $-1 $-1 $135 $25 #
-76 loop $-1 $-1 $139 $27 #
-77 loop $-1 $-1 $143 $29 #
-78 loop $-1 $79 $147 $31 #
-79 loop $-1 $80 $149 $31 #
-80 loop $-1 $81 $151 $31 #
-81 loop $-1 $82 $153 $31 #
-82 loop $-1 $83 $155 $31 #
-83 loop $-1 $-1 $157 $31 #
-84 loop $-1 $85 $165 $33 #
-85 loop $-1 $86 $167 $33 #
-86 loop $-1 $87 $169 $33 #
-87 loop $-1 $88 $171 $33 #
-88 loop $-1 $89 $173 $33 #
-89 loop $-1 $-1 $175 $33 #
-90 loop $-1 $-1 $183 $35 #
-91 loop $-1 $-1 $187 $37 #
-92 loop $-1 $-1 $191 $39 #
-93 loop $-1 $-1 $195 $41 #
-94 loop $-1 $-1 $199 $43 #
-95 coedge $-1 $96 $98 $175 $203 forward $65 $-1 #
-96 coedge $-1 $97 $95 $102 $204 reversed $65 $-1 #
-97 coedge $-1 $98 $96 $157 $205 reversed $65 $-1 #
-98 coedge $-1 $95 $97 $144 $206 forward $65 $-1 #
-99 coedge $-1 $100 $102 $182 $207 forward $66 $-1 #
-100 coedge $-1 $101 $99 $106 $208 reversed $66 $-1 #
-101 coedge $-1 $102 $100 $158 $209 reversed $66 $-1 #
-102 coedge $-1 $99 $101 $96 $204 forward $66 $-1 #
-103 coedge $-1 $104 $106 $181 $210 reversed $67 $-1 #
-104 coedge $-1 $105 $103 $110 $211 reversed $67 $-1 #
-105 coedge $-1 $106 $104 $159 $212 forward $67 $-1 #
-106 coedge $-1 $103 $105 $100 $208 forward $67 $-1 #
-107 coedge $-1 $108 $110 $180 $213 forward $68 $-1 #
-108 coedge $-1 $109 $107 $114 $214 reversed $68 $-1 #
-109 coedge $-1 $110 $108 $160 $215 reversed $68 $-1 #
-110 coedge $-1 $107 $109 $104 $211 forward $68 $-1 #
-111 coedge $-1 $112 $114 $179 $216 forward $69 $-1 #
-112 coedge $-1 $113 $111 $118 $217 reversed $69 $-1 #
-113 coedge $-1 $114 $112 $161 $218 reversed $69 $-1 #
-114 coedge $-1 $111 $113 $108 $214 forward $69 $-1 #
-115 coedge $-1 $116 $118 $178 $219 forward $70 $-1 #
-116 coedge $-1 $117 $115 $122 $220 reversed $70 $-1 #
-117 coedge $-1 $118 $116 $162 $221 reversed $70 $-1 #
-118 coedge $-1 $115 $117 $112 $217 forward $70 $-1 #
-119 coedge $-1 $120 $122 $177 $222 forward $71 $-1 #
-120 coedge $-1 $121 $119 $146 $223 reversed $71 $-1 #
-121 coedge $-1 $122 $120 $163 $224 reversed $71 $-1 #
-122 coedge $-1 $119 $121 $116 $220 forward $71 $-1 #
-123 coedge $-1 $124 $126 $183 $225 forward $72 $-1 #
-124 coedge $-1 $125 $123 $174 $226 reversed $72 $-1 #
-125 coedge $-1 $126 $124 $185 $227 reversed $72 $-1 #
-126 coedge $-1 $123 $125 $155 $228 forward $72 $-1 #
-127 coedge $-1 $128 $130 $187 $229 forward $73 $-1 #
-128 coedge $-1 $129 $127 $172 $230 reversed $73 $-1 #
-129 coedge $-1 $130 $128 $189 $231 reversed $73 $-1 #
-130 coedge $-1 $127 $129 $153 $232 forward $73 $-1 #
-131 coedge $-1 $132 $134 $191 $233 forward $74 $-1 #
-132 coedge $-1 $133 $131 $170 $234 reversed $74 $-1 #
-133 coedge $-1 $134 $132 $193 $235 reversed $74 $-1 #
-134 coedge $-1 $131 $133 $151 $236 forward $74 $-1 #
-135 coedge $-1 $136 $138 $195 $237 forward $75 $-1 #
-136 coedge $-1 $137 $135 $168 $238 reversed $75 $-1 #
-137 coedge $-1 $138 $136 $197 $239 reversed $75 $-1 #
-138 coedge $-1 $135 $137 $149 $240 forward $75 $-1 #
-139 coedge $-1 $140 $142 $199 $241 forward $76 $-1 #
-140 coedge $-1 $141 $139 $166 $242 reversed $76 $-1 #
-141 coedge $-1 $142 $140 $201 $243 reversed $76 $-1 #
-142 coedge $-1 $139 $141 $147 $244 forward $76 $-1 #
-143 coedge $-1 $144 $146 $176 $245 forward $77 $-1 #
-144 coedge $-1 $145 $143 $98 $206 reversed $77 $-1 #
-145 coedge $-1 $146 $144 $164 $246 reversed $77 $-1 #
-146 coedge $-1 $143 $145 $120 $223 forward $77 $-1 #
-147 coedge $-1 $148 $148 $142 $244 reversed $78 $-1 #
-148 coedge $-1 $147 $147 $200 $247 reversed $78 $-1 #
-149 coedge $-1 $150 $150 $138 $240 reversed $79 $-1 #
-150 coedge $-1 $149 $149 $196 $248 reversed $79 $-1 #
-151 coedge $-1 $152 $152 $134 $236 reversed $80 $-1 #
-152 coedge $-1 $151 $151 $192 $249 reversed $80 $-1 #
-153 coedge $-1 $154 $154 $130 $232 reversed $81 $-1 #
-154 coedge $-1 $153 $153 $188 $250 reversed $81 $-1 #
-155 coedge $-1 $156 $156 $126 $228 reversed $82 $-1 #
-156 coedge $-1 $155 $155 $184 $251 reversed $82 $-1 #
-157 coedge $-1 $158 $164 $97 $205 forward $83 $-1 #
-158 coedge $-1 $159 $157 $101 $209 forward $83 $-1 #
-159 coedge $-1 $160 $158 $105 $212 reversed $83 $-1 #
-160 coedge $-1 $161 $159 $109 $215 forward $83 $-1 #
-161 coedge $-1 $162 $160 $113 $218 forward $83 $-1 #
-162 coedge $-1 $163 $161 $117 $221 forward $83 $-1 #
-163 coedge $-1 $164 $162 $121 $224 forward $83 $-1 #
-164 coedge $-1 $157 $163 $145 $246 forward $83 $-1 #
-165 coedge $-1 $166 $166 $202 $252 forward $84 $-1 #
-166 coedge $-1 $165 $165 $140 $242 forward $84 $-1 #
-167 coedge $-1 $168 $168 $198 $253 forward $85 $-1 #
-168 coedge $-1 $167 $167 $136 $238 forward $85 $-1 #
-169 coedge $-1 $170 $170 $194 $254 forward $86 $-1 #
-170 coedge $-1 $169 $169 $132 $234 forward $86 $-1 #
-171 coedge $-1 $172 $172 $190 $255 forward $87 $-1 #
-172 coedge $-1 $171 $171 $128 $230 forward $87 $-1 #
-173 coedge $-1 $174 $174 $186 $256 forward $88 $-1 #
-174 coedge $-1 $173 $173 $124 $226 forward $88 $-1 #
-175 coedge $-1 $176 $182 $95 $203 reversed $89 $-1 #
-176 coedge $-1 $177 $175 $143 $245 reversed $89 $-1 #
-177 coedge $-1 $178 $176 $119 $222 reversed $89 $-1 #
-178 coedge $-1 $179 $177 $115 $219 reversed $89 $-1 #
-179 coedge $-1 $180 $178 $111 $216 reversed $89 $-1 #
-180 coedge $-1 $181 $179 $107 $213 reversed $89 $-1 #
-181 coedge $-1 $182 $180 $103 $210 forward $89 $-1 #
-182 coedge $-1 $175 $181 $99 $207 reversed $89 $-1 #
-183 coedge $-1 $184 $186 $123 $225 reversed $90 $-1 #
-184 coedge $-1 $185 $183 $156 $251 forward $90 $-1 #
-185 coedge $-1 $186 $184 $125 $227 forward $90 $-1 #
-186 coedge $-1 $183 $185 $173 $256 reversed $90 $-1 #
-187 coedge $-1 $188 $190 $127 $229 reversed $91 $-1 #
-188 coedge $-1 $189 $187 $154 $250 forward $91 $-1 #
-189 coedge $-1 $190 $188 $129 $231 forward $91 $-1 #
-190 coedge $-1 $187 $189 $171 $255 reversed $91 $-1 #
-191 coedge $-1 $192 $194 $131 $233 reversed $92 $-1 #
-192 coedge $-1 $193 $191 $152 $249 forward $92 $-1 #
-193 coedge $-1 $194 $192 $133 $235 forward $92 $-1 #
-194 coedge $-1 $191 $193 $169 $254 reversed $92 $-1 #
-195 coedge $-1 $196 $198 $135 $237 reversed $93 $-1 #
-196 coedge $-1 $197 $195 $150 $248 forward $93 $-1 #
-197 coedge $-1 $198 $196 $137 $239 forward $93 $-1 #
-198 coedge $-1 $195 $197 $167 $253 reversed $93 $-1 #
-199 coedge $-1 $200 $202 $139 $241 reversed $94 $-1 #
-200 coedge $-1 $201 $199 $148 $247 forward $94 $-1 #
-201 coedge $-1 $202 $200 $141 $243 forward $94 $-1 #
-202 coedge $-1 $199 $201 $165 $252 reversed $94 $-1 #
-203 edge $-1 $258 -21.4312500000 $260 21.4312500000 $95 $257 forward 7 unknown #
-204 edge $-1 $263 0.0000000000 $260 1.5875000000 $96 $262 forward 7 unknown #
-205 edge $-1 $266 -21.4312500000 $263 21.4312500000 $97 $265 forward 7 unknown #
-206 edge $-1 $266 0.0000000000 $258 1.5875000000 $98 $268 forward 7 unknown #
-207 edge $-1 $260 0.0000000000 $270 1.5707963268 $99 $269 forward 7 unknown #
-208 edge $-1 $273 0.0000000000 $270 1.5875000000 $100 $272 forward 7 unknown #
-209 edge $-1 $263 0.0000000000 $273 1.5707963268 $101 $275 forward 7 unknown #
-210 edge $-1 $277 -22.2250000000 $270 22.2250000000 $103 $276 forward 7 unknown #
-211 edge $-1 $280 0.0000000000 $277 1.5875000000 $104 $279 forward 7 unknown #
-212 edge $-1 $280 -22.2250000000 $273 22.2250000000 $105 $282 forward 7 unknown #
-213 edge $-1 $277 1.5707963268 $284 3.1415926536 $107 $283 forward 7 unknown #
-214 edge $-1 $287 0.0000000000 $284 1.5875000000 $108 $286 forward 7 unknown #
-215 edge $-1 $280 1.5707963268 $287 3.1415926536 $109 $289 forward 7 unknown #
-216 edge $-1 $284 -21.4312500000 $291 21.4312500000 $111 $290 forward 7 unknown #
-217 edge $-1 $294 0.0000000000 $291 1.5875000000 $112 $293 forward 7 unknown #
-218 edge $-1 $287 -21.4312500000 $294 21.4312500000 $113 $296 forward 7 unknown #
-219 edge $-1 $291 3.1415926536 $298 4.7123889804 $115 $297 forward 7 unknown #
-220 edge $-1 $301 0.0000000000 $298 1.5875000000 $116 $300 forward 7 unknown #
-221 edge $-1 $294 3.1415926536 $301 4.7123889804 $117 $303 forward 7 unknown #
-222 edge $-1 $298 -22.2250000000 $305 22.2250000000 $119 $304 forward 7 unknown #
-223 edge $-1 $308 0.0000000000 $305 1.5875000000 $120 $307 forward 7 unknown #
-224 edge $-1 $301 -22.2250000000 $308 22.2250000000 $121 $310 forward 7 unknown #
-225 edge $-1 $312 0.0000000000 $314 1.5875000000 $123 $311 forward 7 unknown #
-226 edge $-1 $317 3.1415926536 $314 6.2831853072 $124 $316 forward 7 unknown #
-227 edge $-1 $320 0.0000000000 $317 1.5875000000 $125 $319 forward 7 unknown #
-228 edge $-1 $320 3.1415926536 $312 6.2831853072 $126 $322 forward 7 unknown #
-229 edge $-1 $324 0.0000000000 $326 1.5875000000 $127 $323 forward 7 unknown #
-230 edge $-1 $329 3.1415926536 $326 6.2831853072 $128 $328 forward 7 unknown #
-231 edge $-1 $332 0.0000000000 $329 1.5875000000 $129 $331 forward 7 unknown #
-232 edge $-1 $332 3.1415926536 $324 6.2831853072 $130 $334 forward 7 unknown #
-233 edge $-1 $336 0.0000000000 $338 1.5875000000 $131 $335 forward 7 unknown #
-234 edge $-1 $341 3.1415926536 $338 6.2831853072 $132 $340 forward 7 unknown #
-235 edge $-1 $344 0.0000000000 $341 1.5875000000 $133 $343 forward 7 unknown #
-236 edge $-1 $344 3.1415926536 $336 6.2831853072 $134 $346 forward 7 unknown #
-237 edge $-1 $348 0.0000000000 $350 1.5875000000 $135 $347 forward 7 unknown #
-238 edge $-1 $353 3.1415926536 $350 6.2831853072 $136 $352 forward 7 unknown #
-239 edge $-1 $356 0.0000000000 $353 1.5875000000 $137 $355 forward 7 unknown #
-240 edge $-1 $356 3.1415926536 $348 6.2831853072 $138 $358 forward 7 unknown #
-241 edge $-1 $360 0.0000000000 $362 1.5875000000 $139 $359 forward 7 unknown #
-242 edge $-1 $365 3.1415926536 $362 6.2831853072 $140 $364 forward 7 unknown #
-243 edge $-1 $368 0.0000000000 $365 1.5875000000 $141 $367 forward 7 unknown #
-244 edge $-1 $368 3.1415926536 $360 6.2831853072 $142 $370 forward 7 unknown #
-245 edge $-1 $305 4.7123889804 $258 6.2831853072 $143 $371 forward 7 unknown #
-246 edge $-1 $308 4.7123889804 $266 6.2831853072 $145 $372 forward 7 unknown #
-247 edge $-1 $360 0.0000000000 $368 3.1415926536 $148 $373 forward 7 unknown #
-248 edge $-1 $348 0.0000000000 $356 3.1415926536 $150 $374 forward 7 unknown #
-249 edge $-1 $336 0.0000000000 $344 3.1415926536 $152 $375 forward 7 unknown #
-250 edge $-1 $324 0.0000000000 $332 3.1415926536 $154 $376 forward 7 unknown #
-251 edge $-1 $312 0.0000000000 $320 3.1415926536 $156 $377 forward 7 unknown #
-252 edge $-1 $362 0.0000000000 $365 3.1415926536 $165 $378 forward 7 unknown #
-253 edge $-1 $350 0.0000000000 $353 3.1415926536 $167 $379 forward 7 unknown #
-254 edge $-1 $338 0.0000000000 $341 3.1415926536 $169 $380 forward 7 unknown #
-255 edge $-1 $326 0.0000000000 $329 3.1415926536 $171 $381 forward 7 unknown #
-256 edge $-1 $314 0.0000000000 $317 3.1415926536 $173 $382 forward 7 unknown #
-257 straight-curve $-1 -151.606249999999989 0.000000000000000 17.462499999999999 1.000000000000000 0.000000000000000 0.000000000000000 I I #
-258 vertex $-1 $203 $259 #
-259 point $-1 -173.037500000000023 0.000000000000000 17.462499999999999 #
-260 vertex $-1 $203 $261 #
-261 point $-1 -130.175000000000011 0.000000000000000 17.462499999999999 #
-262 straight-curve $-1 -130.175000000000011 -1.587500000000000 17.462499999999999 0.000000000000000 1.000000000000000 0.000000000000000 I I #
-263 vertex $-1 $204 $264 #
-264 point $-1 -130.175000000000011 -1.587500000000000 17.462499999999999 #
-265 straight-curve $-1 -151.606249999999989 -1.587500000000000 17.462499999999999 1.000000000000000 0.000000000000000 0.000000000000000 I I #
-266 vertex $-1 $205 $267 #
-267 point $-1 -173.037500000000023 -1.587500000000000 17.462499999999999 #
-268 straight-curve $-1 -173.037500000000023 -1.587500000000000 17.462499999999999 0.000000000000000 1.000000000000000 0.000000000000000 I I #
-269 ellipse-curve $-1 -130.175000000000011 0.000000000000000 22.225000000000001 0.000000000000000 -1.000000000000000 0.000000000000000 0.000000000000000 0.000000000000000 -4.762500000000000 1.000000000000000 I I #
-270 vertex $-1 $207 $271 #
-271 point $-1 -125.412500000000009 0.000000000000000 22.225000000000001 #
-272 straight-curve $-1 -125.412500000000009 -1.587500000000000 22.225000000000001 0.000000000000000 1.000000000000000 0.000000000000000 I I #
-273 vertex $-1 $208 $274 #
-274 point $-1 -125.412500000000009 -1.587500000000000 22.225000000000001 #
-275 ellipse-curve $-1 -130.175000000000011 -1.587500000000000 22.225000000000001 0.000000000000000 -1.000000000000000 0.000000000000000 0.000000000000000 0.000000000000000 -4.762500000000000 1.000000000000000 I I #
-276 straight-curve $-1 -125.412500000000009 0.000000000000000 44.450000000000003 0.000000000000000 0.000000000000000 -1.000000000000000 I I #
-277 vertex $-1 $210 $278 #
-278 point $-1 -125.412500000000009 0.000000000000000 66.674999999999997 #
-279 straight-curve $-1 -125.412500000000009 -1.587500000000000 66.674999999999997 0.000000000000000 1.000000000000000 0.000000000000000 I I #
-280 vertex $-1 $211 $281 #
-281 point $-1 -125.412500000000009 -1.587500000000000 66.674999999999997 #
-282 straight-curve $-1 -125.412500000000009 -1.587500000000000 44.450000000000003 0.000000000000000 0.000000000000000 -1.000000000000000 I I #
-283 ellipse-curve $-1 -130.175000000000011 0.000000000000000 66.674999999999997 0.000000000000000 -1.000000000000000 0.000000000000000 0.000000000000000 0.000000000000000 -4.762500000000000 1.000000000000000 I I #
-284 vertex $-1 $213 $285 #
-285 point $-1 -130.175000000000011 0.000000000000000 71.437500000000000 #
-286 straight-curve $-1 -130.175000000000011 -1.587500000000000 71.437500000000000 0.000000000000000 1.000000000000000 0.000000000000000 I I #
-287 vertex $-1 $214 $288 #
-288 point $-1 -130.175000000000011 -1.587500000000000 71.437500000000000 #
-289 ellipse-curve $-1 -130.175000000000011 -1.587500000000000 66.674999999999997 0.000000000000000 -1.000000000000000 0.000000000000000 0.000000000000000 0.000000000000000 -4.762500000000000 1.000000000000000 I I #
-290 straight-curve $-1 -151.606249999999989 0.000000000000000 71.437500000000000 -1.000000000000000 0.000000000000000 -0.000000000000000 I I #
-291 vertex $-1 $216 $292 #
-292 point $-1 -173.037500000000023 0.000000000000000 71.437500000000000 #
-293 straight-curve $-1 -173.037500000000023 -1.587500000000000 71.437500000000000 0.000000000000000 1.000000000000000 0.000000000000000 I I #
-294 vertex $-1 $217 $295 #
-295 point $-1 -173.037500000000023 -1.587500000000000 71.437500000000000 #
-296 straight-curve $-1 -151.606249999999989 -1.587500000000000 71.437500000000000 -1.000000000000000 0.000000000000000 -0.000000000000000 I I #
-297 ellipse-curve $-1 -173.037500000000023 0.000000000000000 66.674999999999997 0.000000000000000 -1.000000000000000 0.000000000000000 0.000000000000000 0.000000000000000 -4.762500000000000 1.000000000000000 I I #
-298 vertex $-1 $219 $299 #
-299 point $-1 -177.800000000000011 0.000000000000000 66.674999999999997 #
-300 straight-curve $-1 -177.800000000000011 -1.587500000000000 66.674999999999997 0.000000000000000 1.000000000000000 0.000000000000000 I I #
-301 vertex $-1 $220 $302 #
-302 point $-1 -177.800000000000011 -1.587500000000000 66.674999999999997 #
-303 ellipse-curve $-1 -173.037500000000023 -1.587500000000000 66.674999999999997 0.000000000000000 -1.000000000000000 0.000000000000000 0.000000000000000 0.000000000000000 -4.762500000000000 1.000000000000000 I I #
-304 straight-curve $-1 -177.800000000000011 0.000000000000000 44.450000000000003 0.000000000000000 0.000000000000000 -1.000000000000000 I I #
-305 vertex $-1 $222 $306 #
-306 point $-1 -177.800000000000011 0.000000000000000 22.225000000000001 #
-307 straight-curve $-1 -177.800000000000011 -1.587500000000000 22.225000000000001 0.000000000000000 1.000000000000000 0.000000000000000 I I #
-308 vertex $-1 $223 $309 #
-309 point $-1 -177.800000000000011 -1.587500000000000 22.225000000000001 #
-310 straight-curve $-1 -177.800000000000011 -1.587500000000000 44.450000000000003 0.000000000000000 0.000000000000000 -1.000000000000000 I I #
-311 straight-curve $-1 -173.037500000000023 -1.587500000000000 20.116800000000001 0.000000000000000 1.000000000000000 0.000000000000000 I I #
-312 vertex $-1 $225 $313 #
-313 point $-1 -173.037500000000023 -1.587500000000000 20.116800000000001 #
-314 vertex $-1 $225 $315 #
-315 point $-1 -173.037500000000023 0.000000000000000 20.116800000000001 #
-316 ellipse-curve $-1 -173.037500000000023 0.000000000000000 22.225000000000001 0.000000000000000 -1.000000000000000 0.000000000000000 0.000000000000000 0.000000000000000 -2.108200000000000 1.000000000000000 I I #
-317 vertex $-1 $226 $318 #
-318 point $-1 -173.037500000000023 0.000000000000000 24.333200000000001 #
-319 straight-curve $-1 -173.037500000000023 -1.587500000000000 24.333200000000001 0.000000000000000 1.000000000000000 0.000000000000000 I I #
-320 vertex $-1 $227 $321 #
-321 point $-1 -173.037500000000023 -1.587500000000000 24.333200000000001 #
-322 ellipse-curve $-1 -173.037500000000023 -1.587500000000000 22.225000000000001 0.000000000000000 -1.000000000000000 0.000000000000000 0.000000000000000 0.000000000000000 -2.108200000000000 1.000000000000000 I I #
-323 straight-curve $-1 -130.175000000000011 -1.587500000000000 20.116800000000001 0.000000000000000 1.000000000000000 0.000000000000000 I I #
-324 vertex $-1 $229 $325 #
-325 point $-1 -130.175000000000011 -1.587500000000000 20.116800000000001 #
-326 vertex $-1 $229 $327 #
-327 point $-1 -130.175000000000011 0.000000000000000 20.116800000000001 #
-328 ellipse-curve $-1 -130.175000000000011 0.000000000000000 22.225000000000001 0.000000000000000 -1.000000000000000 0.000000000000000 0.000000000000000 0.000000000000000 -2.108200000000000 1.000000000000000 I I #
-329 vertex $-1 $230 $330 #
-330 point $-1 -130.175000000000011 0.000000000000000 24.333200000000001 #
-331 straight-curve $-1 -130.175000000000011 -1.587500000000000 24.333200000000001 0.000000000000000 1.000000000000000 0.000000000000000 I I #
-332 vertex $-1 $231 $333 #
-333 point $-1 -130.175000000000011 -1.587500000000000 24.333200000000001 #
-334 ellipse-curve $-1 -130.175000000000011 -1.587500000000000 22.225000000000001 0.000000000000000 -1.000000000000000 0.000000000000000 0.000000000000000 0.000000000000000 -2.108200000000000 1.000000000000000 I I #
-335 straight-curve $-1 -130.175000000000011 -1.587500000000000 64.566800000000001 0.000000000000000 1.000000000000000 0.000000000000000 I I #
-336 vertex $-1 $233 $337 #
-337 point $-1 -130.175000000000011 -1.587500000000000 64.566800000000001 #
-338 vertex $-1 $233 $339 #
-339 point $-1 -130.175000000000011 0.000000000000000 64.566800000000001 #
-340 ellipse-curve $-1 -130.175000000000011 0.000000000000000 66.674999999999997 0.000000000000000 -1.000000000000000 0.000000000000000 0.000000000000000 0.000000000000000 -2.108200000000000 1.000000000000000 I I #
-341 vertex $-1 $234 $342 #
-342 point $-1 -130.175000000000011 0.000000000000000 68.783199999999994 #
-343 straight-curve $-1 -130.175000000000011 -1.587500000000000 68.783199999999994 0.000000000000000 1.000000000000000 0.000000000000000 I I #
-344 vertex $-1 $235 $345 #
-345 point $-1 -130.175000000000011 -1.587500000000000 68.783199999999994 #
-346 ellipse-curve $-1 -130.175000000000011 -1.587500000000000 66.674999999999997 0.000000000000000 -1.000000000000000 0.000000000000000 0.000000000000000 0.000000000000000 -2.108200000000000 1.000000000000000 I I #
-347 straight-curve $-1 -173.037500000000023 -1.587500000000000 64.566800000000001 0.000000000000000 1.000000000000000 0.000000000000000 I I #
-348 vertex $-1 $237 $349 #
-349 point $-1 -173.037500000000023 -1.587500000000000 64.566800000000001 #
-350 vertex $-1 $237 $351 #
-351 point $-1 -173.037500000000023 0.000000000000000 64.566800000000001 #
-352 ellipse-curve $-1 -173.037500000000023 0.000000000000000 66.674999999999997 0.000000000000000 -1.000000000000000 0.000000000000000 0.000000000000000 0.000000000000000 -2.108200000000000 1.000000000000000 I I #
-353 vertex $-1 $238 $354 #
-354 point $-1 -173.037500000000023 0.000000000000000 68.783199999999994 #
-355 straight-curve $-1 -173.037500000000023 -1.587500000000000 68.783199999999994 0.000000000000000 1.000000000000000 0.000000000000000 I I #
-356 vertex $-1 $239 $357 #
-357 point $-1 -173.037500000000023 -1.587500000000000 68.783199999999994 #
-358 ellipse-curve $-1 -173.037500000000023 -1.587500000000000 66.674999999999997 0.000000000000000 -1.000000000000000 0.000000000000000 0.000000000000000 0.000000000000000 -2.108200000000000 1.000000000000000 I I #
-359 straight-curve $-1 -161.925000000000011 -1.587500000000000 33.337500000000006 0.000000000000000 1.000000000000000 0.000000000000000 I I #
-360 vertex $-1 $241 $361 #
-361 point $-1 -161.925000000000011 -1.587500000000000 33.337500000000006 #
-362 vertex $-1 $241 $363 #
-363 point $-1 -161.925000000000011 0.000000000000000 33.337500000000006 #
-364 ellipse-curve $-1 -161.925000000000011 0.000000000000000 44.450000000000003 0.000000000000000 -1.000000000000000 0.000000000000000 0.000000000000000 0.000000000000000 -11.112500000000001 1.000000000000000 I I #
-365 vertex $-1 $242 $366 #
-366 point $-1 -161.925000000000011 0.000000000000000 55.562500000000000 #
-367 straight-curve $-1 -161.925000000000011 -1.587500000000000 55.562500000000000 0.000000000000000 1.000000000000000 0.000000000000000 I I #
-368 vertex $-1 $243 $369 #
-369 point $-1 -161.925000000000011 -1.587500000000000 55.562500000000000 #
-370 ellipse-curve $-1 -161.925000000000011 -1.587500000000000 44.450000000000003 0.000000000000000 -1.000000000000000 0.000000000000000 0.000000000000000 0.000000000000000 -11.112500000000001 1.000000000000000 I I #
-371 ellipse-curve $-1 -173.037500000000023 0.000000000000000 22.225000000000001 0.000000000000000 -1.000000000000000 0.000000000000000 0.000000000000000 0.000000000000000 -4.762500000000000 1.000000000000000 I I #
-372 ellipse-curve $-1 -173.037500000000023 -1.587500000000000 22.225000000000001 0.000000000000000 -1.000000000000000 0.000000000000000 0.000000000000000 0.000000000000000 -4.762500000000000 1.000000000000000 I I #
-373 ellipse-curve $-1 -161.925000000000011 -1.587500000000000 44.450000000000003 0.000000000000000 -1.000000000000000 0.000000000000000 0.000000000000000 0.000000000000000 -11.112500000000001 1.000000000000000 I I #
-374 ellipse-curve $-1 -173.037500000000023 -1.587500000000000 66.674999999999997 0.000000000000000 -1.000000000000000 0.000000000000000 0.000000000000000 0.000000000000000 -2.108200000000000 1.000000000000000 I I #
-375 ellipse-curve $-1 -130.175000000000011 -1.587500000000000 66.674999999999997 0.000000000000000 -1.000000000000000 0.000000000000000 0.000000000000000 0.000000000000000 -2.108200000000000 1.000000000000000 I I #
-376 ellipse-curve $-1 -130.175000000000011 -1.587500000000000 22.225000000000001 0.000000000000000 -1.000000000000000 0.000000000000000 0.000000000000000 0.000000000000000 -2.108200000000000 1.000000000000000 I I #
-377 ellipse-curve $-1 -173.037500000000023 -1.587500000000000 22.225000000000001 0.000000000000000 -1.000000000000000 0.000000000000000 0.000000000000000 0.000000000000000 -2.108200000000000 1.000000000000000 I I #
-378 ellipse-curve $-1 -161.925000000000011 0.000000000000000 44.450000000000003 0.000000000000000 -1.000000000000000 0.000000000000000 0.000000000000000 0.000000000000000 -11.112500000000001 1.000000000000000 I I #
-379 ellipse-curve $-1 -173.037500000000023 0.000000000000000 66.674999999999997 0.000000000000000 -1.000000000000000 0.000000000000000 0.000000000000000 0.000000000000000 -2.108200000000000 1.000000000000000 I I #
-380 ellipse-curve $-1 -130.175000000000011 0.000000000000000 66.674999999999997 0.000000000000000 -1.000000000000000 0.000000000000000 0.000000000000000 0.000000000000000 -2.108200000000000 1.000000000000000 I I #
-381 ellipse-curve $-1 -130.175000000000011 0.000000000000000 22.225000000000001 0.000000000000000 -1.000000000000000 0.000000000000000 0.000000000000000 0.000000000000000 -2.108200000000000 1.000000000000000 I I #
-382 ellipse-curve $-1 -173.037500000000023 0.000000000000000 22.225000000000001 0.000000000000000 -1.000000000000000 0.000000000000000 0.000000000000000 0.000000000000000 -2.108200000000000 1.000000000000000 I I #
End-of-ACIS-data 