500 0 1 0                                           
26 Datakit CrossCadWare V23.4 2    24 Mon Dec 18 06:08:41 2023 
1 9.9999999999999995e-007 1e-010
-0 body $1 $3 $-1 $-1 #
-1 rgb_color-st-attrib $-1 $2 $-1 $0 0.231373 0.376471 0.705882 #
-2 string_attrib-name_attrib-gen-attrib $-1 $-1 $1 $0 keep keep_kept ignore 17 ATTRIB_XACIS_NAME 7 Plate C #
-3 lump $-1 $-1 $4 $0 #
-4 shell $-1 $-1 $-1 $5 $-1 $3 #
-5 face $6 $7 $77 $4 $-1 $53 forward single #
-6 rgb_color-st-attrib $-1 $-1 $-1 $5 0.231373 0.376471 0.705882 #
-7 face $8 $9 $78 $4 $-1 $54 forward single #
-8 rgb_color-st-attrib $-1 $-1 $-1 $7 0.231373 0.376471 0.705882 #
-9 face $10 $11 $79 $4 $-1 $55 forward single #
-10 rgb_color-st-attrib $-1 $-1 $-1 $9 0.231373 0.376471 0.705882 #
-11 face $12 $13 $80 $4 $-1 $56 forward single #
-12 rgb_color-st-attrib $-1 $-1 $-1 $11 0.231373 0.376471 0.705882 #
-13 face $14 $15 $81 $4 $-1 $57 reversed single #
-14 rgb_color-st-attrib $-1 $-1 $-1 $13 0.231373 0.376471 0.705882 #
-15 face $16 $17 $82 $4 $-1 $58 forward single #
-16 rgb_color-st-attrib $-1 $-1 $-1 $15 0.231373 0.376471 0.705882 #
-17 face $18 $19 $83 $4 $-1 $59 reversed single #
-18 rgb_color-st-attrib $-1 $-1 $-1 $17 0.231373 0.376471 0.705882 #
-19 face $20 $21 $84 $4 $-1 $60 reversed single #
-20 rgb_color-st-attrib $-1 $-1 $-1 $19 0.231373 0.376471 0.705882 #
-21 face $22 $23 $85 $4 $-1 $61 reversed single #
-22 rgb_color-st-attrib $-1 $-1 $-1 $21 0.231373 0.376471 0.705882 #
-23 face $24 $25 $86 $4 $-1 $62 reversed single #
-24 rgb_color-st-attrib $-1 $-1 $-1 $23 0.231373 0.376471 0.705882 #
-25 face $26 $27 $87 $4 $-1 $63 reversed single #
-26 rgb_color-st-attrib $-1 $-1 $-1 $25 0.231373 0.376471 0.705882 #
-27 face $28 $29 $88 $4 $-1 $64 reversed single #
-28 rgb_color-st-attrib $-1 $-1 $-1 $27 0.231373 0.376471 0.705882 #
-29 face $30 $31 $89 $4 $-1 $65 reversed single #
-30 rgb_color-st-attrib $-1 $-1 $-1 $29 0.231373 0.376471 0.705882 #
-31 face $32 $33 $90 $4 $-1 $66 forward single #
-32 rgb_color-st-attrib $-1 $-1 $-1 $31 0.231373 0.376471 0.705882 #
-33 face $34 $35 $91 $4 $-1 $67 reversed single #
-34 rgb_color-st-attrib $-1 $-1 $-1 $33 0.231373 0.376471 0.705882 #
-35 face $36 $37 $92 $4 $-1 $68 forward single #
-36 rgb_color-st-attrib $-1 $-1 $-1 $35 0.231373 0.376471 0.705882 #
-37 face $38 $39 $100 $4 $-1 $69 reversed single #
-38 rgb_color-st-attrib $-1 $-1 $-1 $37 0.231373 0.376471 0.705882 #
-39 face $40 $41 $108 $4 $-1 $70 reversed single #
-40 rgb_color-st-attrib $-1 $-1 $-1 $39 0.231373 0.376471 0.705882 #
-41 face $42 $43 $109 $4 $-1 $71 reversed single #
-42 rgb_color-st-attrib $-1 $-1 $-1 $41 0.231373 0.376471 0.705882 #
-43 face $44 $45 $110 $4 $-1 $72 reversed single #
-44 rgb_color-st-attrib $-1 $-1 $-1 $43 0.231373 0.376471 0.705882 #
-45 face $46 $47 $111 $4 $-1 $73 reversed single #
-46 rgb_color-st-attrib $-1 $-1 $-1 $45 0.231373 0.376471 0.705882 #
-47 face $48 $49 $112 $4 $-1 $74 reversed single #
-48 rgb_color-st-attrib $-1 $-1 $-1 $47 0.231373 0.376471 0.705882 #
-49 face $50 $51 $113 $4 $-1 $75 reversed single #
-50 rgb_color-st-attrib $-1 $-1 $-1 $49 0.231373 0.376471 0.705882 #
-51 face $52 $-1 $114 $4 $-1 $76 reversed single #
-52 rgb_color-st-attrib $-1 $-1 $-1 $51 0.231373 0.376471 0.705882 #
-53 plane-surface $-1 -87.3125000000 -1.5875000000 44.4500000000 1.0000000000 0.0000000000 0.0000000000 0.0000000000 0.0000000000 -1.0000000000 forward_v I I I I #
-54 cone-surface $-1 -92.0750000000 -1.5875000000 66.6750000000 0.0000000000 1.0000000000 0.0000000000 -3.3675960454 0.0000000000 -3.3675960454 1 I I 0 1 1 forward I I I I #
-55 plane-surface $-1 -111.1250000000 -1.5875000000 71.4375000000 0.0000000000 0.0000000000 1.0000000000 1.0000000000 0.0000000000 0.0000000000 forward_v I I I I #
-56 cone-surface $-1 -130.1750000000 -1.5875000000 66.6750000000 0.0000000000 1.0000000000 0.0000000000 3.3675960454 0.0000000000 -3.3675960454 1 I I 0 1 1 forward I I I I #
-57 plane-surface $-1 -134.9375000000 -1.5875000000 44.4500000000 1.0000000000 0.0000000000 0.0000000000 0.0000000000 0.0000000000 -1.0000000000 forward_v I I I I #
-58 cone-surface $-1 -130.1750000000 -1.5875000000 22.2250000000 -0.0000000000 1.0000000000 0.0000000000 3.3675960454 0.0000000000 3.3675960454 1 I I 0 1 1 forward I I I I #
-59 plane-surface $-1 -111.1250000000 -1.5875000000 17.4625000000 0.0000000000 0.0000000000 1.0000000000 1.0000000000 0.0000000000 0.0000000000 forward_v I I I I #
-60 cone-surface $-1 -130.1750000000 -1.5875000000 66.6750000000 0.0000000000 1.0000000000 0.0000000000 2.1082000000 0.0000000000 0.0000000000 1 I I 0 1 1 forward I I I I #
-61 cone-surface $-1 -101.6000000000 -1.5875000000 44.4500000000 0.0000000000 1.0000000000 0.0000000000 4.7625000000 0.0000000000 0.0000000000 1 I I 0 1 1 forward I I I I #
-62 cone-surface $-1 -92.0750000000 -1.5875000000 66.6750000000 0.0000000000 1.0000000000 0.0000000000 2.1082000000 0.0000000000 0.0000000000 1 I I 0 1 1 forward I I I I #
-63 cone-surface $-1 -92.0750000000 -1.5875000000 22.2250000000 0.0000000000 1.0000000000 0.0000000000 2.1082000000 0.0000000000 0.0000000000 1 I I 0 1 1 forward I I I I #
-64 cone-surface $-1 -114.3000000000 -1.5875000000 44.4500000000 0.0000000000 1.0000000000 0.0000000000 2.1082000000 0.0000000000 0.0000000000 1 I I 0 1 1 forward I I I I #
-65 cone-surface $-1 -127.0000000000 -1.5875000000 44.4500000000 0.0000000000 1.0000000000 0.0000000000 2.1082000000 0.0000000000 0.0000000000 1 I I 0 1 1 forward I I I I #
-66 cone-surface $-1 -92.0750000000 -1.5875000000 22.2250000000 0.0000000000 1.0000000000 0.0000000000 -3.3675960454 0.0000000000 3.3675960454 1 I I 0 1 1 forward I I I I #
-67 cone-surface $-1 -130.1750000000 -1.5875000000 22.2250000000 0.0000000000 1.0000000000 0.0000000000 2.1082000000 0.0000000000 0.0000000000 1 I I 0 1 1 forward I I I I #
-68 plane-surface $-1 -111.1250000000 -1.5875000000 44.4500000000 0.0000000000 -1.0000000000 0.0000000000 1.0000000000 0.0000000000 0.0000000000 forward_v I I I I #
-69 plane-surface $-1 -111.1250000000 0.0000000000 44.4500000000 0.0000000000 -1.0000000000 0.0000000000 1.0000000000 0.0000000000 0.0000000000 forward_v I I I I #
-70 cone-surface $-1 -130.1750000000 -1.5875000000 66.6750000000 0.0000000000 1.0000000000 0.0000000000 -2.1082000000 0.0000000000 0.0000000000 1 I I 0 1 1 forward I I I I #
-71 cone-surface $-1 -101.6000000000 -1.5875000000 44.4500000000 0.0000000000 1.0000000000 0.0000000000 -4.7625000000 0.0000000000 0.0000000000 1 I I 0 1 1 forward I I I I #
-72 cone-surface $-1 -92.0750000000 -1.5875000000 66.6750000000 0.0000000000 1.0000000000 0.0000000000 -2.1082000000 0.0000000000 0.0000000000 1 I I 0 1 1 forward I I I I #
-73 cone-surface $-1 -92.0750000000 -1.5875000000 22.2250000000 0.0000000000 1.0000000000 0.0000000000 -2.1082000000 0.0000000000 0.0000000000 1 I I 0 1 1 forward I I I I #
-74 cone-surface $-1 -114.3000000000 -1.5875000000 44.4500000000 0.0000000000 1.0000000000 0.0000000000 -2.1082000000 0.0000000000 0.0000000000 1 I I 0 1 1 forward I I I I #
-75 cone-surface $-1 -127.0000000000 -1.5875000000 44.4500000000 0.0000000000 1.0000000000 0.0000000000 -2.1082000000 0.0000000000 0.0000000000 1 I I 0 1 1 forward I I I I #
-76 cone-surface $-1 -130.1750000000 -1.5875000000 22.2250000000 0.0000000000 1.0000000000 0.0000000000 -2.1082000000 0.0000000000 0.0000000000 1 I I 0 1 1 forward I I I I #
-77 loop $-1 $-1 $115 $5 #
-78 loop $-1 $-1 $119 $7 #
-79 loop $-1 $-1 $123 $9 #
-80 loop $-1 $-1 $127 $11 #
-81 loop $-1 $-1 $131 $13 #
-82 loop $-1 $-1 $135 $15 #
-83 loop $-1 $-1 $139 $17 #
-84 loop $-1 $-1 $143 $19 #
-85 loop $-1 $-1 $147 $21 #
-86 loop $-1 $-1 $151 $23 #
-87 loop $-1 $-1 $155 $25 #
-88 loop $-1 $-1 $159 $27 #
-89 loop $-1 $-1 $163 $29 #
-90 loop $-1 $-1 $167 $31 #
-91 loop $-1 $-1 $171 $33 #
-92 loop $-1 $93 $175 $35 #
-93 loop $-1 $94 $183 $35 #
-94 loop $-1 $95 $185 $35 #
-95 loop $-1 $96 $187 $35 #
-96 loop $-1 $97 $189 $35 #
-97 loop $-1 $98 $191 $35 #
-98 loop $-1 $99 $193 $35 #
-99 loop $-1 $-1 $195 $35 #
-100 loop $-1 $101 $197 $37 #
-101 loop $-1 $102 $205 $37 #
-102 loop $-1 $103 $207 $37 #
-103 loop $-1 $104 $209 $37 #
-104 loop $-1 $105 $211 $37 #
-105 loop $-1 $106 $213 $37 #
-106 loop $-1 $107 $215 $37 #
-107 loop $-1 $-1 $217 $37 #
-108 loop $-1 $-1 $219 $39 #
-109 loop $-1 $-1 $223 $41 #
-110 loop $-1 $-1 $227 $43 #
-111 loop $-1 $-1 $231 $45 #
-112 loop $-1 $-1 $235 $47 #
-113 loop $-1 $-1 $239 $49 #
-114 loop $-1 $-1 $243 $51 #
-115 coedge $-1 $116 $118 $197 $247 reversed $77 $-1 #
-116 coedge $-1 $117 $115 $122 $248 reversed $77 $-1 #
-117 coedge $-1 $118 $116 $175 $249 forward $77 $-1 #
-118 coedge $-1 $115 $117 $168 $250 forward $77 $-1 #
-119 coedge $-1 $120 $122 $204 $251 forward $78 $-1 #
-120 coedge $-1 $121 $119 $126 $252 reversed $78 $-1 #
-121 coedge $-1 $122 $120 $176 $253 reversed $78 $-1 #
-122 coedge $-1 $119 $121 $116 $248 forward $78 $-1 #
-123 coedge $-1 $124 $126 $203 $254 reversed $79 $-1 #
-124 coedge $-1 $125 $123 $130 $255 reversed $79 $-1 #
-125 coedge $-1 $126 $124 $177 $256 forward $79 $-1 #
-126 coedge $-1 $123 $125 $120 $252 forward $79 $-1 #
-127 coedge $-1 $128 $130 $202 $257 forward $80 $-1 #
-128 coedge $-1 $129 $127 $134 $258 reversed $80 $-1 #
-129 coedge $-1 $130 $128 $178 $259 reversed $80 $-1 #
-130 coedge $-1 $127 $129 $124 $255 forward $80 $-1 #
-131 coedge $-1 $132 $134 $201 $260 forward $81 $-1 #
-132 coedge $-1 $133 $131 $138 $261 reversed $81 $-1 #
-133 coedge $-1 $134 $132 $179 $262 reversed $81 $-1 #
-134 coedge $-1 $131 $133 $128 $258 forward $81 $-1 #
-135 coedge $-1 $136 $138 $200 $263 forward $82 $-1 #
-136 coedge $-1 $137 $135 $142 $264 reversed $82 $-1 #
-137 coedge $-1 $138 $136 $180 $265 reversed $82 $-1 #
-138 coedge $-1 $135 $137 $132 $261 forward $82 $-1 #
-139 coedge $-1 $140 $142 $199 $266 forward $83 $-1 #
-140 coedge $-1 $141 $139 $170 $267 reversed $83 $-1 #
-141 coedge $-1 $142 $140 $181 $268 reversed $83 $-1 #
-142 coedge $-1 $139 $141 $136 $264 forward $83 $-1 #
-143 coedge $-1 $144 $146 $219 $269 forward $84 $-1 #
-144 coedge $-1 $145 $143 $216 $270 reversed $84 $-1 #
-145 coedge $-1 $146 $144 $221 $271 reversed $84 $-1 #
-146 coedge $-1 $143 $145 $193 $272 forward $84 $-1 #
-147 coedge $-1 $148 $150 $223 $273 forward $85 $-1 #
-148 coedge $-1 $149 $147 $214 $274 reversed $85 $-1 #
-149 coedge $-1 $150 $148 $225 $275 reversed $85 $-1 #
-150 coedge $-1 $147 $149 $191 $276 forward $85 $-1 #
-151 coedge $-1 $152 $154 $227 $277 forward $86 $-1 #
-152 coedge $-1 $153 $151 $212 $278 reversed $86 $-1 #
-153 coedge $-1 $154 $152 $229 $279 reversed $86 $-1 #
-154 coedge $-1 $151 $153 $189 $280 forward $86 $-1 #
-155 coedge $-1 $156 $158 $231 $281 forward $87 $-1 #
-156 coedge $-1 $157 $155 $210 $282 reversed $87 $-1 #
-157 coedge $-1 $158 $156 $233 $283 reversed $87 $-1 #
-158 coedge $-1 $155 $157 $187 $284 forward $87 $-1 #
-159 coedge $-1 $160 $162 $235 $285 forward $88 $-1 #
-160 coedge $-1 $161 $159 $208 $286 reversed $88 $-1 #
-161 coedge $-1 $162 $160 $237 $287 reversed $88 $-1 #
-162 coedge $-1 $159 $161 $185 $288 forward $88 $-1 #
-163 coedge $-1 $164 $166 $239 $289 forward $89 $-1 #
-164 coedge $-1 $165 $163 $206 $290 reversed $89 $-1 #
-165 coedge $-1 $166 $164 $241 $291 reversed $89 $-1 #
-166 coedge $-1 $163 $165 $183 $292 forward $89 $-1 #
-167 coedge $-1 $168 $170 $198 $293 forward $90 $-1 #
-168 coedge $-1 $169 $167 $118 $250 reversed $90 $-1 #
-169 coedge $-1 $170 $168 $182 $294 reversed $90 $-1 #
-170 coedge $-1 $167 $169 $140 $267 forward $90 $-1 #
-171 coedge $-1 $172 $174 $243 $295 forward $91 $-1 #
-172 coedge $-1 $173 $171 $218 $296 reversed $91 $-1 #
-173 coedge $-1 $174 $172 $245 $297 reversed $91 $-1 #
-174 coedge $-1 $171 $173 $195 $298 forward $91 $-1 #
-175 coedge $-1 $176 $182 $117 $249 reversed $92 $-1 #
-176 coedge $-1 $177 $175 $121 $253 forward $92 $-1 #
-177 coedge $-1 $178 $176 $125 $256 reversed $92 $-1 #
-178 coedge $-1 $179 $177 $129 $259 forward $92 $-1 #
-179 coedge $-1 $180 $178 $133 $262 forward $92 $-1 #
-180 coedge $-1 $181 $179 $137 $265 forward $92 $-1 #
-181 coedge $-1 $182 $180 $141 $268 forward $92 $-1 #
-182 coedge $-1 $175 $181 $169 $294 forward $92 $-1 #
-183 coedge $-1 $184 $184 $166 $292 reversed $93 $-1 #
-184 coedge $-1 $183 $183 $240 $299 reversed $93 $-1 #
-185 coedge $-1 $186 $186 $162 $288 reversed $94 $-1 #
-186 coedge $-1 $185 $185 $236 $300 reversed $94 $-1 #
-187 coedge $-1 $188 $188 $158 $284 reversed $95 $-1 #
-188 coedge $-1 $187 $187 $232 $301 reversed $95 $-1 #
-189 coedge $-1 $190 $190 $154 $280 reversed $96 $-1 #
-190 coedge $-1 $189 $189 $228 $302 reversed $96 $-1 #
-191 coedge $-1 $192 $192 $150 $276 reversed $97 $-1 #
-192 coedge $-1 $191 $191 $224 $303 reversed $97 $-1 #
-193 coedge $-1 $194 $194 $146 $272 reversed $98 $-1 #
-194 coedge $-1 $193 $193 $220 $304 reversed $98 $-1 #
-195 coedge $-1 $196 $196 $174 $298 reversed $99 $-1 #
-196 coedge $-1 $195 $195 $244 $305 reversed $99 $-1 #
-197 coedge $-1 $198 $204 $115 $247 forward $100 $-1 #
-198 coedge $-1 $199 $197 $167 $293 reversed $100 $-1 #
-199 coedge $-1 $200 $198 $139 $266 reversed $100 $-1 #
-200 coedge $-1 $201 $199 $135 $263 reversed $100 $-1 #
-201 coedge $-1 $202 $200 $131 $260 reversed $100 $-1 #
-202 coedge $-1 $203 $201 $127 $257 reversed $100 $-1 #
-203 coedge $-1 $204 $202 $123 $254 forward $100 $-1 #
-204 coedge $-1 $197 $203 $119 $251 reversed $100 $-1 #
-205 coedge $-1 $206 $206 $242 $306 forward $101 $-1 #
-206 coedge $-1 $205 $205 $164 $290 forward $101 $-1 #
-207 coedge $-1 $208 $208 $238 $307 forward $102 $-1 #
-208 coedge $-1 $207 $207 $160 $286 forward $102 $-1 #
-209 coedge $-1 $210 $210 $234 $308 forward $103 $-1 #
-210 coedge $-1 $209 $209 $156 $282 forward $103 $-1 #
-211 coedge $-1 $212 $212 $230 $309 forward $104 $-1 #
-212 coedge $-1 $211 $211 $152 $278 forward $104 $-1 #
-213 coedge $-1 $214 $214 $226 $310 forward $105 $-1 #
-214 coedge $-1 $213 $213 $148 $274 forward $105 $-1 #
-215 coedge $-1 $216 $216 $222 $311 forward $106 $-1 #
-216 coedge $-1 $215 $215 $144 $270 forward $106 $-1 #
-217 coedge $-1 $218 $218 $246 $312 forward $107 $-1 #
-218 coedge $-1 $217 $217 $172 $296 forward $107 $-1 #
-219 coedge $-1 $220 $222 $143 $269 reversed $108 $-1 #
-220 coedge $-1 $221 $219 $194 $304 forward $108 $-1 #
-221 coedge $-1 $222 $220 $145 $271 forward $108 $-1 #
-222 coedge $-1 $219 $221 $215 $311 reversed $108 $-1 #
-223 coedge $-1 $224 $226 $147 $273 reversed $109 $-1 #
-224 coedge $-1 $225 $223 $192 $303 forward $109 $-1 #
-225 coedge $-1 $226 $224 $149 $275 forward $109 $-1 #
-226 coedge $-1 $223 $225 $213 $310 reversed $109 $-1 #
-227 coedge $-1 $228 $230 $151 $277 reversed $110 $-1 #
-228 coedge $-1 $229 $227 $190 $302 forward $110 $-1 #
-229 coedge $-1 $230 $228 $153 $279 forward $110 $-1 #
-230 coedge $-1 $227 $229 $211 $309 reversed $110 $-1 #
-231 coedge $-1 $232 $234 $155 $281 reversed $111 $-1 #
-232 coedge $-1 $233 $231 $188 $301 forward $111 $-1 #
-233 coedge $-1 $234 $232 $157 $283 forward $111 $-1 #
-234 coedge $-1 $231 $233 $209 $308 reversed $111 $-1 #
-235 coedge $-1 $236 $238 $159 $285 reversed $112 $-1 #
-236 coedge $-1 $237 $235 $186 $300 forward $112 $-1 #
-237 coedge $-1 $238 $236 $161 $287 forward $112 $-1 #
-238 coedge $-1 $235 $237 $207 $307 reversed $112 $-1 #
-239 coedge $-1 $240 $242 $163 $289 reversed $113 $-1 #
-240 coedge $-1 $241 $239 $184 $299 forward $113 $-1 #
-241 coedge $-1 $242 $240 $165 $291 forward $113 $-1 #
-242 coedge $-1 $239 $241 $205 $306 reversed $113 $-1 #
-243 coedge $-1 $244 $246 $171 $295 reversed $114 $-1 #
-244 coedge $-1 $245 $243 $196 $305 forward $114 $-1 #
-245 coedge $-1 $246 $244 $173 $297 forward $114 $-1 #
-246 coedge $-1 $243 $245 $217 $312 reversed $114 $-1 #
-247 edge $-1 $314 -22.2250000000 $316 22.2250000000 $115 $313 forward 7 unknown #
-248 edge $-1 $319 0.0000000000 $314 1.5875000000 $116 $318 forward 7 unknown #
-249 edge $-1 $319 -22.2250000000 $322 22.2250000000 $117 $321 forward 7 unknown #
-250 edge $-1 $322 0.0000000000 $316 1.5875000000 $118 $324 forward 7 unknown #
-251 edge $-1 $314 1.5707963268 $326 3.1415926536 $119 $325 forward 7 unknown #
-252 edge $-1 $329 0.0000000000 $326 1.5875000000 $120 $328 forward 7 unknown #
-253 edge $-1 $319 1.5707963268 $329 3.1415926536 $121 $331 forward 7 unknown #
-254 edge $-1 $333 -19.0500000000 $326 19.0500000000 $123 $332 forward 7 unknown #
-255 edge $-1 $336 0.0000000000 $333 1.5875000000 $124 $335 forward 7 unknown #
-256 edge $-1 $336 -19.0500000000 $329 19.0500000000 $125 $338 forward 7 unknown #
-257 edge $-1 $333 3.1415926536 $340 4.7123889804 $127 $339 forward 7 unknown #
-258 edge $-1 $343 0.0000000000 $340 1.5875000000 $128 $342 forward 7 unknown #
-259 edge $-1 $336 3.1415926536 $343 4.7123889804 $129 $345 forward 7 unknown #
-260 edge $-1 $340 -22.2250000000 $347 22.2250000000 $131 $346 forward 7 unknown #
-261 edge $-1 $350 0.0000000000 $347 1.5875000000 $132 $349 forward 7 unknown #
-262 edge $-1 $343 -22.2250000000 $350 22.2250000000 $133 $352 forward 7 unknown #
-263 edge $-1 $347 4.7123889804 $354 6.2831853072 $135 $353 forward 7 unknown #
-264 edge $-1 $357 0.0000000000 $354 1.5875000000 $136 $356 forward 7 unknown #
-265 edge $-1 $350 4.7123889804 $357 6.2831853072 $137 $359 forward 7 unknown #
-266 edge $-1 $354 -19.0500000000 $361 19.0500000000 $139 $360 forward 7 unknown #
-267 edge $-1 $364 0.0000000000 $361 1.5875000000 $140 $363 forward 7 unknown #
-268 edge $-1 $357 -19.0500000000 $364 19.0500000000 $141 $366 forward 7 unknown #
-269 edge $-1 $368 0.0000000000 $370 1.5875000000 $143 $367 forward 7 unknown #
-270 edge $-1 $373 3.1415926536 $370 6.2831853072 $144 $372 forward 7 unknown #
-271 edge $-1 $376 0.0000000000 $373 1.5875000000 $145 $375 forward 7 unknown #
-272 edge $-1 $376 3.1415926536 $368 6.2831853072 $146 $378 forward 7 unknown #
-273 edge $-1 $380 0.0000000000 $382 1.5875000000 $147 $379 forward 7 unknown #
-274 edge $-1 $385 3.1415926536 $382 6.2831853072 $148 $384 forward 7 unknown #
-275 edge $-1 $388 0.0000000000 $385 1.5875000000 $149 $387 forward 7 unknown #
-276 edge $-1 $388 3.1415926536 $380 6.2831853072 $150 $390 forward 7 unknown #
-277 edge $-1 $392 0.0000000000 $394 1.5875000000 $151 $391 forward 7 unknown #
-278 edge $-1 $397 3.1415926536 $394 6.2831853072 $152 $396 forward 7 unknown #
-279 edge $-1 $400 0.0000000000 $397 1.5875000000 $153 $399 forward 7 unknown #
-280 edge $-1 $400 3.1415926536 $392 6.2831853072 $154 $402 forward 7 unknown #
-281 edge $-1 $404 0.0000000000 $406 1.5875000000 $155 $403 forward 7 unknown #
-282 edge $-1 $409 3.1415926536 $406 6.2831853072 $156 $408 forward 7 unknown #
-283 edge $-1 $412 0.0000000000 $409 1.5875000000 $157 $411 forward 7 unknown #
-284 edge $-1 $412 3.1415926536 $404 6.2831853072 $158 $414 forward 7 unknown #
-285 edge $-1 $416 0.0000000000 $418 1.5875000000 $159 $415 forward 7 unknown #
-286 edge $-1 $421 3.1415926536 $418 6.2831853072 $160 $420 forward 7 unknown #
-287 edge $-1 $424 0.0000000000 $421 1.5875000000 $161 $423 forward 7 unknown #
-288 edge $-1 $424 3.1415926536 $416 6.2831853072 $162 $426 forward 7 unknown #
-289 edge $-1 $428 0.0000000000 $430 1.5875000000 $163 $427 forward 7 unknown #
-290 edge $-1 $433 3.1415926536 $430 6.2831853072 $164 $432 forward 7 unknown #
-291 edge $-1 $436 0.0000000000 $433 1.5875000000 $165 $435 forward 7 unknown #
-292 edge $-1 $436 3.1415926536 $428 6.2831853072 $166 $438 forward 7 unknown #
-293 edge $-1 $361 0.0000000000 $316 1.5707963268 $167 $439 forward 7 unknown #
-294 edge $-1 $364 0.0000000000 $322 1.5707963268 $169 $440 forward 7 unknown #
-295 edge $-1 $442 0.0000000000 $444 1.5875000000 $171 $441 forward 7 unknown #
-296 edge $-1 $447 3.1415926536 $444 6.2831853072 $172 $446 forward 7 unknown #
-297 edge $-1 $450 0.0000000000 $447 1.5875000000 $173 $449 forward 7 unknown #
-298 edge $-1 $450 3.1415926536 $442 6.2831853072 $174 $452 forward 7 unknown #
-299 edge $-1 $428 0.0000000000 $436 3.1415926536 $184 $453 forward 7 unknown #
-300 edge $-1 $416 0.0000000000 $424 3.1415926536 $186 $454 forward 7 unknown #
-301 edge $-1 $404 0.0000000000 $412 3.1415926536 $188 $455 forward 7 unknown #
-302 edge $-1 $392 0.0000000000 $400 3.1415926536 $190 $456 forward 7 unknown #
-303 edge $-1 $380 0.0000000000 $388 3.1415926536 $192 $457 forward 7 unknown #
-304 edge $-1 $368 0.0000000000 $376 3.1415926536 $194 $458 forward 7 unknown #
-305 edge $-1 $442 0.0000000000 $450 3.1415926536 $196 $459 forward 7 unknown #
-306 edge $-1 $430 0.0000000000 $433 3.1415926536 $205 $460 forward 7 unknown #
-307 edge $-1 $418 0.0000000000 $421 3.1415926536 $207 $461 forward 7 unknown #
-308 edge $-1 $406 0.0000000000 $409 3.1415926536 $209 $462 forward 7 unknown #
-309 edge $-1 $394 0.0000000000 $397 3.1415926536 $211 $463 forward 7 unknown #
-310 edge $-1 $382 0.0000000000 $385 3.1415926536 $213 $464 forward 7 unknown #
-311 edge $-1 $370 0.0000000000 $373 3.1415926536 $215 $465 forward 7 unknown #
-312 edge $-1 $444 0.0000000000 $447 3.1415926536 $217 $466 forward 7 unknown #
-313 straight-curve $-1 -87.312500000000000 0.000000000000000 44.450000000000003 0.000000000000000 0.000000000000000 -1.000000000000000 I I #
-314 vertex $-1 $247 $315 #
-315 point $-1 -87.312500000000000 0.000000000000000 66.674999999999997 #
-316 vertex $-1 $247 $317 #
-317 point $-1 -87.312500000000000 0.000000000000000 22.225000000000001 #
-318 straight-curve $-1 -87.312500000000000 -1.587500000000000 66.674999999999997 0.000000000000000 1.000000000000000 0.000000000000000 I I #
-319 vertex $-1 $248 $320 #
-320 point $-1 -87.312500000000000 -1.587500000000000 66.674999999999997 #
-321 straight-curve $-1 -87.312500000000000 -1.587500000000000 44.450000000000003 0.000000000000000 0.000000000000000 -1.000000000000000 I I #
-322 vertex $-1 $249 $323 #
-323 point $-1 -87.312500000000000 -1.587500000000000 22.225000000000001 #
-324 straight-curve $-1 -87.312500000000000 -1.587500000000000 22.225000000000001 0.000000000000000 1.000000000000000 0.000000000000000 I I #
-325 ellipse-curve $-1 -92.075000000000003 0.000000000000000 66.674999999999997 0.000000000000000 -1.000000000000000 0.000000000000000 0.000000000000000 0.000000000000000 -4.762500000000000 1.000000000000000 I I #
-326 vertex $-1 $251 $327 #
-327 point $-1 -92.075000000000003 0.000000000000000 71.437500000000000 #
-328 straight-curve $-1 -92.075000000000003 -1.587500000000000 71.437500000000000 0.000000000000000 1.000000000000000 0.000000000000000 I I #
-329 vertex $-1 $252 $330 #
-330 point $-1 -92.075000000000003 -1.587500000000000 71.437500000000000 #
-331 ellipse-curve $-1 -92.075000000000003 -1.587500000000000 66.674999999999997 0.000000000000000 -1.000000000000000 0.000000000000000 0.000000000000000 0.000000000000000 -4.762500000000000 1.000000000000000 I I #
-332 straight-curve $-1 -111.125000000000000 0.000000000000000 71.437500000000000 1.000000000000000 0.000000000000000 0.000000000000000 I I #
-333 vertex $-1 $254 $334 #
-334 point $-1 -130.175000000000011 0.000000000000000 71.437500000000000 #
-335 straight-curve $-1 -130.175000000000011 -1.587500000000000 71.437500000000000 0.000000000000000 1.000000000000000 0.000000000000000 I I #
-336 vertex $-1 $255 $337 #
-337 point $-1 -130.175000000000011 -1.587500000000000 71.437500000000000 #
-338 straight-curve $-1 -111.125000000000000 -1.587500000000000 71.437500000000000 1.000000000000000 0.000000000000000 0.000000000000000 I I #
-339 ellipse-curve $-1 -130.175000000000011 0.000000000000000 66.674999999999997 0.000000000000000 -1.000000000000000 0.000000000000000 0.000000000000000 0.000000000000000 -4.762500000000000 1.000000000000000 I I #
-340 vertex $-1 $257 $341 #
-341 point $-1 -134.937500000000000 0.000000000000000 66.674999999999997 #
-342 straight-curve $-1 -134.937500000000000 -1.587500000000000 66.674999999999997 0.000000000000000 1.000000000000000 0.000000000000000 I I #
-343 vertex $-1 $258 $344 #
-344 point $-1 -134.937500000000000 -1.587500000000000 66.674999999999997 #
-345 ellipse-curve $-1 -130.175000000000011 -1.587500000000000 66.674999999999997 0.000000000000000 -1.000000000000000 0.000000000000000 0.000000000000000 0.000000000000000 -4.762500000000000 1.000000000000000 I I #
-346 straight-curve $-1 -134.937500000000000 0.000000000000000 44.450000000000003 0.000000000000000 0.000000000000000 -1.000000000000000 I I #
-347 vertex $-1 $260 $348 #
-348 point $-1 -134.937500000000000 0.000000000000000 22.225000000000001 #
-349 straight-curve $-1 -134.937500000000000 -1.587500000000000 22.225000000000001 0.000000000000000 1.000000000000000 0.000000000000000 I I #
-350 vertex $-1 $261 $351 #
-351 point $-1 -134.937500000000000 -1.587500000000000 22.225000000000001 #
-352 straight-curve $-1 -134.937500000000000 -1.587500000000000 44.450000000000003 0.000000000000000 0.000000000000000 -1.000000000000000 I I #
-353 ellipse-curve $-1 -130.175000000000011 0.000000000000000 22.225000000000001 0.000000000000000 -1.000000000000000 0.000000000000000 0.000000000000000 0.000000000000000 -4.762500000000000 1.000000000000000 I I #
-354 vertex $-1 $263 $355 #
-355 point $-1 -130.175000000000011 0.000000000000000 17.462499999999999 #
-356 straight-curve $-1 -130.175000000000011 -1.587500000000000 17.462499999999999 0.000000000000000 1.000000000000000 0.000000000000000 I I #
-357 vertex $-1 $264 $358 #
-358 point $-1 -130.175000000000011 -1.587500000000000 17.462499999999999 #
-359 ellipse-curve $-1 -130.175000000000011 -1.587500000000000 22.225000000000001 0.000000000000000 -1.000000000000000 0.000000000000000 0.000000000000000 0.000000000000000 -4.762500000000000 1.000000000000000 I I #
-360 straight-curve $-1 -111.125000000000000 0.000000000000000 17.462499999999999 1.000000000000000 0.000000000000000 0.000000000000000 I I #
-361 vertex $-1 $266 $362 #
-362 point $-1 -92.075000000000003 0.000000000000000 17.462499999999999 #
-363 straight-curve $-1 -92.075000000000003 -1.587500000000000 17.462499999999999 0.000000000000000 1.000000000000000 0.000000000000000 I I #
-364 vertex $-1 $267 $365 #
-365 point $-1 -92.075000000000003 -1.587500000000000 17.462499999999999 #
-366 straight-curve $-1 -111.125000000000000 -1.587500000000000 17.462499999999999 1.000000000000000 0.000000000000000 0.000000000000000 I I #
-367 straight-curve $-1 -130.175000000000011 -1.587500000000000 64.566800000000001 0.000000000000000 1.000000000000000 0.000000000000000 I I #
-368 vertex $-1 $269 $369 #
-369 point $-1 -130.175000000000011 -1.587500000000000 64.566800000000001 #
-370 vertex $-1 $269 $371 #
-371 point $-1 -130.175000000000011 0.000000000000000 64.566800000000001 #
-372 ellipse-curve $-1 -130.175000000000011 0.000000000000000 66.674999999999997 0.000000000000000 -1.000000000000000 0.000000000000000 0.000000000000000 0.000000000000000 -2.108200000000000 1.000000000000000 I I #
-373 vertex $-1 $270 $374 #
-374 point $-1 -130.175000000000011 0.000000000000000 68.783199999999994 #
-375 straight-curve $-1 -130.175000000000011 -1.587500000000000 68.783199999999994 0.000000000000000 1.000000000000000 0.000000000000000 I I #
-376 vertex $-1 $271 $377 #
-377 point $-1 -130.175000000000011 -1.587500000000000 68.783199999999994 #
-378 ellipse-curve $-1 -130.175000000000011 -1.587500000000000 66.674999999999997 0.000000000000000 -1.000000000000000 0.000000000000000 0.000000000000000 0.000000000000000 -2.108200000000000 1.000000000000000 I I #
-379 straight-curve $-1 -101.599999999999994 -1.587500000000000 39.687500000000000 0.000000000000000 1.000000000000000 0.000000000000000 I I #
-380 vertex $-1 $273 $381 #
-381 point $-1 -101.599999999999994 -1.587500000000000 39.687500000000000 #
-382 vertex $-1 $273 $383 #
-383 point $-1 -101.599999999999994 0.000000000000000 39.687500000000000 #
-384 ellipse-curve $-1 -101.599999999999994 0.000000000000000 44.450000000000003 0.000000000000000 -1.000000000000000 0.000000000000000 0.000000000000000 0.000000000000000 -4.762500000000000 1.000000000000000 I I #
-385 vertex $-1 $274 $386 #
-386 point $-1 -101.599999999999994 0.000000000000000 49.212500000000006 #
-387 straight-curve $-1 -101.599999999999994 -1.587500000000000 49.212500000000006 0.000000000000000 1.000000000000000 0.000000000000000 I I #
-388 vertex $-1 $275 $389 #
-389 point $-1 -101.599999999999994 -1.587500000000000 49.212500000000006 #
-390 ellipse-curve $-1 -101.599999999999994 -1.587500000000000 44.450000000000003 0.000000000000000 -1.000000000000000 0.000000000000000 0.000000000000000 0.000000000000000 -4.762500000000000 1.000000000000000 I I #
-391 straight-curve $-1 -92.075000000000003 -1.587500000000000 64.566800000000001 0.000000000000000 1.000000000000000 0.000000000000000 I I #
-392 vertex $-1 $277 $393 #
-393 point $-1 -92.075000000000003 -1.587500000000000 64.566800000000001 #
-394 vertex $-1 $277 $395 #
-395 point $-1 -92.075000000000003 0.000000000000000 64.566800000000001 #
-396 ellipse-curve $-1 -92.075000000000003 0.000000000000000 66.674999999999997 0.000000000000000 -1.000000000000000 0.000000000000000 0.000000000000000 0.000000000000000 -2.108200000000000 1.000000000000000 I I #
-397 vertex $-1 $278 $398 #
-398 point $-1 -92.075000000000003 0.000000000000000 68.783199999999994 #
-399 straight-curve $-1 -92.075000000000003 -1.587500000000000 68.783199999999994 0.000000000000000 1.000000000000000 0.000000000000000 I I #
-400 vertex $-1 $279 $401 #
-401 point $-1 -92.075000000000003 -1.587500000000000 68.783199999999994 #
-402 ellipse-curve $-1 -92.075000000000003 -1.587500000000000 66.674999999999997 0.000000000000000 -1.000000000000000 0.000000000000000 0.000000000000000 0.000000000000000 -2.108200000000000 1.000000000000000 I I #
-403 straight-curve $-1 -92.075000000000003 -1.587500000000000 20.116800000000001 0.000000000000000 1.000000000000000 0.000000000000000 I I #
-404 vertex $-1 $281 $405 #
-405 point $-1 -92.075000000000003 -1.587500000000000 20.116800000000001 #
-406 vertex $-1 $281 $407 #
-407 point $-1 -92.075000000000003 0.000000000000000 20.116800000000001 #
-408 ellipse-curve $-1 -92.075000000000003 0.000000000000000 22.225000000000001 0.000000000000000 -1.000000000000000 0.000000000000000 0.000000000000000 0.000000000000000 -2.108200000000000 1.000000000000000 I I #
-409 vertex $-1 $282 $410 #
-410 point $-1 -92.075000000000003 0.000000000000000 24.333200000000001 #
-411 straight-curve $-1 -92.075000000000003 -1.587500000000000 24.333200000000001 0.000000000000000 1.000000000000000 0.000000000000000 I I #
-412 vertex $-1 $283 $413 #
-413 point $-1 -92.075000000000003 -1.587500000000000 24.333200000000001 #
-414 ellipse-curve $-1 -92.075000000000003 -1.587500000000000 22.225000000000001 0.000000000000000 -1.000000000000000 0.000000000000000 0.000000000000000 0.000000000000000 -2.108200000000000 1.000000000000000 I I #
-415 straight-curve $-1 -114.299999999999997 -1.587500000000000 42.341800000000006 0.000000000000000 1.000000000000000 0.000000000000000 I I #
-416 vertex $-1 $285 $417 #
-417 point $-1 -114.299999999999997 -1.587500000000000 42.341800000000006 #
-418 vertex $-1 $285 $419 #
-419 point $-1 -114.299999999999997 0.000000000000000 42.341800000000006 #
-420 ellipse-curve $-1 -114.299999999999997 0.000000000000000 44.450000000000003 0.000000000000000 -1.000000000000000 0.000000000000000 0.000000000000000 0.000000000000000 -2.108200000000000 1.000000000000000 I I #
-421 vertex $-1 $286 $422 #
-422 point $-1 -114.299999999999997 0.000000000000000 46.558199999999999 #
-423 straight-curve $-1 -114.299999999999997 -1.587500000000000 46.558199999999999 0.000000000000000 1.000000000000000 0.000000000000000 I I #
-424 vertex $-1 $287 $425 #
-425 point $-1 -114.299999999999997 -1.587500000000000 46.558199999999999 #
-426 ellipse-curve $-1 -114.299999999999997 -1.587500000000000 44.450000000000003 0.000000000000000 -1.000000000000000 0.000000000000000 0.000000000000000 0.000000000000000 -2.108200000000000 1.000000000000000 I I #
-427 straight-curve $-1 -127.000000000000000 -1.587500000000000 42.341800000000006 0.000000000000000 1.000000000000000 0.000000000000000 I I #
-428 vertex $-1 $289 $429 #
-429 point $-1 -127.000000000000000 -1.587500000000000 42.341800000000006 #
-430 vertex $-1 $289 $431 #
-431 point $-1 -127.000000000000000 0.000000000000000 42.341800000000006 #
-432 ellipse-curve $-1 -127.000000000000000 0.000000000000000 44.450000000000003 0.000000000000000 -1.000000000000000 0.000000000000000 0.000000000000000 0.000000000000000 -2.108200000000000 1.000000000000000 I I #
-433 vertex $-1 $290 $434 #
-434 point $-1 -127.000000000000000 0.000000000000000 46.558199999999999 #
-435 straight-curve $-1 -127.000000000000000 -1.587500000000000 46.558199999999999 0.000000000000000 1.000000000000000 0.000000000000000 I I #
-436 vertex $-1 $291 $437 #
-437 point $-1 -127.000000000000000 -1.587500000000000 46.558199999999999 #
-438 ellipse-curve $-1 -127.000000000000000 -1.587500000000000 44.450000000000003 0.000000000000000 -1.000000000000000 0.000000000000000 0.000000000000000 0.000000000000000 -2.108200000000000 1.000000000000000 I I #
-439 ellipse-curve $-1 -92.075000000000003 0.000000000000000 22.225000000000001 0.000000000000000 -1.000000000000000 0.000000000000000 0.000000000000000 0.000000000000000 -4.762500000000000 1.000000000000000 I I #
-440 ellipse-curve $-1 -92.075000000000003 -1.587500000000000 22.225000000000001 0.000000000000000 -1.000000000000000 0.000000000000000 0.000000000000000 0.000000000000000 -4.762500000000000 1.000000000000000 I I #
-441 straight-curve $-1 -130.175000000000011 -1.587500000000000 20.116800000000001 0.000000000000000 1.000000000000000 0.000000000000000 I I #
-442 vertex $-1 $295 $443 #
-443 point $-1 -130.175000000000011 -1.587500000000000 20.116800000000001 #
-444 vertex $-1 $295 $445 #
-445 point $-1 -130.175000000000011 0.000000000000000 20.116800000000001 #
-446 ellipse-curve $-1 -130.175000000000011 0.000000000000000 22.225000000000001 0.000000000000000 -1.000000000000000 0.000000000000000 0.000000000000000 0.000000000000000 -2.108200000000000 1.000000000000000 I I #
-447 vertex $-1 $296 $448 #
-448 point $-1 -130.175000000000011 0.000000000000000 24.333200000000001 #
-449 straight-curve $-1 -130.175000000000011 -1.587500000000000 24.333200000000001 0.000000000000000 1.000000000000000 0.000000000000000 I I #
-450 vertex $-1 $297 $451 #
-451 point $-1 -130.175000000000011 -1.587500000000000 24.333200000000001 #
-452 ellipse-curve $-1 -130.175000000000011 -1.587500000000000 22.225000000000001 0.000000000000000 -1.000000000000000 0.000000000000000 0.000000000000000 0.000000000000000 -2.108200000000000 1.000000000000000 I I #
-453 ellipse-curve $-1 -127.000000000000000 -1.587500000000000 44.450000000000003 0.000000000000000 -1.000000000000000 0.000000000000000 0.000000000000000 0.000000000000000 -2.108200000000000 1.000000000000000 I I #
-454 ellipse-curve $-1 -114.299999999999997 -1.587500000000000 44.450000000000003 0.000000000000000 -1.000000000000000 0.000000000000000 0.000000000000000 0.000000000000000 -2.108200000000000 1.000000000000000 I I #
-455 ellipse-curve $-1 -92.075000000000003 -1.587500000000000 22.225000000000001 0.000000000000000 -1.000000000000000 0.000000000000000 0.000000000000000 0.000000000000000 -2.108200000000000 1.000000000000000 I I #
-456 ellipse-curve $-1 -92.075000000000003 -1.587500000000000 66.674999999999997 0.000000000000000 -1.000000000000000 0.000000000000000 0.000000000000000 0.000000000000000 -2.108200000000000 1.000000000000000 I I #
-457 ellipse-curve $-1 -101.599999999999994 -1.587500000000000 44.450000000000003 0.000000000000000 -1.000000000000000 0.000000000000000 0.000000000000000 0.000000000000000 -4.762500000000000 1.000000000000000 I I #
-458 ellipse-curve $-1 -130.175000000000011 -1.587500000000000 66.674999999999997 0.000000000000000 -1.000000000000000 0.000000000000000 0.000000000000000 0.000000000000000 -2.108200000000000 1.000000000000000 I I #
-459 ellipse-curve $-1 -130.175000000000011 -1.587500000000000 22.225000000000001 0.000000000000000 -1.000000000000000 0.000000000000000 0.000000000000000 0.000000000000000 -2.108200000000000 1.000000000000000 I I #
-460 ellipse-curve $-1 -127.000000000000000 0.000000000000000 44.450000000000003 0.000000000000000 -1.000000000000000 0.000000000000000 0.000000000000000 0.000000000000000 -2.108200000000000 1.000000000000000 I I #
-461 ellipse-curve $-1 -114.299999999999997 0.000000000000000 44.450000000000003 0.000000000000000 -1.000000000000000 0.000000000000000 0.000000000000000 0.000000000000000 -2.108200000000000 1.000000000000000 I I #
-462 ellipse-curve $-1 -92.075000000000003 0.000000000000000 22.225000000000001 0.000000000000000 -1.000000000000000 0.000000000000000 0.000000000000000 0.000000000000000 -2.108200000000000 1.000000000000000 I I #
-463 ellipse-curve $-1 -92.075000000000003 0.000000000000000 66.674999999999997 0.000000000000000 -1.000000000000000 0.000000000000000 0.000000000000000 0.000000000000000 -2.108200000000000 1.000000000000000 I I #
-464 ellipse-curve $-1 -101.599999999999994 0.000000000000000 44.450000000000003 0.000000000000000 -1.000000000000000 0.000000000000000 0.000000000000000 0.000000000000000 -4.762500000000000 1.000000000000000 I I #
-465 ellipse-curve $-1 -130.175000000000011 0.000000000000000 66.674999999999997 0.000000000000000 -1.000000000000000 0.000000000000000 0.000000000000000 0.000000000000000 -2.108200000000000 1.000000000000000 I I #
-466 ellipse-curve $-1 -130.175000000000011 0.000000000000000 22.225000000000001 0.000000000000000 -1.000000000000000 0.000000000000000 0.000000000000000 0.000000000000000 -2.108200000000000 1.000000000000000 I I #
End-of-ACIS-data 