500 0 1 0                                           
26 Datakit CrossCadWare V23.4 2    24 Mon Dec 18 02:28:54 2023 
1 9.9999999999999995e-007 1e-010
-0 body $1 $3 $-1 $-1 #
-1 rgb_color-st-attrib $-1 $2 $-1 $0 0.231373 0.376471 0.705882 #
-2 string_attrib-name_attrib-gen-attrib $-1 $-1 $1 $0 keep keep_kept ignore 17 ATTRIB_XACIS_NAME 7 Plate C #
-3 lump $-1 $-1 $4 $0 #
-4 shell $-1 $-1 $-1 $5 $-1 $3 #
-5 face $6 $7 $71 $4 $-1 $49 forward single #
-6 rgb_color-st-attrib $-1 $-1 $-1 $5 0.231373 0.376471 0.705882 #
-7 face $8 $9 $72 $4 $-1 $50 forward single #
-8 rgb_color-st-attrib $-1 $-1 $-1 $7 0.231373 0.376471 0.705882 #
-9 face $10 $11 $73 $4 $-1 $51 forward single #
-10 rgb_color-st-attrib $-1 $-1 $-1 $9 0.231373 0.376471 0.705882 #
-11 face $12 $13 $74 $4 $-1 $52 forward single #
-12 rgb_color-st-attrib $-1 $-1 $-1 $11 0.231373 0.376471 0.705882 #
-13 face $14 $15 $75 $4 $-1 $53 reversed single #
-14 rgb_color-st-attrib $-1 $-1 $-1 $13 0.231373 0.376471 0.705882 #
-15 face $16 $17 $76 $4 $-1 $54 forward single #
-16 rgb_color-st-attrib $-1 $-1 $-1 $15 0.231373 0.376471 0.705882 #
-17 face $18 $19 $77 $4 $-1 $55 reversed single #
-18 rgb_color-st-attrib $-1 $-1 $-1 $17 0.231373 0.376471 0.705882 #
-19 face $20 $21 $78 $4 $-1 $56 reversed single #
-20 rgb_color-st-attrib $-1 $-1 $-1 $19 0.231373 0.376471 0.705882 #
-21 face $22 $23 $79 $4 $-1 $57 reversed single #
-22 rgb_color-st-attrib $-1 $-1 $-1 $21 0.231373 0.376471 0.705882 #
-23 face $24 $25 $80 $4 $-1 $58 reversed single #
-24 rgb_color-st-attrib $-1 $-1 $-1 $23 0.231373 0.376471 0.705882 #
-25 face $26 $27 $81 $4 $-1 $59 reversed single #
-26 rgb_color-st-attrib $-1 $-1 $-1 $25 0.231373 0.376471 0.705882 #
-27 face $28 $29 $82 $4 $-1 $60 reversed single #
-28 rgb_color-st-attrib $-1 $-1 $-1 $27 0.231373 0.376471 0.705882 #
-29 face $30 $31 $83 $4 $-1 $61 forward single #
-30 rgb_color-st-attrib $-1 $-1 $-1 $29 0.231373 0.376471 0.705882 #
-31 face $32 $33 $84 $4 $-1 $62 reversed single #
-32 rgb_color-st-attrib $-1 $-1 $-1 $31 0.231373 0.376471 0.705882 #
-33 face $34 $35 $85 $4 $-1 $63 forward single #
-34 rgb_color-st-attrib $-1 $-1 $-1 $33 0.231373 0.376471 0.705882 #
-35 face $36 $37 $92 $4 $-1 $64 reversed single #
-36 rgb_color-st-attrib $-1 $-1 $-1 $35 0.231373 0.376471 0.705882 #
-37 face $38 $39 $99 $4 $-1 $65 reversed single #
-38 rgb_color-st-attrib $-1 $-1 $-1 $37 0.231373 0.376471 0.705882 #
-39 face $40 $41 $100 $4 $-1 $66 reversed single #
-40 rgb_color-st-attrib $-1 $-1 $-1 $39 0.231373 0.376471 0.705882 #
-41 face $42 $43 $101 $4 $-1 $67 reversed single #
-42 rgb_color-st-attrib $-1 $-1 $-1 $41 0.231373 0.376471 0.705882 #
-43 face $44 $45 $102 $4 $-1 $68 reversed single #
-44 rgb_color-st-attrib $-1 $-1 $-1 $43 0.231373 0.376471 0.705882 #
-45 face $46 $47 $103 $4 $-1 $69 reversed single #
-46 rgb_color-st-attrib $-1 $-1 $-1 $45 0.231373 0.376471 0.705882 #
-47 face $48 $-1 $104 $4 $-1 $70 reversed single #
-48 rgb_color-st-attrib $-1 $-1 $-1 $47 0.231373 0.376471 0.705882 #
-49 plane-surface $-1 -87.3125000000 -1.5875000000 44.4500000000 1.0000000000 0.0000000000 0.0000000000 0.0000000000 0.0000000000 -1.0000000000 forward_v I I I I #
-50 cone-surface $-1 -92.0750000000 -1.5875000000 66.6750000000 0.0000000000 1.0000000000 0.0000000000 -3.3675960454 0.0000000000 -3.3675960454 1 I I 0 1 1 forward I I I I #
-51 plane-surface $-1 -111.1250000000 -1.5875000000 71.4375000000 0.0000000000 0.0000000000 1.0000000000 1.0000000000 0.0000000000 0.0000000000 forward_v I I I I #
-52 cone-surface $-1 -130.1750000000 -1.5875000000 66.6750000000 0.0000000000 1.0000000000 0.0000000000 3.3675960454 0.0000000000 -3.3675960454 1 I I 0 1 1 forward I I I I #
-53 plane-surface $-1 -134.9375000000 -1.5875000000 44.4500000000 1.0000000000 0.0000000000 0.0000000000 0.0000000000 0.0000000000 -1.0000000000 forward_v I I I I #
-54 cone-surface $-1 -130.1750000000 -1.5875000000 22.2250000000 -0.0000000000 1.0000000000 0.0000000000 3.3675960454 0.0000000000 3.3675960454 1 I I 0 1 1 forward I I I I #
-55 plane-surface $-1 -111.1250000000 -1.5875000000 17.4625000000 0.0000000000 0.0000000000 1.0000000000 1.0000000000 0.0000000000 0.0000000000 forward_v I I I I #
-56 cone-surface $-1 -101.6000000000 -1.5875000000 44.4500000000 0.0000000000 1.0000000000 0.0000000000 4.7625000000 0.0000000000 0.0000000000 1 I I 0 1 1 forward I I I I #
-57 cone-surface $-1 -92.0750000000 -1.5875000000 66.6750000000 0.0000000000 1.0000000000 0.0000000000 2.1082000000 0.0000000000 0.0000000000 1 I I 0 1 1 forward I I I I #
-58 cone-surface $-1 -92.0750000000 -1.5875000000 22.2250000000 0.0000000000 1.0000000000 0.0000000000 2.1082000000 0.0000000000 0.0000000000 1 I I 0 1 1 forward I I I I #
-59 cone-surface $-1 -114.3000000000 -1.5875000000 44.4500000000 0.0000000000 1.0000000000 0.0000000000 2.1082000000 0.0000000000 0.0000000000 1 I I 0 1 1 forward I I I I #
-60 cone-surface $-1 -127.0000000000 -1.5875000000 44.4500000000 0.0000000000 1.0000000000 0.0000000000 2.1082000000 0.0000000000 0.0000000000 1 I I 0 1 1 forward I I I I #
-61 cone-surface $-1 -92.0750000000 -1.5875000000 22.2250000000 0.0000000000 1.0000000000 0.0000000000 -3.3675960454 0.0000000000 3.3675960454 1 I I 0 1 1 forward I I I I #
-62 cone-surface $-1 -130.1750000000 -1.5875000000 66.6750000000 0.0000000000 1.0000000000 0.0000000000 2.1082000000 0.0000000000 0.0000000000 1 I I 0 1 1 forward I I I I #
-63 plane-surface $-1 -111.1250000000 -1.5875000000 44.4500000000 0.0000000000 -1.0000000000 0.0000000000 1.0000000000 0.0000000000 0.0000000000 forward_v I I I I #
-64 plane-surface $-1 -111.1250000000 0.0000000000 44.4500000000 0.0000000000 -1.0000000000 0.0000000000 1.0000000000 0.0000000000 0.0000000000 forward_v I I I I #
-65 cone-surface $-1 -101.6000000000 -1.5875000000 44.4500000000 0.0000000000 1.0000000000 0.0000000000 -4.7625000000 0.0000000000 0.0000000000 1 I I 0 1 1 forward I I I I #
-66 cone-surface $-1 -92.0750000000 -1.5875000000 66.6750000000 0.0000000000 1.0000000000 0.0000000000 -2.1082000000 0.0000000000 0.0000000000 1 I I 0 1 1 forward I I I I #
-67 cone-surface $-1 -92.0750000000 -1.5875000000 22.2250000000 0.0000000000 1.0000000000 0.0000000000 -2.1082000000 0.0000000000 0.0000000000 1 I I 0 1 1 forward I I I I #
-68 cone-surface $-1 -114.3000000000 -1.5875000000 44.4500000000 0.0000000000 1.0000000000 0.0000000000 -2.1082000000 0.0000000000 0.0000000000 1 I I 0 1 1 forward I I I I #
-69 cone-surface $-1 -127.0000000000 -1.5875000000 44.4500000000 0.0000000000 1.0000000000 0.0000000000 -2.1082000000 0.0000000000 0.0000000000 1 I I 0 1 1 forward I I I I #
-70 cone-surface $-1 -130.1750000000 -1.5875000000 66.6750000000 0.0000000000 1.0000000000 0.0000000000 -2.1082000000 0.0000000000 0.0000000000 1 I I 0 1 1 forward I I I I #
-71 loop $-1 $-1 $105 $5 #
-72 loop $-1 $-1 $109 $7 #
-73 loop $-1 $-1 $113 $9 #
-74 loop $-1 $-1 $117 $11 #
-75 loop $-1 $-1 $121 $13 #
-76 loop $-1 $-1 $125 $15 #
-77 loop $-1 $-1 $129 $17 #
-78 loop $-1 $-1 $133 $19 #
-79 loop $-1 $-1 $137 $21 #
-80 loop $-1 $-1 $141 $23 #
-81 loop $-1 $-1 $145 $25 #
-82 loop $-1 $-1 $149 $27 #
-83 loop $-1 $-1 $153 $29 #
-84 loop $-1 $-1 $157 $31 #
-85 loop $-1 $86 $161 $33 #
-86 loop $-1 $87 $169 $33 #
-87 loop $-1 $88 $171 $33 #
-88 loop $-1 $89 $173 $33 #
-89 loop $-1 $90 $175 $33 #
-90 loop $-1 $91 $177 $33 #
-91 loop $-1 $-1 $179 $33 #
-92 loop $-1 $93 $181 $35 #
-93 loop $-1 $94 $189 $35 #
-94 loop $-1 $95 $191 $35 #
-95 loop $-1 $96 $193 $35 #
-96 loop $-1 $97 $195 $35 #
-97 loop $-1 $98 $197 $35 #
-98 loop $-1 $-1 $199 $35 #
-99 loop $-1 $-1 $201 $37 #
-100 loop $-1 $-1 $205 $39 #
-101 loop $-1 $-1 $209 $41 #
-102 loop $-1 $-1 $213 $43 #
-103 loop $-1 $-1 $217 $45 #
-104 loop $-1 $-1 $221 $47 #
-105 coedge $-1 $106 $108 $181 $225 reversed $71 $-1 #
-106 coedge $-1 $107 $105 $112 $226 reversed $71 $-1 #
-107 coedge $-1 $108 $106 $161 $227 forward $71 $-1 #
-108 coedge $-1 $105 $107 $154 $228 forward $71 $-1 #
-109 coedge $-1 $110 $112 $188 $229 forward $72 $-1 #
-110 coedge $-1 $111 $109 $116 $230 reversed $72 $-1 #
-111 coedge $-1 $112 $110 $162 $231 reversed $72 $-1 #
-112 coedge $-1 $109 $111 $106 $226 forward $72 $-1 #
-113 coedge $-1 $114 $116 $187 $232 reversed $73 $-1 #
-114 coedge $-1 $115 $113 $120 $233 reversed $73 $-1 #
-115 coedge $-1 $116 $114 $163 $234 forward $73 $-1 #
-116 coedge $-1 $113 $115 $110 $230 forward $73 $-1 #
-117 coedge $-1 $118 $120 $186 $235 forward $74 $-1 #
-118 coedge $-1 $119 $117 $124 $236 reversed $74 $-1 #
-119 coedge $-1 $120 $118 $164 $237 reversed $74 $-1 #
-120 coedge $-1 $117 $119 $114 $233 forward $74 $-1 #
-121 coedge $-1 $122 $124 $185 $238 forward $75 $-1 #
-122 coedge $-1 $123 $121 $128 $239 reversed $75 $-1 #
-123 coedge $-1 $124 $122 $165 $240 reversed $75 $-1 #
-124 coedge $-1 $121 $123 $118 $236 forward $75 $-1 #
-125 coedge $-1 $126 $128 $184 $241 forward $76 $-1 #
-126 coedge $-1 $127 $125 $132 $242 reversed $76 $-1 #
-127 coedge $-1 $128 $126 $166 $243 reversed $76 $-1 #
-128 coedge $-1 $125 $127 $122 $239 forward $76 $-1 #
-129 coedge $-1 $130 $132 $183 $244 forward $77 $-1 #
-130 coedge $-1 $131 $129 $156 $245 reversed $77 $-1 #
-131 coedge $-1 $132 $130 $167 $246 reversed $77 $-1 #
-132 coedge $-1 $129 $131 $126 $242 forward $77 $-1 #
-133 coedge $-1 $134 $136 $201 $247 forward $78 $-1 #
-134 coedge $-1 $135 $133 $198 $248 reversed $78 $-1 #
-135 coedge $-1 $136 $134 $203 $249 reversed $78 $-1 #
-136 coedge $-1 $133 $135 $177 $250 forward $78 $-1 #
-137 coedge $-1 $138 $140 $205 $251 forward $79 $-1 #
-138 coedge $-1 $139 $137 $196 $252 reversed $79 $-1 #
-139 coedge $-1 $140 $138 $207 $253 reversed $79 $-1 #
-140 coedge $-1 $137 $139 $175 $254 forward $79 $-1 #
-141 coedge $-1 $142 $144 $209 $255 forward $80 $-1 #
-142 coedge $-1 $143 $141 $194 $256 reversed $80 $-1 #
-143 coedge $-1 $144 $142 $211 $257 reversed $80 $-1 #
-144 coedge $-1 $141 $143 $173 $258 forward $80 $-1 #
-145 coedge $-1 $146 $148 $213 $259 forward $81 $-1 #
-146 coedge $-1 $147 $145 $192 $260 reversed $81 $-1 #
-147 coedge $-1 $148 $146 $215 $261 reversed $81 $-1 #
-148 coedge $-1 $145 $147 $171 $262 forward $81 $-1 #
-149 coedge $-1 $150 $152 $217 $263 forward $82 $-1 #
-150 coedge $-1 $151 $149 $190 $264 reversed $82 $-1 #
-151 coedge $-1 $152 $150 $219 $265 reversed $82 $-1 #
-152 coedge $-1 $149 $151 $169 $266 forward $82 $-1 #
-153 coedge $-1 $154 $156 $182 $267 forward $83 $-1 #
-154 coedge $-1 $155 $153 $108 $228 reversed $83 $-1 #
-155 coedge $-1 $156 $154 $168 $268 reversed $83 $-1 #
-156 coedge $-1 $153 $155 $130 $245 forward $83 $-1 #
-157 coedge $-1 $158 $160 $221 $269 forward $84 $-1 #
-158 coedge $-1 $159 $157 $200 $270 reversed $84 $-1 #
-159 coedge $-1 $160 $158 $223 $271 reversed $84 $-1 #
-160 coedge $-1 $157 $159 $179 $272 forward $84 $-1 #
-161 coedge $-1 $162 $168 $107 $227 reversed $85 $-1 #
-162 coedge $-1 $163 $161 $111 $231 forward $85 $-1 #
-163 coedge $-1 $164 $162 $115 $234 reversed $85 $-1 #
-164 coedge $-1 $165 $163 $119 $237 forward $85 $-1 #
-165 coedge $-1 $166 $164 $123 $240 forward $85 $-1 #
-166 coedge $-1 $167 $165 $127 $243 forward $85 $-1 #
-167 coedge $-1 $168 $166 $131 $246 forward $85 $-1 #
-168 coedge $-1 $161 $167 $155 $268 forward $85 $-1 #
-169 coedge $-1 $170 $170 $152 $266 reversed $86 $-1 #
-170 coedge $-1 $169 $169 $218 $273 reversed $86 $-1 #
-171 coedge $-1 $172 $172 $148 $262 reversed $87 $-1 #
-172 coedge $-1 $171 $171 $214 $274 reversed $87 $-1 #
-173 coedge $-1 $174 $174 $144 $258 reversed $88 $-1 #
-174 coedge $-1 $173 $173 $210 $275 reversed $88 $-1 #
-175 coedge $-1 $176 $176 $140 $254 reversed $89 $-1 #
-176 coedge $-1 $175 $175 $206 $276 reversed $89 $-1 #
-177 coedge $-1 $178 $178 $136 $250 reversed $90 $-1 #
-178 coedge $-1 $177 $177 $202 $277 reversed $90 $-1 #
-179 coedge $-1 $180 $180 $160 $272 reversed $91 $-1 #
-180 coedge $-1 $179 $179 $222 $278 reversed $91 $-1 #
-181 coedge $-1 $182 $188 $105 $225 forward $92 $-1 #
-182 coedge $-1 $183 $181 $153 $267 reversed $92 $-1 #
-183 coedge $-1 $184 $182 $129 $244 reversed $92 $-1 #
-184 coedge $-1 $185 $183 $125 $241 reversed $92 $-1 #
-185 coedge $-1 $186 $184 $121 $238 reversed $92 $-1 #
-186 coedge $-1 $187 $185 $117 $235 reversed $92 $-1 #
-187 coedge $-1 $188 $186 $113 $232 forward $92 $-1 #
-188 coedge $-1 $181 $187 $109 $229 reversed $92 $-1 #
-189 coedge $-1 $190 $190 $220 $279 forward $93 $-1 #
-190 coedge $-1 $189 $189 $150 $264 forward $93 $-1 #
-191 coedge $-1 $192 $192 $216 $280 forward $94 $-1 #
-192 coedge $-1 $191 $191 $146 $260 forward $94 $-1 #
-193 coedge $-1 $194 $194 $212 $281 forward $95 $-1 #
-194 coedge $-1 $193 $193 $142 $256 forward $95 $-1 #
-195 coedge $-1 $196 $196 $208 $282 forward $96 $-1 #
-196 coedge $-1 $195 $195 $138 $252 forward $96 $-1 #
-197 coedge $-1 $198 $198 $204 $283 forward $97 $-1 #
-198 coedge $-1 $197 $197 $134 $248 forward $97 $-1 #
-199 coedge $-1 $200 $200 $224 $284 forward $98 $-1 #
-200 coedge $-1 $199 $199 $158 $270 forward $98 $-1 #
-201 coedge $-1 $202 $204 $133 $247 reversed $99 $-1 #
-202 coedge $-1 $203 $201 $178 $277 forward $99 $-1 #
-203 coedge $-1 $204 $202 $135 $249 forward $99 $-1 #
-204 coedge $-1 $201 $203 $197 $283 reversed $99 $-1 #
-205 coedge $-1 $206 $208 $137 $251 reversed $100 $-1 #
-206 coedge $-1 $207 $205 $176 $276 forward $100 $-1 #
-207 coedge $-1 $208 $206 $139 $253 forward $100 $-1 #
-208 coedge $-1 $205 $207 $195 $282 reversed $100 $-1 #
-209 coedge $-1 $210 $212 $141 $255 reversed $101 $-1 #
-210 coedge $-1 $211 $209 $174 $275 forward $101 $-1 #
-211 coedge $-1 $212 $210 $143 $257 forward $101 $-1 #
-212 coedge $-1 $209 $211 $193 $281 reversed $101 $-1 #
-213 coedge $-1 $214 $216 $145 $259 reversed $102 $-1 #
-214 coedge $-1 $215 $213 $172 $274 forward $102 $-1 #
-215 coedge $-1 $216 $214 $147 $261 forward $102 $-1 #
-216 coedge $-1 $213 $215 $191 $280 reversed $102 $-1 #
-217 coedge $-1 $218 $220 $149 $263 reversed $103 $-1 #
-218 coedge $-1 $219 $217 $170 $273 forward $103 $-1 #
-219 coedge $-1 $220 $218 $151 $265 forward $103 $-1 #
-220 coedge $-1 $217 $219 $189 $279 reversed $103 $-1 #
-221 coedge $-1 $222 $224 $157 $269 reversed $104 $-1 #
-222 coedge $-1 $223 $221 $180 $278 forward $104 $-1 #
-223 coedge $-1 $224 $222 $159 $271 forward $104 $-1 #
-224 coedge $-1 $221 $223 $199 $284 reversed $104 $-1 #
-225 edge $-1 $286 -22.2250000000 $288 22.2250000000 $105 $285 forward 7 unknown #
-226 edge $-1 $291 0.0000000000 $286 1.5875000000 $106 $290 forward 7 unknown #
-227 edge $-1 $291 -22.2250000000 $294 22.2250000000 $107 $293 forward 7 unknown #
-228 edge $-1 $294 0.0000000000 $288 1.5875000000 $108 $296 forward 7 unknown #
-229 edge $-1 $286 1.5707963268 $298 3.1415926536 $109 $297 forward 7 unknown #
-230 edge $-1 $301 0.0000000000 $298 1.5875000000 $110 $300 forward 7 unknown #
-231 edge $-1 $291 1.5707963268 $301 3.1415926536 $111 $303 forward 7 unknown #
-232 edge $-1 $305 -19.0500000000 $298 19.0500000000 $113 $304 forward 7 unknown #
-233 edge $-1 $308 0.0000000000 $305 1.5875000000 $114 $307 forward 7 unknown #
-234 edge $-1 $308 -19.0500000000 $301 19.0500000000 $115 $310 forward 7 unknown #
-235 edge $-1 $305 3.1415926536 $312 4.7123889804 $117 $311 forward 7 unknown #
-236 edge $-1 $315 0.0000000000 $312 1.5875000000 $118 $314 forward 7 unknown #
-237 edge $-1 $308 3.1415926536 $315 4.7123889804 $119 $317 forward 7 unknown #
-238 edge $-1 $312 -22.2250000000 $319 22.2250000000 $121 $318 forward 7 unknown #
-239 edge $-1 $322 0.0000000000 $319 1.5875000000 $122 $321 forward 7 unknown #
-240 edge $-1 $315 -22.2250000000 $322 22.2250000000 $123 $324 forward 7 unknown #
-241 edge $-1 $319 4.7123889804 $326 6.2831853072 $125 $325 forward 7 unknown #
-242 edge $-1 $329 0.0000000000 $326 1.5875000000 $126 $328 forward 7 unknown #
-243 edge $-1 $322 4.7123889804 $329 6.2831853072 $127 $331 forward 7 unknown #
-244 edge $-1 $326 -19.0500000000 $333 19.0500000000 $129 $332 forward 7 unknown #
-245 edge $-1 $336 0.0000000000 $333 1.5875000000 $130 $335 forward 7 unknown #
-246 edge $-1 $329 -19.0500000000 $336 19.0500000000 $131 $338 forward 7 unknown #
-247 edge $-1 $340 0.0000000000 $342 1.5875000000 $133 $339 forward 7 unknown #
-248 edge $-1 $345 3.1415926536 $342 6.2831853072 $134 $344 forward 7 unknown #
-249 edge $-1 $348 0.0000000000 $345 1.5875000000 $135 $347 forward 7 unknown #
-250 edge $-1 $348 3.1415926536 $340 6.2831853072 $136 $350 forward 7 unknown #
-251 edge $-1 $352 0.0000000000 $354 1.5875000000 $137 $351 forward 7 unknown #
-252 edge $-1 $357 3.1415926536 $354 6.2831853072 $138 $356 forward 7 unknown #
-253 edge $-1 $360 0.0000000000 $357 1.5875000000 $139 $359 forward 7 unknown #
-254 edge $-1 $360 3.1415926536 $352 6.2831853072 $140 $362 forward 7 unknown #
-255 edge $-1 $364 0.0000000000 $366 1.5875000000 $141 $363 forward 7 unknown #
-256 edge $-1 $369 3.1415926536 $366 6.2831853072 $142 $368 forward 7 unknown #
-257 edge $-1 $372 0.0000000000 $369 1.5875000000 $143 $371 forward 7 unknown #
-258 edge $-1 $372 3.1415926536 $364 6.2831853072 $144 $374 forward 7 unknown #
-259 edge $-1 $376 0.0000000000 $378 1.5875000000 $145 $375 forward 7 unknown #
-260 edge $-1 $381 3.1415926536 $378 6.2831853072 $146 $380 forward 7 unknown #
-261 edge $-1 $384 0.0000000000 $381 1.5875000000 $147 $383 forward 7 unknown #
-262 edge $-1 $384 3.1415926536 $376 6.2831853072 $148 $386 forward 7 unknown #
-263 edge $-1 $388 0.0000000000 $390 1.5875000000 $149 $387 forward 7 unknown #
-264 edge $-1 $393 3.1415926536 $390 6.2831853072 $150 $392 forward 7 unknown #
-265 edge $-1 $396 0.0000000000 $393 1.5875000000 $151 $395 forward 7 unknown #
-266 edge $-1 $396 3.1415926536 $388 6.2831853072 $152 $398 forward 7 unknown #
-267 edge $-1 $333 0.0000000000 $288 1.5707963268 $153 $399 forward 7 unknown #
-268 edge $-1 $336 0.0000000000 $294 1.5707963268 $155 $400 forward 7 unknown #
-269 edge $-1 $402 0.0000000000 $404 1.5875000000 $157 $401 forward 7 unknown #
-270 edge $-1 $407 3.1415926536 $404 6.2831853072 $158 $406 forward 7 unknown #
-271 edge $-1 $410 0.0000000000 $407 1.5875000000 $159 $409 forward 7 unknown #
-272 edge $-1 $410 3.1415926536 $402 6.2831853072 $160 $412 forward 7 unknown #
-273 edge $-1 $388 0.0000000000 $396 3.1415926536 $170 $413 forward 7 unknown #
-274 edge $-1 $376 0.0000000000 $384 3.1415926536 $172 $414 forward 7 unknown #
-275 edge $-1 $364 0.0000000000 $372 3.1415926536 $174 $415 forward 7 unknown #
-276 edge $-1 $352 0.0000000000 $360 3.1415926536 $176 $416 forward 7 unknown #
-277 edge $-1 $340 0.0000000000 $348 3.1415926536 $178 $417 forward 7 unknown #
-278 edge $-1 $402 0.0000000000 $410 3.1415926536 $180 $418 forward 7 unknown #
-279 edge $-1 $390 0.0000000000 $393 3.1415926536 $189 $419 forward 7 unknown #
-280 edge $-1 $378 0.0000000000 $381 3.1415926536 $191 $420 forward 7 unknown #
-281 edge $-1 $366 0.0000000000 $369 3.1415926536 $193 $421 forward 7 unknown #
-282 edge $-1 $354 0.0000000000 $357 3.1415926536 $195 $422 forward 7 unknown #
-283 edge $-1 $342 0.0000000000 $345 3.1415926536 $197 $423 forward 7 unknown #
-284 edge $-1 $404 0.0000000000 $407 3.1415926536 $199 $424 forward 7 unknown #
-285 straight-curve $-1 -87.312500000000000 0.000000000000000 44.450000000000003 0.000000000000000 0.000000000000000 -1.000000000000000 I I #
-286 vertex $-1 $225 $287 #
-287 point $-1 -87.312500000000000 0.000000000000000 66.674999999999997 #
-288 vertex $-1 $225 $289 #
-289 point $-1 -87.312500000000000 0.000000000000000 22.225000000000001 #
-290 straight-curve $-1 -87.312500000000000 -1.587500000000000 66.674999999999997 0.000000000000000 1.000000000000000 0.000000000000000 I I #
-291 vertex $-1 $226 $292 #
-292 point $-1 -87.312500000000000 -1.587500000000000 66.674999999999997 #
-293 straight-curve $-1 -87.312500000000000 -1.587500000000000 44.450000000000003 0.000000000000000 0.000000000000000 -1.000000000000000 I I #
-294 vertex $-1 $227 $295 #
-295 point $-1 -87.312500000000000 -1.587500000000000 22.225000000000001 #
-296 straight-curve $-1 -87.312500000000000 -1.587500000000000 22.225000000000001 0.000000000000000 1.000000000000000 0.000000000000000 I I #
-297 ellipse-curve $-1 -92.075000000000003 0.000000000000000 66.674999999999997 0.000000000000000 -1.000000000000000 0.000000000000000 0.000000000000000 0.000000000000000 -4.762500000000000 1.000000000000000 I I #
-298 vertex $-1 $229 $299 #
-299 point $-1 -92.075000000000003 0.000000000000000 71.437500000000000 #
-300 straight-curve $-1 -92.075000000000003 -1.587500000000000 71.437500000000000 0.000000000000000 1.000000000000000 0.000000000000000 I I #
-301 vertex $-1 $230 $302 #
-302 point $-1 -92.075000000000003 -1.587500000000000 71.437500000000000 #
-303 ellipse-curve $-1 -92.075000000000003 -1.587500000000000 66.674999999999997 0.000000000000000 -1.000000000000000 0.000000000000000 0.000000000000000 0.000000000000000 -4.762500000000000 1.000000000000000 I I #
-304 straight-curve $-1 -111.125000000000000 0.000000000000000 71.437500000000000 1.000000000000000 0.000000000000000 0.000000000000000 I I #
-305 vertex $-1 $232 $306 #
-306 point $-1 -130.175000000000011 0.000000000000000 71.437500000000000 #
-307 straight-curve $-1 -130.175000000000011 -1.587500000000000 71.437500000000000 0.000000000000000 1.000000000000000 0.000000000000000 I I #
-308 vertex $-1 $233 $309 #
-309 point $-1 -130.175000000000011 -1.587500000000000 71.437500000000000 #
-310 straight-curve $-1 -111.125000000000000 -1.587500000000000 71.437500000000000 1.000000000000000 0.000000000000000 0.000000000000000 I I #
-311 ellipse-curve $-1 -130.175000000000011 0.000000000000000 66.674999999999997 0.000000000000000 -1.000000000000000 0.000000000000000 0.000000000000000 0.000000000000000 -4.762500000000000 1.000000000000000 I I #
-312 vertex $-1 $235 $313 #
-313 point $-1 -134.937500000000000 0.000000000000000 66.674999999999997 #
-314 straight-curve $-1 -134.937500000000000 -1.587500000000000 66.674999999999997 0.000000000000000 1.000000000000000 0.000000000000000 I I #
-315 vertex $-1 $236 $316 #
-316 point $-1 -134.937500000000000 -1.587500000000000 66.674999999999997 #
-317 ellipse-curve $-1 -130.175000000000011 -1.587500000000000 66.674999999999997 0.000000000000000 -1.000000000000000 0.000000000000000 0.000000000000000 0.000000000000000 -4.762500000000000 1.000000000000000 I I #
-318 straight-curve $-1 -134.937500000000000 0.000000000000000 44.450000000000003 0.000000000000000 0.000000000000000 -1.000000000000000 I I #
-319 vertex $-1 $238 $320 #
-320 point $-1 -134.937500000000000 0.000000000000000 22.225000000000001 #
-321 straight-curve $-1 -134.937500000000000 -1.587500000000000 22.225000000000001 0.000000000000000 1.000000000000000 0.000000000000000 I I #
-322 vertex $-1 $239 $323 #
-323 point $-1 -134.937500000000000 -1.587500000000000 22.225000000000001 #
-324 straight-curve $-1 -134.937500000000000 -1.587500000000000 44.450000000000003 0.000000000000000 0.000000000000000 -1.000000000000000 I I #
-325 ellipse-curve $-1 -130.175000000000011 0.000000000000000 22.225000000000001 0.000000000000000 -1.000000000000000 0.000000000000000 0.000000000000000 0.000000000000000 -4.762500000000000 1.000000000000000 I I #
-326 vertex $-1 $241 $327 #
-327 point $-1 -130.175000000000011 0.000000000000000 17.462499999999999 #
-328 straight-curve $-1 -130.175000000000011 -1.587500000000000 17.462499999999999 0.000000000000000 1.000000000000000 0.000000000000000 I I #
-329 vertex $-1 $242 $330 #
-330 point $-1 -130.175000000000011 -1.587500000000000 17.462499999999999 #
-331 ellipse-curve $-1 -130.175000000000011 -1.587500000000000 22.225000000000001 0.000000000000000 -1.000000000000000 0.000000000000000 0.000000000000000 0.000000000000000 -4.762500000000000 1.000000000000000 I I #
-332 straight-curve $-1 -111.125000000000000 0.000000000000000 17.462499999999999 1.000000000000000 0.000000000000000 0.000000000000000 I I #
-333 vertex $-1 $244 $334 #
-334 point $-1 -92.075000000000003 0.000000000000000 17.462499999999999 #
-335 straight-curve $-1 -92.075000000000003 -1.587500000000000 17.462499999999999 0.000000000000000 1.000000000000000 0.000000000000000 I I #
-336 vertex $-1 $245 $337 #
-337 point $-1 -92.075000000000003 -1.587500000000000 17.462499999999999 #
-338 straight-curve $-1 -111.125000000000000 -1.587500000000000 17.462499999999999 1.000000000000000 0.000000000000000 0.000000000000000 I I #
-339 straight-curve $-1 -101.599999999999994 -1.587500000000000 39.687500000000000 0.000000000000000 1.000000000000000 0.000000000000000 I I #
-340 vertex $-1 $247 $341 #
-341 point $-1 -101.599999999999994 -1.587500000000000 39.687500000000000 #
-342 vertex $-1 $247 $343 #
-343 point $-1 -101.599999999999994 0.000000000000000 39.687500000000000 #
-344 ellipse-curve $-1 -101.599999999999994 0.000000000000000 44.450000000000003 0.000000000000000 -1.000000000000000 0.000000000000000 0.000000000000000 0.000000000000000 -4.762500000000000 1.000000000000000 I I #
-345 vertex $-1 $248 $346 #
-346 point $-1 -101.599999999999994 0.000000000000000 49.212500000000006 #
-347 straight-curve $-1 -101.599999999999994 -1.587500000000000 49.212500000000006 0.000000000000000 1.000000000000000 0.000000000000000 I I #
-348 vertex $-1 $249 $349 #
-349 point $-1 -101.599999999999994 -1.587500000000000 49.212500000000006 #
-350 ellipse-curve $-1 -101.599999999999994 -1.587500000000000 44.450000000000003 0.000000000000000 -1.000000000000000 0.000000000000000 0.000000000000000 0.000000000000000 -4.762500000000000 1.000000000000000 I I #
-351 straight-curve $-1 -92.075000000000003 -1.587500000000000 64.566800000000001 0.000000000000000 1.000000000000000 0.000000000000000 I I #
-352 vertex $-1 $251 $353 #
-353 point $-1 -92.075000000000003 -1.587500000000000 64.566800000000001 #
-354 vertex $-1 $251 $355 #
-355 point $-1 -92.075000000000003 0.000000000000000 64.566800000000001 #
-356 ellipse-curve $-1 -92.075000000000003 0.000000000000000 66.674999999999997 0.000000000000000 -1.000000000000000 0.000000000000000 0.000000000000000 0.000000000000000 -2.108200000000000 1.000000000000000 I I #
-357 vertex $-1 $252 $358 #
-358 point $-1 -92.075000000000003 0.000000000000000 68.783199999999994 #
-359 straight-curve $-1 -92.075000000000003 -1.587500000000000 68.783199999999994 0.000000000000000 1.000000000000000 0.000000000000000 I I #
-360 vertex $-1 $253 $361 #
-361 point $-1 -92.075000000000003 -1.587500000000000 68.783199999999994 #
-362 ellipse-curve $-1 -92.075000000000003 -1.587500000000000 66.674999999999997 0.000000000000000 -1.000000000000000 0.000000000000000 0.000000000000000 0.000000000000000 -2.108200000000000 1.000000000000000 I I #
-363 straight-curve $-1 -92.075000000000003 -1.587500000000000 20.116800000000001 0.000000000000000 1.000000000000000 0.000000000000000 I I #
-364 vertex $-1 $255 $365 #
-365 point $-1 -92.075000000000003 -1.587500000000000 20.116800000000001 #
-366 vertex $-1 $255 $367 #
-367 point $-1 -92.075000000000003 0.000000000000000 20.116800000000001 #
-368 ellipse-curve $-1 -92.075000000000003 0.000000000000000 22.225000000000001 0.000000000000000 -1.000000000000000 0.000000000000000 0.000000000000000 0.000000000000000 -2.108200000000000 1.000000000000000 I I #
-369 vertex $-1 $256 $370 #
-370 point $-1 -92.075000000000003 0.000000000000000 24.333200000000001 #
-371 straight-curve $-1 -92.075000000000003 -1.587500000000000 24.333200000000001 0.000000000000000 1.000000000000000 0.000000000000000 I I #
-372 vertex $-1 $257 $373 #
-373 point $-1 -92.075000000000003 -1.587500000000000 24.333200000000001 #
-374 ellipse-curve $-1 -92.075000000000003 -1.587500000000000 22.225000000000001 0.000000000000000 -1.000000000000000 0.000000000000000 0.000000000000000 0.000000000000000 -2.108200000000000 1.000000000000000 I I #
-375 straight-curve $-1 -114.299999999999997 -1.587500000000000 42.341800000000006 0.000000000000000 1.000000000000000 0.000000000000000 I I #
-376 vertex $-1 $259 $377 #
-377 point $-1 -114.299999999999997 -1.587500000000000 42.341800000000006 #
-378 vertex $-1 $259 $379 #
-379 point $-1 -114.299999999999997 0.000000000000000 42.341800000000006 #
-380 ellipse-curve $-1 -114.299999999999997 0.000000000000000 44.450000000000003 0.000000000000000 -1.000000000000000 0.000000000000000 0.000000000000000 0.000000000000000 -2.108200000000000 1.000000000000000 I I #
-381 vertex $-1 $260 $382 #
-382 point $-1 -114.299999999999997 0.000000000000000 46.558199999999999 #
-383 straight-curve $-1 -114.299999999999997 -1.587500000000000 46.558199999999999 0.000000000000000 1.000000000000000 0.000000000000000 I I #
-384 vertex $-1 $261 $385 #
-385 point $-1 -114.299999999999997 -1.587500000000000 46.558199999999999 #
-386 ellipse-curve $-1 -114.299999999999997 -1.587500000000000 44.450000000000003 0.000000000000000 -1.000000000000000 0.000000000000000 0.000000000000000 0.000000000000000 -2.108200000000000 1.000000000000000 I I #
-387 straight-curve $-1 -127.000000000000000 -1.587500000000000 42.341800000000006 0.000000000000000 1.000000000000000 0.000000000000000 I I #
-388 vertex $-1 $263 $389 #
-389 point $-1 -127.000000000000000 -1.587500000000000 42.341800000000006 #
-390 vertex $-1 $263 $391 #
-391 point $-1 -127.000000000000000 0.000000000000000 42.341800000000006 #
-392 ellipse-curve $-1 -127.000000000000000 0.000000000000000 44.450000000000003 0.000000000000000 -1.000000000000000 0.000000000000000 0.000000000000000 0.000000000000000 -2.108200000000000 1.000000000000000 I I #
-393 vertex $-1 $264 $394 #
-394 point $-1 -127.000000000000000 0.000000000000000 46.558199999999999 #
-395 straight-curve $-1 -127.000000000000000 -1.587500000000000 46.558199999999999 0.000000000000000 1.000000000000000 0.000000000000000 I I #
-396 vertex $-1 $265 $397 #
-397 point $-1 -127.000000000000000 -1.587500000000000 46.558199999999999 #
-398 ellipse-curve $-1 -127.000000000000000 -1.587500000000000 44.450000000000003 0.000000000000000 -1.000000000000000 0.000000000000000 0.000000000000000 0.000000000000000 -2.108200000000000 1.000000000000000 I I #
-399 ellipse-curve $-1 -92.075000000000003 0.000000000000000 22.225000000000001 0.000000000000000 -1.000000000000000 0.000000000000000 0.000000000000000 0.000000000000000 -4.762500000000000 1.000000000000000 I I #
-400 ellipse-curve $-1 -92.075000000000003 -1.587500000000000 22.225000000000001 0.000000000000000 -1.000000000000000 0.000000000000000 0.000000000000000 0.000000000000000 -4.762500000000000 1.000000000000000 I I #
-401 straight-curve $-1 -130.175000000000011 -1.587500000000000 64.566800000000001 0.000000000000000 1.000000000000000 0.000000000000000 I I #
-402 vertex $-1 $269 $403 #
-403 point $-1 -130.175000000000011 -1.587500000000000 64.566800000000001 #
-404 vertex $-1 $269 $405 #
-405 point $-1 -130.175000000000011 0.000000000000000 64.566800000000001 #
-406 ellipse-curve $-1 -130.175000000000011 0.000000000000000 66.674999999999997 0.000000000000000 -1.000000000000000 0.000000000000000 0.000000000000000 0.000000000000000 -2.108200000000000 1.000000000000000 I I #
-407 vertex $-1 $270 $408 #
-408 point $-1 -130.175000000000011 0.000000000000000 68.783199999999994 #
-409 straight-curve $-1 -130.175000000000011 -1.587500000000000 68.783199999999994 0.000000000000000 1.000000000000000 0.000000000000000 I I #
-410 vertex $-1 $271 $411 #
-411 point $-1 -130.175000000000011 -1.587500000000000 68.783199999999994 #
-412 ellipse-curve $-1 -130.175000000000011 -1.587500000000000 66.674999999999997 0.000000000000000 -1.000000000000000 0.000000000000000 0.000000000000000 0.000000000000000 -2.108200000000000 1.000000000000000 I I #
-413 ellipse-curve $-1 -127.000000000000000 -1.587500000000000 44.450000000000003 0.000000000000000 -1.000000000000000 0.000000000000000 0.000000000000000 0.000000000000000 -2.108200000000000 1.000000000000000 I I #
-414 ellipse-curve $-1 -114.299999999999997 -1.587500000000000 44.450000000000003 0.000000000000000 -1.000000000000000 0.000000000000000 0.000000000000000 0.000000000000000 -2.108200000000000 1.000000000000000 I I #
-415 ellipse-curve $-1 -92.075000000000003 -1.587500000000000 22.225000000000001 0.000000000000000 -1.000000000000000 0.000000000000000 0.000000000000000 0.000000000000000 -2.108200000000000 1.000000000000000 I I #
-416 ellipse-curve $-1 -92.075000000000003 -1.587500000000000 66.674999999999997 0.000000000000000 -1.000000000000000 0.000000000000000 0.000000000000000 0.000000000000000 -2.108200000000000 1.000000000000000 I I #
-417 ellipse-curve $-1 -101.599999999999994 -1.587500000000000 44.450000000000003 0.000000000000000 -1.000000000000000 0.000000000000000 0.000000000000000 0.000000000000000 -4.762500000000000 1.000000000000000 I I #
-418 ellipse-curve $-1 -130.175000000000011 -1.587500000000000 66.674999999999997 0.000000000000000 -1.000000000000000 0.000000000000000 0.000000000000000 0.000000000000000 -2.108200000000000 1.000000000000000 I I #
-419 ellipse-curve $-1 -127.000000000000000 0.000000000000000 44.450000000000003 0.000000000000000 -1.000000000000000 0.000000000000000 0.000000000000000 0.000000000000000 -2.108200000000000 1.000000000000000 I I #
-420 ellipse-curve $-1 -114.299999999999997 0.000000000000000 44.450000000000003 0.000000000000000 -1.000000000000000 0.000000000000000 0.000000000000000 0.000000000000000 -2.108200000000000 1.000000000000000 I I #
-421 ellipse-curve $-1 -92.075000000000003 0.000000000000000 22.225000000000001 0.000000000000000 -1.000000000000000 0.000000000000000 0.000000000000000 0.000000000000000 -2.108200000000000 1.000000000000000 I I #
-422 ellipse-curve $-1 -92.075000000000003 0.000000000000000 66.674999999999997 0.000000000000000 -1.000000000000000 0.000000000000000 0.000000000000000 0.000000000000000 -2.108200000000000 1.000000000000000 I I #
-423 ellipse-curve $-1 -101.599999999999994 0.000000000000000 44.450000000000003 0.000000000000000 -1.000000000000000 0.000000000000000 0.000000000000000 0.000000000000000 -4.762500000000000 1.000000000000000 I I #
-424 ellipse-curve $-1 -130.175000000000011 0.000000000000000 66.674999999999997 0.000000000000000 -1.000000000000000 0.000000000000000 0.000000000000000 0.000000000000000 -2.108200000000000 1.000000000000000 I I #
End-of-ACIS-data 