500 0 1 0                                           
26 Datakit CrossCadWare V23.3 2    24 Sun Oct 22 01:17:45 2023 
1 9.9999999999999995e-007 1e-010
-0 body $1 $3 $-1 $-1 #
-1 rgb_color-st-attrib $-1 $2 $-1 $0 0.968627 0.525490 0.003922 #
-2 string_attrib-name_attrib-gen-attrib $-1 $-1 $1 $0 keep keep_kept ignore 17 ATTRIB_XACIS_NAME 14 Intake Plate A #
-3 lump $-1 $-1 $4 $0 #
-4 shell $-1 $-1 $-1 $5 $-1 $3 #
-5 face $6 $7 $95 $4 $-1 $65 reversed single #
-6 rgb_color-st-attrib $-1 $-1 $-1 $5 0.968627 0.525490 0.003922 #
-7 face $8 $9 $96 $4 $-1 $66 reversed single #
-8 rgb_color-st-attrib $-1 $-1 $-1 $7 0.968627 0.525490 0.003922 #
-9 face $10 $11 $97 $4 $-1 $67 forward single #
-10 rgb_color-st-attrib $-1 $-1 $-1 $9 0.968627 0.525490 0.003922 #
-11 face $12 $13 $98 $4 $-1 $68 reversed single #
-12 rgb_color-st-attrib $-1 $-1 $-1 $11 0.968627 0.525490 0.003922 #
-13 face $14 $15 $99 $4 $-1 $69 forward single #
-14 rgb_color-st-attrib $-1 $-1 $-1 $13 0.968627 0.525490 0.003922 #
-15 face $16 $17 $100 $4 $-1 $70 forward single #
-16 rgb_color-st-attrib $-1 $-1 $-1 $15 0.968627 0.525490 0.003922 #
-17 face $18 $19 $101 $4 $-1 $71 forward single #
-18 rgb_color-st-attrib $-1 $-1 $-1 $17 0.968627 0.525490 0.003922 #
-19 face $20 $21 $102 $4 $-1 $72 forward single #
-20 rgb_color-st-attrib $-1 $-1 $-1 $19 0.968627 0.525490 0.003922 #
-21 face $22 $23 $103 $4 $-1 $73 forward single #
-22 rgb_color-st-attrib $-1 $-1 $-1 $21 0.968627 0.525490 0.003922 #
-23 face $24 $25 $104 $4 $-1 $74 reversed single #
-24 rgb_color-st-attrib $-1 $-1 $-1 $23 0.968627 0.525490 0.003922 #
-25 face $26 $27 $105 $4 $-1 $75 forward single #
-26 rgb_color-st-attrib $-1 $-1 $-1 $25 0.968627 0.525490 0.003922 #
-27 face $28 $29 $106 $4 $-1 $76 reversed single #
-28 rgb_color-st-attrib $-1 $-1 $-1 $27 0.968627 0.525490 0.003922 #
-29 face $30 $31 $107 $4 $-1 $77 forward single #
-30 rgb_color-st-attrib $-1 $-1 $-1 $29 0.968627 0.525490 0.003922 #
-31 face $32 $33 $108 $4 $-1 $78 reversed single #
-32 rgb_color-st-attrib $-1 $-1 $-1 $31 0.968627 0.525490 0.003922 #
-33 face $34 $35 $109 $4 $-1 $79 reversed single #
-34 rgb_color-st-attrib $-1 $-1 $-1 $33 0.968627 0.525490 0.003922 #
-35 face $36 $37 $110 $4 $-1 $80 reversed single #
-36 rgb_color-st-attrib $-1 $-1 $-1 $35 0.968627 0.525490 0.003922 #
-37 face $38 $39 $111 $4 $-1 $81 reversed single #
-38 rgb_color-st-attrib $-1 $-1 $-1 $37 0.968627 0.525490 0.003922 #
-39 face $40 $41 $112 $4 $-1 $82 reversed single #
-40 rgb_color-st-attrib $-1 $-1 $-1 $39 0.968627 0.525490 0.003922 #
-41 face $42 $43 $113 $4 $-1 $83 reversed single #
-42 rgb_color-st-attrib $-1 $-1 $-1 $41 0.968627 0.525490 0.003922 #
-43 face $44 $45 $114 $4 $-1 $84 forward single #
-44 rgb_color-st-attrib $-1 $-1 $-1 $43 0.968627 0.525490 0.003922 #
-45 face $46 $47 $115 $4 $-1 $85 reversed single #
-46 rgb_color-st-attrib $-1 $-1 $-1 $45 0.968627 0.525490 0.003922 #
-47 face $48 $49 $116 $4 $-1 $86 forward single #
-48 rgb_color-st-attrib $-1 $-1 $-1 $47 0.968627 0.525490 0.003922 #
-49 face $50 $51 $124 $4 $-1 $87 reversed single #
-50 rgb_color-st-attrib $-1 $-1 $-1 $49 0.968627 0.525490 0.003922 #
-51 face $52 $53 $132 $4 $-1 $88 reversed single #
-52 rgb_color-st-attrib $-1 $-1 $-1 $51 0.968627 0.525490 0.003922 #
-53 face $54 $55 $133 $4 $-1 $89 reversed single #
-54 rgb_color-st-attrib $-1 $-1 $-1 $53 0.968627 0.525490 0.003922 #
-55 face $56 $57 $134 $4 $-1 $90 reversed single #
-56 rgb_color-st-attrib $-1 $-1 $-1 $55 0.968627 0.525490 0.003922 #
-57 face $58 $59 $135 $4 $-1 $91 reversed single #
-58 rgb_color-st-attrib $-1 $-1 $-1 $57 0.968627 0.525490 0.003922 #
-59 face $60 $61 $136 $4 $-1 $92 reversed single #
-60 rgb_color-st-attrib $-1 $-1 $-1 $59 0.968627 0.525490 0.003922 #
-61 face $62 $63 $137 $4 $-1 $93 reversed single #
-62 rgb_color-st-attrib $-1 $-1 $-1 $61 0.968627 0.525490 0.003922 #
-63 face $64 $-1 $138 $4 $-1 $94 reversed single #
-64 rgb_color-st-attrib $-1 $-1 $-1 $63 0.968627 0.525490 0.003922 #
-65 cone-surface $-1 44.4500000000 -1.5875000000 -6.3500000000 0.0000000000 1.0000000000 0.0000000000 -0.0000000000 0.0000000000 -9.5250000000 1 I I 0 1 1 forward I I I I #
-66 plane-surface $-1 53.9750000000 -1.5875000000 -7.9375000000 1.0000000000 0.0000000000 0.0000000000 0.0000000000 0.0000000000 -1.0000000000 forward_v I I I I #
-67 cone-surface $-1 57.1500000000 -1.5875000000 -9.5250000000 -0.0000000000 1.0000000000 0.0000000000 2.2450640303 0.0000000000 2.2450640303 1 I I 0 1 1 forward I I I I #
-68 plane-surface $-1 65.0875000000 -1.5875000000 -12.7000000000 0.0000000000 0.0000000000 1.0000000000 1.0000000000 0.0000000000 0.0000000000 forward_v I I I I #
-69 cone-surface $-1 73.0250000000 -1.5875000000 -9.5250000000 0.0000000000 1.0000000000 0.0000000000 -2.2450640303 0.0000000000 2.2450640303 1 I I 0 1 1 forward I I I I #
-70 plane-surface $-1 76.2000000000 -1.5875000000 33.3375000000 1.0000000000 0.0000000000 0.0000000000 0.0000000000 0.0000000000 -1.0000000000 forward_v I I I I #
-71 cone-surface $-1 73.0250000000 -1.5875000000 76.2000000000 0.0000000000 1.0000000000 0.0000000000 -2.2450640303 0.0000000000 -2.2450640303 1 I I 0 1 1 forward I I I I #
-72 plane-surface $-1 44.4500000000 -1.5875000000 79.3750000000 0.0000000000 0.0000000000 1.0000000000 1.0000000000 0.0000000000 0.0000000000 forward_v I I I I #
-73 cone-surface $-1 15.8750000000 -1.5875000000 76.2000000000 0.0000000000 1.0000000000 0.0000000000 2.2450640303 0.0000000000 -2.2450640303 1 I I 0 1 1 forward I I I I #
-74 plane-surface $-1 12.7000000000 -1.5875000000 33.3375000000 1.0000000000 0.0000000000 0.0000000000 0.0000000000 0.0000000000 -1.0000000000 forward_v I I I I #
-75 cone-surface $-1 15.8750000000 -1.5875000000 -9.5250000000 -0.0000000000 1.0000000000 0.0000000000 2.2450640303 0.0000000000 2.2450640303 1 I I 0 1 1 forward I I I I #
-76 plane-surface $-1 23.8125000000 -1.5875000000 -12.7000000000 0.0000000000 0.0000000000 1.0000000000 1.0000000000 0.0000000000 0.0000000000 forward_v I I I I #
-77 cone-surface $-1 31.7500000000 -1.5875000000 -9.5250000000 0.0000000000 1.0000000000 0.0000000000 -2.2450640303 0.0000000000 2.2450640303 1 I I 0 1 1 forward I I I I #
-78 cone-surface $-1 69.8500000000 -1.5875000000 -6.3500000000 0.0000000000 1.0000000000 0.0000000000 2.1082000000 0.0000000000 0.0000000000 1 I I 0 1 1 forward I I I I #
-79 cone-surface $-1 69.8500000000 -1.5875000000 6.3500000000 0.0000000000 1.0000000000 0.0000000000 2.1082000000 0.0000000000 0.0000000000 1 I I 0 1 1 forward I I I I #
-80 cone-surface $-1 69.8500000000 -1.5875000000 50.8000000000 0.0000000000 1.0000000000 0.0000000000 2.1082000000 0.0000000000 0.0000000000 1 I I 0 1 1 forward I I I I #
-81 cone-surface $-1 44.4500000000 -1.5875000000 66.6750000000 0.0000000000 1.0000000000 0.0000000000 2.1082000000 0.0000000000 0.0000000000 1 I I 0 1 1 forward I I I I #
-82 cone-surface $-1 19.0500000000 -1.5875000000 6.3500000000 0.0000000000 1.0000000000 0.0000000000 2.1082000000 0.0000000000 0.0000000000 1 I I 0 1 1 forward I I I I #
-83 cone-surface $-1 19.0500000000 -1.5875000000 -6.3500000000 0.0000000000 1.0000000000 0.0000000000 2.1082000000 0.0000000000 0.0000000000 1 I I 0 1 1 forward I I I I #
-84 plane-surface $-1 34.9250000000 -1.5875000000 -7.9375000000 1.0000000000 0.0000000000 0.0000000000 0.0000000000 0.0000000000 -1.0000000000 forward_v I I I I #
-85 cone-surface $-1 19.0500000000 -1.5875000000 31.7500000000 0.0000000000 1.0000000000 0.0000000000 2.1082000000 0.0000000000 0.0000000000 1 I I 0 1 1 forward I I I I #
-86 plane-surface $-1 44.4500000000 -1.5875000000 33.3375000000 0.0000000000 -1.0000000000 0.0000000000 1.0000000000 0.0000000000 0.0000000000 forward_v I I I I #
-87 plane-surface $-1 44.4500000000 0.0000000000 33.3375000000 0.0000000000 -1.0000000000 0.0000000000 1.0000000000 0.0000000000 0.0000000000 forward_v I I I I #
-88 cone-surface $-1 69.8500000000 -1.5875000000 -6.3500000000 0.0000000000 1.0000000000 0.0000000000 -2.1082000000 0.0000000000 0.0000000000 1 I I 0 1 1 forward I I I I #
-89 cone-surface $-1 69.8500000000 -1.5875000000 6.3500000000 0.0000000000 1.0000000000 0.0000000000 -2.1082000000 0.0000000000 0.0000000000 1 I I 0 1 1 forward I I I I #
-90 cone-surface $-1 69.8500000000 -1.5875000000 50.8000000000 0.0000000000 1.0000000000 0.0000000000 -2.1082000000 0.0000000000 0.0000000000 1 I I 0 1 1 forward I I I I #
-91 cone-surface $-1 44.4500000000 -1.5875000000 66.6750000000 0.0000000000 1.0000000000 0.0000000000 -2.1082000000 0.0000000000 0.0000000000 1 I I 0 1 1 forward I I I I #
-92 cone-surface $-1 19.0500000000 -1.5875000000 6.3500000000 0.0000000000 1.0000000000 0.0000000000 -2.1082000000 0.0000000000 0.0000000000 1 I I 0 1 1 forward I I I I #
-93 cone-surface $-1 19.0500000000 -1.5875000000 -6.3500000000 0.0000000000 1.0000000000 0.0000000000 -2.1082000000 0.0000000000 0.0000000000 1 I I 0 1 1 forward I I I I #
-94 cone-surface $-1 19.0500000000 -1.5875000000 31.7500000000 0.0000000000 1.0000000000 0.0000000000 -2.1082000000 0.0000000000 0.0000000000 1 I I 0 1 1 forward I I I I #
-95 loop $-1 $-1 $139 $5 #
-96 loop $-1 $-1 $143 $7 #
-97 loop $-1 $-1 $147 $9 #
-98 loop $-1 $-1 $151 $11 #
-99 loop $-1 $-1 $155 $13 #
-100 loop $-1 $-1 $159 $15 #
-101 loop $-1 $-1 $163 $17 #
-102 loop $-1 $-1 $167 $19 #
-103 loop $-1 $-1 $171 $21 #
-104 loop $-1 $-1 $175 $23 #
-105 loop $-1 $-1 $179 $25 #
-106 loop $-1 $-1 $183 $27 #
-107 loop $-1 $-1 $187 $29 #
-108 loop $-1 $-1 $191 $31 #
-109 loop $-1 $-1 $195 $33 #
-110 loop $-1 $-1 $199 $35 #
-111 loop $-1 $-1 $203 $37 #
-112 loop $-1 $-1 $207 $39 #
-113 loop $-1 $-1 $211 $41 #
-114 loop $-1 $-1 $215 $43 #
-115 loop $-1 $-1 $219 $45 #
-116 loop $-1 $117 $223 $47 #
-117 loop $-1 $118 $237 $47 #
-118 loop $-1 $119 $239 $47 #
-119 loop $-1 $120 $241 $47 #
-120 loop $-1 $121 $243 $47 #
-121 loop $-1 $122 $245 $47 #
-122 loop $-1 $123 $247 $47 #
-123 loop $-1 $-1 $249 $47 #
-124 loop $-1 $125 $251 $49 #
-125 loop $-1 $126 $265 $49 #
-126 loop $-1 $127 $267 $49 #
-127 loop $-1 $128 $269 $49 #
-128 loop $-1 $129 $271 $49 #
-129 loop $-1 $130 $273 $49 #
-130 loop $-1 $131 $275 $49 #
-131 loop $-1 $-1 $277 $49 #
-132 loop $-1 $-1 $279 $51 #
-133 loop $-1 $-1 $283 $53 #
-134 loop $-1 $-1 $287 $55 #
-135 loop $-1 $-1 $291 $57 #
-136 loop $-1 $-1 $295 $59 #
-137 loop $-1 $-1 $299 $61 #
-138 loop $-1 $-1 $303 $63 #
-139 coedge $-1 $140 $142 $251 $307 reversed $95 $-1 #
-140 coedge $-1 $141 $139 $146 $308 reversed $95 $-1 #
-141 coedge $-1 $142 $140 $223 $309 forward $95 $-1 #
-142 coedge $-1 $139 $141 $216 $310 forward $95 $-1 #
-143 coedge $-1 $144 $146 $264 $311 forward $96 $-1 #
-144 coedge $-1 $145 $143 $150 $312 reversed $96 $-1 #
-145 coedge $-1 $146 $144 $224 $313 reversed $96 $-1 #
-146 coedge $-1 $143 $145 $140 $308 forward $96 $-1 #
-147 coedge $-1 $148 $150 $263 $314 forward $97 $-1 #
-148 coedge $-1 $149 $147 $154 $315 reversed $97 $-1 #
-149 coedge $-1 $150 $148 $225 $316 reversed $97 $-1 #
-150 coedge $-1 $147 $149 $144 $312 forward $97 $-1 #
-151 coedge $-1 $152 $154 $262 $317 forward $98 $-1 #
-152 coedge $-1 $153 $151 $158 $318 reversed $98 $-1 #
-153 coedge $-1 $154 $152 $226 $319 reversed $98 $-1 #
-154 coedge $-1 $151 $153 $148 $315 forward $98 $-1 #
-155 coedge $-1 $156 $158 $261 $320 forward $99 $-1 #
-156 coedge $-1 $157 $155 $162 $321 reversed $99 $-1 #
-157 coedge $-1 $158 $156 $227 $322 reversed $99 $-1 #
-158 coedge $-1 $155 $157 $152 $318 forward $99 $-1 #
-159 coedge $-1 $160 $162 $260 $323 reversed $100 $-1 #
-160 coedge $-1 $161 $159 $166 $324 reversed $100 $-1 #
-161 coedge $-1 $162 $160 $228 $325 forward $100 $-1 #
-162 coedge $-1 $159 $161 $156 $321 forward $100 $-1 #
-163 coedge $-1 $164 $166 $259 $326 forward $101 $-1 #
-164 coedge $-1 $165 $163 $170 $327 reversed $101 $-1 #
-165 coedge $-1 $166 $164 $229 $328 reversed $101 $-1 #
-166 coedge $-1 $163 $165 $160 $324 forward $101 $-1 #
-167 coedge $-1 $168 $170 $258 $329 reversed $102 $-1 #
-168 coedge $-1 $169 $167 $174 $330 reversed $102 $-1 #
-169 coedge $-1 $170 $168 $230 $331 forward $102 $-1 #
-170 coedge $-1 $167 $169 $164 $327 forward $102 $-1 #
-171 coedge $-1 $172 $174 $257 $332 forward $103 $-1 #
-172 coedge $-1 $173 $171 $178 $333 reversed $103 $-1 #
-173 coedge $-1 $174 $172 $231 $334 reversed $103 $-1 #
-174 coedge $-1 $171 $173 $168 $330 forward $103 $-1 #
-175 coedge $-1 $176 $178 $256 $335 forward $104 $-1 #
-176 coedge $-1 $177 $175 $182 $336 reversed $104 $-1 #
-177 coedge $-1 $178 $176 $232 $337 reversed $104 $-1 #
-178 coedge $-1 $175 $177 $172 $333 forward $104 $-1 #
-179 coedge $-1 $180 $182 $255 $338 forward $105 $-1 #
-180 coedge $-1 $181 $179 $186 $339 reversed $105 $-1 #
-181 coedge $-1 $182 $180 $233 $340 reversed $105 $-1 #
-182 coedge $-1 $179 $181 $176 $336 forward $105 $-1 #
-183 coedge $-1 $184 $186 $254 $341 forward $106 $-1 #
-184 coedge $-1 $185 $183 $190 $342 reversed $106 $-1 #
-185 coedge $-1 $186 $184 $234 $343 reversed $106 $-1 #
-186 coedge $-1 $183 $185 $180 $339 forward $106 $-1 #
-187 coedge $-1 $188 $190 $253 $344 forward $107 $-1 #
-188 coedge $-1 $189 $187 $218 $345 reversed $107 $-1 #
-189 coedge $-1 $190 $188 $235 $346 reversed $107 $-1 #
-190 coedge $-1 $187 $189 $184 $342 forward $107 $-1 #
-191 coedge $-1 $192 $194 $279 $347 forward $108 $-1 #
-192 coedge $-1 $193 $191 $276 $348 reversed $108 $-1 #
-193 coedge $-1 $194 $192 $281 $349 reversed $108 $-1 #
-194 coedge $-1 $191 $193 $247 $350 forward $108 $-1 #
-195 coedge $-1 $196 $198 $283 $351 forward $109 $-1 #
-196 coedge $-1 $197 $195 $274 $352 reversed $109 $-1 #
-197 coedge $-1 $198 $196 $285 $353 reversed $109 $-1 #
-198 coedge $-1 $195 $197 $245 $354 forward $109 $-1 #
-199 coedge $-1 $200 $202 $287 $355 forward $110 $-1 #
-200 coedge $-1 $201 $199 $272 $356 reversed $110 $-1 #
-201 coedge $-1 $202 $200 $289 $357 reversed $110 $-1 #
-202 coedge $-1 $199 $201 $243 $358 forward $110 $-1 #
-203 coedge $-1 $204 $206 $291 $359 forward $111 $-1 #
-204 coedge $-1 $205 $203 $270 $360 reversed $111 $-1 #
-205 coedge $-1 $206 $204 $293 $361 reversed $111 $-1 #
-206 coedge $-1 $203 $205 $241 $362 forward $111 $-1 #
-207 coedge $-1 $208 $210 $295 $363 forward $112 $-1 #
-208 coedge $-1 $209 $207 $268 $364 reversed $112 $-1 #
-209 coedge $-1 $210 $208 $297 $365 reversed $112 $-1 #
-210 coedge $-1 $207 $209 $239 $366 forward $112 $-1 #
-211 coedge $-1 $212 $214 $299 $367 forward $113 $-1 #
-212 coedge $-1 $213 $211 $266 $368 reversed $113 $-1 #
-213 coedge $-1 $214 $212 $301 $369 reversed $113 $-1 #
-214 coedge $-1 $211 $213 $237 $370 forward $113 $-1 #
-215 coedge $-1 $216 $218 $252 $371 reversed $114 $-1 #
-216 coedge $-1 $217 $215 $142 $310 reversed $114 $-1 #
-217 coedge $-1 $218 $216 $236 $372 forward $114 $-1 #
-218 coedge $-1 $215 $217 $188 $345 forward $114 $-1 #
-219 coedge $-1 $220 $222 $303 $373 forward $115 $-1 #
-220 coedge $-1 $221 $219 $278 $374 reversed $115 $-1 #
-221 coedge $-1 $222 $220 $305 $375 reversed $115 $-1 #
-222 coedge $-1 $219 $221 $249 $376 forward $115 $-1 #
-223 coedge $-1 $224 $236 $141 $309 reversed $116 $-1 #
-224 coedge $-1 $225 $223 $145 $313 forward $116 $-1 #
-225 coedge $-1 $226 $224 $149 $316 forward $116 $-1 #
-226 coedge $-1 $227 $225 $153 $319 forward $116 $-1 #
-227 coedge $-1 $228 $226 $157 $322 forward $116 $-1 #
-228 coedge $-1 $229 $227 $161 $325 reversed $116 $-1 #
-229 coedge $-1 $230 $228 $165 $328 forward $116 $-1 #
-230 coedge $-1 $231 $229 $169 $331 reversed $116 $-1 #
-231 coedge $-1 $232 $230 $173 $334 forward $116 $-1 #
-232 coedge $-1 $233 $231 $177 $337 forward $116 $-1 #
-233 coedge $-1 $234 $232 $181 $340 forward $116 $-1 #
-234 coedge $-1 $235 $233 $185 $343 forward $116 $-1 #
-235 coedge $-1 $236 $234 $189 $346 forward $116 $-1 #
-236 coedge $-1 $223 $235 $217 $372 reversed $116 $-1 #
-237 coedge $-1 $238 $238 $214 $370 reversed $117 $-1 #
-238 coedge $-1 $237 $237 $300 $377 reversed $117 $-1 #
-239 coedge $-1 $240 $240 $210 $366 reversed $118 $-1 #
-240 coedge $-1 $239 $239 $296 $378 reversed $118 $-1 #
-241 coedge $-1 $242 $242 $206 $362 reversed $119 $-1 #
-242 coedge $-1 $241 $241 $292 $379 reversed $119 $-1 #
-243 coedge $-1 $244 $244 $202 $358 reversed $120 $-1 #
-244 coedge $-1 $243 $243 $288 $380 reversed $120 $-1 #
-245 coedge $-1 $246 $246 $198 $354 reversed $121 $-1 #
-246 coedge $-1 $245 $245 $284 $381 reversed $121 $-1 #
-247 coedge $-1 $248 $248 $194 $350 reversed $122 $-1 #
-248 coedge $-1 $247 $247 $280 $382 reversed $122 $-1 #
-249 coedge $-1 $250 $250 $222 $376 reversed $123 $-1 #
-250 coedge $-1 $249 $249 $304 $383 reversed $123 $-1 #
-251 coedge $-1 $252 $264 $139 $307 forward $124 $-1 #
-252 coedge $-1 $253 $251 $215 $371 forward $124 $-1 #
-253 coedge $-1 $254 $252 $187 $344 reversed $124 $-1 #
-254 coedge $-1 $255 $253 $183 $341 reversed $124 $-1 #
-255 coedge $-1 $256 $254 $179 $338 reversed $124 $-1 #
-256 coedge $-1 $257 $255 $175 $335 reversed $124 $-1 #
-257 coedge $-1 $258 $256 $171 $332 reversed $124 $-1 #
-258 coedge $-1 $259 $257 $167 $329 forward $124 $-1 #
-259 coedge $-1 $260 $258 $163 $326 reversed $124 $-1 #
-260 coedge $-1 $261 $259 $159 $323 forward $124 $-1 #
-261 coedge $-1 $262 $260 $155 $320 reversed $124 $-1 #
-262 coedge $-1 $263 $261 $151 $317 reversed $124 $-1 #
-263 coedge $-1 $264 $262 $147 $314 reversed $124 $-1 #
-264 coedge $-1 $251 $263 $143 $311 reversed $124 $-1 #
-265 coedge $-1 $266 $266 $302 $384 forward $125 $-1 #
-266 coedge $-1 $265 $265 $212 $368 forward $125 $-1 #
-267 coedge $-1 $268 $268 $298 $385 forward $126 $-1 #
-268 coedge $-1 $267 $267 $208 $364 forward $126 $-1 #
-269 coedge $-1 $270 $270 $294 $386 forward $127 $-1 #
-270 coedge $-1 $269 $269 $204 $360 forward $127 $-1 #
-271 coedge $-1 $272 $272 $290 $387 forward $128 $-1 #
-272 coedge $-1 $271 $271 $200 $356 forward $128 $-1 #
-273 coedge $-1 $274 $274 $286 $388 forward $129 $-1 #
-274 coedge $-1 $273 $273 $196 $352 forward $129 $-1 #
-275 coedge $-1 $276 $276 $282 $389 forward $130 $-1 #
-276 coedge $-1 $275 $275 $192 $348 forward $130 $-1 #
-277 coedge $-1 $278 $278 $306 $390 forward $131 $-1 #
-278 coedge $-1 $277 $277 $220 $374 forward $131 $-1 #
-279 coedge $-1 $280 $282 $191 $347 reversed $132 $-1 #
-280 coedge $-1 $281 $279 $248 $382 forward $132 $-1 #
-281 coedge $-1 $282 $280 $193 $349 forward $132 $-1 #
-282 coedge $-1 $279 $281 $275 $389 reversed $132 $-1 #
-283 coedge $-1 $284 $286 $195 $351 reversed $133 $-1 #
-284 coedge $-1 $285 $283 $246 $381 forward $133 $-1 #
-285 coedge $-1 $286 $284 $197 $353 forward $133 $-1 #
-286 coedge $-1 $283 $285 $273 $388 reversed $133 $-1 #
-287 coedge $-1 $288 $290 $199 $355 reversed $134 $-1 #
-288 coedge $-1 $289 $287 $244 $380 forward $134 $-1 #
-289 coedge $-1 $290 $288 $201 $357 forward $134 $-1 #
-290 coedge $-1 $287 $289 $271 $387 reversed $134 $-1 #
-291 coedge $-1 $292 $294 $203 $359 reversed $135 $-1 #
-292 coedge $-1 $293 $291 $242 $379 forward $135 $-1 #
-293 coedge $-1 $294 $292 $205 $361 forward $135 $-1 #
-294 coedge $-1 $291 $293 $269 $386 reversed $135 $-1 #
-295 coedge $-1 $296 $298 $207 $363 reversed $136 $-1 #
-296 coedge $-1 $297 $295 $240 $378 forward $136 $-1 #
-297 coedge $-1 $298 $296 $209 $365 forward $136 $-1 #
-298 coedge $-1 $295 $297 $267 $385 reversed $136 $-1 #
-299 coedge $-1 $300 $302 $211 $367 reversed $137 $-1 #
-300 coedge $-1 $301 $299 $238 $377 forward $137 $-1 #
-301 coedge $-1 $302 $300 $213 $369 forward $137 $-1 #
-302 coedge $-1 $299 $301 $265 $384 reversed $137 $-1 #
-303 coedge $-1 $304 $306 $219 $373 reversed $138 $-1 #
-304 coedge $-1 $305 $303 $250 $383 forward $138 $-1 #
-305 coedge $-1 $306 $304 $221 $375 forward $138 $-1 #
-306 coedge $-1 $303 $305 $277 $390 reversed $138 $-1 #
-307 edge $-1 $392 1.5707963268 $394 4.7123889804 $139 $391 forward 7 unknown #
-308 edge $-1 $397 0.0000000000 $392 1.5875000000 $140 $396 forward 7 unknown #
-309 edge $-1 $397 1.5707963268 $400 4.7123889804 $141 $399 forward 7 unknown #
-310 edge $-1 $400 0.0000000000 $394 1.5875000000 $142 $402 forward 7 unknown #
-311 edge $-1 $392 -1.5875000000 $404 1.5875000000 $143 $403 forward 7 unknown #
-312 edge $-1 $407 0.0000000000 $404 1.5875000000 $144 $406 forward 7 unknown #
-313 edge $-1 $397 -1.5875000000 $407 1.5875000000 $145 $409 forward 7 unknown #
-314 edge $-1 $404 4.7123889804 $411 6.2831853072 $147 $410 forward 7 unknown #
-315 edge $-1 $414 0.0000000000 $411 1.5875000000 $148 $413 forward 7 unknown #
-316 edge $-1 $407 4.7123889804 $414 6.2831853072 $149 $416 forward 7 unknown #
-317 edge $-1 $411 -7.9375000000 $418 7.9375000000 $151 $417 forward 7 unknown #
-318 edge $-1 $421 0.0000000000 $418 1.5875000000 $152 $420 forward 7 unknown #
-319 edge $-1 $414 -7.9375000000 $421 7.9375000000 $153 $423 forward 7 unknown #
-320 edge $-1 $418 0.0000000000 $425 1.5707963268 $155 $424 forward 7 unknown #
-321 edge $-1 $428 0.0000000000 $425 1.5875000000 $156 $427 forward 7 unknown #
-322 edge $-1 $421 0.0000000000 $428 1.5707963268 $157 $430 forward 7 unknown #
-323 edge $-1 $432 -42.8625000000 $425 42.8625000000 $159 $431 forward 7 unknown #
-324 edge $-1 $435 0.0000000000 $432 1.5875000000 $160 $434 forward 7 unknown #
-325 edge $-1 $435 -42.8625000000 $428 42.8625000000 $161 $437 forward 7 unknown #
-326 edge $-1 $432 1.5707963268 $439 3.1415926536 $163 $438 forward 7 unknown #
-327 edge $-1 $442 0.0000000000 $439 1.5875000000 $164 $441 forward 7 unknown #
-328 edge $-1 $435 1.5707963268 $442 3.1415926536 $165 $444 forward 7 unknown #
-329 edge $-1 $446 -28.5750000000 $439 28.5750000000 $167 $445 forward 7 unknown #
-330 edge $-1 $449 0.0000000000 $446 1.5875000000 $168 $448 forward 7 unknown #
-331 edge $-1 $449 -28.5750000000 $442 28.5750000000 $169 $451 forward 7 unknown #
-332 edge $-1 $446 3.1415926536 $453 4.7123889804 $171 $452 forward 7 unknown #
-333 edge $-1 $456 0.0000000000 $453 1.5875000000 $172 $455 forward 7 unknown #
-334 edge $-1 $449 3.1415926536 $456 4.7123889804 $173 $458 forward 7 unknown #
-335 edge $-1 $453 -42.8625000000 $460 42.8625000000 $175 $459 forward 7 unknown #
-336 edge $-1 $463 0.0000000000 $460 1.5875000000 $176 $462 forward 7 unknown #
-337 edge $-1 $456 -42.8625000000 $463 42.8625000000 $177 $465 forward 7 unknown #
-338 edge $-1 $460 4.7123889804 $467 6.2831853072 $179 $466 forward 7 unknown #
-339 edge $-1 $470 0.0000000000 $467 1.5875000000 $180 $469 forward 7 unknown #
-340 edge $-1 $463 4.7123889804 $470 6.2831853072 $181 $472 forward 7 unknown #
-341 edge $-1 $467 -7.9375000000 $474 7.9375000000 $183 $473 forward 7 unknown #
-342 edge $-1 $477 0.0000000000 $474 1.5875000000 $184 $476 forward 7 unknown #
-343 edge $-1 $470 -7.9375000000 $477 7.9375000000 $185 $479 forward 7 unknown #
-344 edge $-1 $474 0.0000000000 $481 1.5707963268 $187 $480 forward 7 unknown #
-345 edge $-1 $484 0.0000000000 $481 1.5875000000 $188 $483 forward 7 unknown #
-346 edge $-1 $477 0.0000000000 $484 1.5707963268 $189 $486 forward 7 unknown #
-347 edge $-1 $488 0.0000000000 $490 1.5875000000 $191 $487 forward 7 unknown #
-348 edge $-1 $493 3.1415926536 $490 6.2831853072 $192 $492 forward 7 unknown #
-349 edge $-1 $496 0.0000000000 $493 1.5875000000 $193 $495 forward 7 unknown #
-350 edge $-1 $496 3.1415926536 $488 6.2831853072 $194 $498 forward 7 unknown #
-351 edge $-1 $500 0.0000000000 $502 1.5875000000 $195 $499 forward 7 unknown #
-352 edge $-1 $505 3.1415926536 $502 6.2831853072 $196 $504 forward 7 unknown #
-353 edge $-1 $508 0.0000000000 $505 1.5875000000 $197 $507 forward 7 unknown #
-354 edge $-1 $508 3.1415926536 $500 6.2831853072 $198 $510 forward 7 unknown #
-355 edge $-1 $512 0.0000000000 $514 1.5875000000 $199 $511 forward 7 unknown #
-356 edge $-1 $517 3.1415926536 $514 6.2831853072 $200 $516 forward 7 unknown #
-357 edge $-1 $520 0.0000000000 $517 1.5875000000 $201 $519 forward 7 unknown #
-358 edge $-1 $520 3.1415926536 $512 6.2831853072 $202 $522 forward 7 unknown #
-359 edge $-1 $524 0.0000000000 $526 1.5875000000 $203 $523 forward 7 unknown #
-360 edge $-1 $529 3.1415926536 $526 6.2831853072 $204 $528 forward 7 unknown #
-361 edge $-1 $532 0.0000000000 $529 1.5875000000 $205 $531 forward 7 unknown #
-362 edge $-1 $532 3.1415926536 $524 6.2831853072 $206 $534 forward 7 unknown #
-363 edge $-1 $536 0.0000000000 $538 1.5875000000 $207 $535 forward 7 unknown #
-364 edge $-1 $541 3.1415926536 $538 6.2831853072 $208 $540 forward 7 unknown #
-365 edge $-1 $544 0.0000000000 $541 1.5875000000 $209 $543 forward 7 unknown #
-366 edge $-1 $544 3.1415926536 $536 6.2831853072 $210 $546 forward 7 unknown #
-367 edge $-1 $548 0.0000000000 $550 1.5875000000 $211 $547 forward 7 unknown #
-368 edge $-1 $553 3.1415926536 $550 6.2831853072 $212 $552 forward 7 unknown #
-369 edge $-1 $556 0.0000000000 $553 1.5875000000 $213 $555 forward 7 unknown #
-370 edge $-1 $556 3.1415926536 $548 6.2831853072 $214 $558 forward 7 unknown #
-371 edge $-1 $394 -1.5875000000 $481 1.5875000000 $215 $559 forward 7 unknown #
-372 edge $-1 $400 -1.5875000000 $484 1.5875000000 $217 $560 forward 7 unknown #
-373 edge $-1 $562 0.0000000000 $564 1.5875000000 $219 $561 forward 7 unknown #
-374 edge $-1 $567 3.1415926536 $564 6.2831853072 $220 $566 forward 7 unknown #
-375 edge $-1 $570 0.0000000000 $567 1.5875000000 $221 $569 forward 7 unknown #
-376 edge $-1 $570 3.1415926536 $562 6.2831853072 $222 $572 forward 7 unknown #
-377 edge $-1 $548 0.0000000000 $556 3.1415926536 $238 $573 forward 7 unknown #
-378 edge $-1 $536 0.0000000000 $544 3.1415926536 $240 $574 forward 7 unknown #
-379 edge $-1 $524 0.0000000000 $532 3.1415926536 $242 $575 forward 7 unknown #
-380 edge $-1 $512 0.0000000000 $520 3.1415926536 $244 $576 forward 7 unknown #
-381 edge $-1 $500 0.0000000000 $508 3.1415926536 $246 $577 forward 7 unknown #
-382 edge $-1 $488 0.0000000000 $496 3.1415926536 $248 $578 forward 7 unknown #
-383 edge $-1 $562 0.0000000000 $570 3.1415926536 $250 $579 forward 7 unknown #
-384 edge $-1 $550 0.0000000000 $553 3.1415926536 $265 $580 forward 7 unknown #
-385 edge $-1 $538 0.0000000000 $541 3.1415926536 $267 $581 forward 7 unknown #
-386 edge $-1 $526 0.0000000000 $529 3.1415926536 $269 $582 forward 7 unknown #
-387 edge $-1 $514 0.0000000000 $517 3.1415926536 $271 $583 forward 7 unknown #
-388 edge $-1 $502 0.0000000000 $505 3.1415926536 $273 $584 forward 7 unknown #
-389 edge $-1 $490 0.0000000000 $493 3.1415926536 $275 $585 forward 7 unknown #
-390 edge $-1 $564 0.0000000000 $567 3.1415926536 $277 $586 forward 7 unknown #
-391 ellipse-curve $-1 44.450000000000003 0.000000000000000 -6.350000000000000 0.000000000000000 -1.000000000000000 0.000000000000000 0.000000000000000 0.000000000000000 -9.525000000000000 1.000000000000000 I I #
-392 vertex $-1 $307 $393 #
-393 point $-1 53.975000000000001 0.000000000000000 -6.350000000000000 #
-394 vertex $-1 $307 $395 #
-395 point $-1 34.924999999999997 0.000000000000000 -6.350000000000000 #
-396 straight-curve $-1 53.975000000000001 -1.587500000000000 -6.350000000000000 0.000000000000000 1.000000000000000 0.000000000000000 I I #
-397 vertex $-1 $308 $398 #
-398 point $-1 53.975000000000001 -1.587500000000000 -6.350000000000000 #
-399 ellipse-curve $-1 44.450000000000003 -1.587500000000000 -6.350000000000000 0.000000000000000 -1.000000000000000 0.000000000000000 0.000000000000000 0.000000000000000 -9.525000000000000 1.000000000000000 I I #
-400 vertex $-1 $309 $401 #
-401 point $-1 34.924999999999997 -1.587500000000000 -6.350000000000000 #
-402 straight-curve $-1 34.924999999999997 -1.587500000000000 -6.350000000000000 0.000000000000000 1.000000000000000 0.000000000000000 I I #
-403 straight-curve $-1 53.975000000000001 0.000000000000000 -7.937500000000000 0.000000000000000 0.000000000000000 -1.000000000000000 I I #
-404 vertex $-1 $311 $405 #
-405 point $-1 53.975000000000001 0.000000000000000 -9.525000000000000 #
-406 straight-curve $-1 53.975000000000001 -1.587500000000000 -9.525000000000000 0.000000000000000 1.000000000000000 0.000000000000000 I I #
-407 vertex $-1 $312 $408 #
-408 point $-1 53.975000000000001 -1.587500000000000 -9.525000000000000 #
-409 straight-curve $-1 53.975000000000001 -1.587500000000000 -7.937500000000000 0.000000000000000 0.000000000000000 -1.000000000000000 I I #
-410 ellipse-curve $-1 57.149999999999999 0.000000000000000 -9.525000000000000 0.000000000000000 -1.000000000000000 0.000000000000000 0.000000000000000 0.000000000000000 -3.175000000000000 1.000000000000000 I I #
-411 vertex $-1 $314 $412 #
-412 point $-1 57.149999999999999 0.000000000000000 -12.699999999999999 #
-413 straight-curve $-1 57.149999999999999 -1.587500000000000 -12.699999999999999 0.000000000000000 1.000000000000000 0.000000000000000 I I #
-414 vertex $-1 $315 $415 #
-415 point $-1 57.149999999999999 -1.587500000000000 -12.699999999999999 #
-416 ellipse-curve $-1 57.149999999999999 -1.587500000000000 -9.525000000000000 0.000000000000000 -1.000000000000000 0.000000000000000 0.000000000000000 0.000000000000000 -3.175000000000000 1.000000000000000 I I #
-417 straight-curve $-1 65.087500000000006 0.000000000000000 -12.699999999999999 1.000000000000000 0.000000000000000 0.000000000000000 I I #
-418 vertex $-1 $317 $419 #
-419 point $-1 73.025000000000006 0.000000000000000 -12.699999999999999 #
-420 straight-curve $-1 73.025000000000006 -1.587500000000000 -12.699999999999999 0.000000000000000 1.000000000000000 0.000000000000000 I I #
-421 vertex $-1 $318 $422 #
-422 point $-1 73.025000000000006 -1.587500000000000 -12.699999999999999 #
-423 straight-curve $-1 65.087500000000006 -1.587500000000000 -12.699999999999999 1.000000000000000 0.000000000000000 0.000000000000000 I I #
-424 ellipse-curve $-1 73.025000000000006 0.000000000000000 -9.525000000000000 0.000000000000000 -1.000000000000000 0.000000000000000 0.000000000000000 0.000000000000000 -3.175000000000000 1.000000000000000 I I #
-425 vertex $-1 $320 $426 #
-426 point $-1 76.200000000000003 0.000000000000000 -9.525000000000000 #
-427 straight-curve $-1 76.200000000000003 -1.587500000000000 -9.525000000000000 0.000000000000000 1.000000000000000 0.000000000000000 I I #
-428 vertex $-1 $321 $429 #
-429 point $-1 76.200000000000003 -1.587500000000000 -9.525000000000000 #
-430 ellipse-curve $-1 73.025000000000006 -1.587500000000000 -9.525000000000000 0.000000000000000 -1.000000000000000 0.000000000000000 0.000000000000000 0.000000000000000 -3.175000000000000 1.000000000000000 I I #
-431 straight-curve $-1 76.200000000000003 0.000000000000000 33.337499999999999 0.000000000000000 0.000000000000000 -1.000000000000000 I I #
-432 vertex $-1 $323 $433 #
-433 point $-1 76.200000000000003 0.000000000000000 76.200000000000003 #
-434 straight-curve $-1 76.200000000000003 -1.587500000000000 76.200000000000003 0.000000000000000 1.000000000000000 0.000000000000000 I I #
-435 vertex $-1 $324 $436 #
-436 point $-1 76.200000000000003 -1.587500000000000 76.200000000000003 #
-437 straight-curve $-1 76.200000000000003 -1.587500000000000 33.337499999999999 0.000000000000000 0.000000000000000 -1.000000000000000 I I #
-438 ellipse-curve $-1 73.025000000000006 0.000000000000000 76.200000000000003 0.000000000000000 -1.000000000000000 0.000000000000000 0.000000000000000 0.000000000000000 -3.175000000000000 1.000000000000000 I I #
-439 vertex $-1 $326 $440 #
-440 point $-1 73.025000000000006 0.000000000000000 79.375000000000000 #
-441 straight-curve $-1 73.025000000000006 -1.587500000000000 79.375000000000000 0.000000000000000 1.000000000000000 0.000000000000000 I I #
-442 vertex $-1 $327 $443 #
-443 point $-1 73.025000000000006 -1.587500000000000 79.375000000000000 #
-444 ellipse-curve $-1 73.025000000000006 -1.587500000000000 76.200000000000003 0.000000000000000 -1.000000000000000 0.000000000000000 0.000000000000000 0.000000000000000 -3.175000000000000 1.000000000000000 I I #
-445 straight-curve $-1 44.450000000000003 0.000000000000000 79.375000000000000 1.000000000000000 0.000000000000000 0.000000000000000 I I #
-446 vertex $-1 $329 $447 #
-447 point $-1 15.875000000000000 0.000000000000000 79.375000000000000 #
-448 straight-curve $-1 15.875000000000000 -1.587500000000000 79.375000000000000 0.000000000000000 1.000000000000000 0.000000000000000 I I #
-449 vertex $-1 $330 $450 #
-450 point $-1 15.875000000000000 -1.587500000000000 79.375000000000000 #
-451 straight-curve $-1 44.450000000000003 -1.587500000000000 79.375000000000000 1.000000000000000 0.000000000000000 0.000000000000000 I I #
-452 ellipse-curve $-1 15.875000000000000 0.000000000000000 76.200000000000003 0.000000000000000 -1.000000000000000 0.000000000000000 0.000000000000000 0.000000000000000 -3.175000000000000 1.000000000000000 I I #
-453 vertex $-1 $332 $454 #
-454 point $-1 12.699999999999999 0.000000000000000 76.200000000000003 #
-455 straight-curve $-1 12.699999999999999 -1.587500000000000 76.200000000000003 0.000000000000000 1.000000000000000 0.000000000000000 I I #
-456 vertex $-1 $333 $457 #
-457 point $-1 12.699999999999999 -1.587500000000000 76.200000000000003 #
-458 ellipse-curve $-1 15.875000000000000 -1.587500000000000 76.200000000000003 0.000000000000000 -1.000000000000000 0.000000000000000 0.000000000000000 0.000000000000000 -3.175000000000000 1.000000000000000 I I #
-459 straight-curve $-1 12.699999999999999 0.000000000000000 33.337499999999999 0.000000000000000 0.000000000000000 -1.000000000000000 I I #
-460 vertex $-1 $335 $461 #
-461 point $-1 12.699999999999999 0.000000000000000 -9.525000000000000 #
-462 straight-curve $-1 12.699999999999999 -1.587500000000000 -9.525000000000000 0.000000000000000 1.000000000000000 0.000000000000000 I I #
-463 vertex $-1 $336 $464 #
-464 point $-1 12.699999999999999 -1.587500000000000 -9.525000000000000 #
-465 straight-curve $-1 12.699999999999999 -1.587500000000000 33.337499999999999 0.000000000000000 0.000000000000000 -1.000000000000000 I I #
-466 ellipse-curve $-1 15.875000000000000 0.000000000000000 -9.525000000000000 0.000000000000000 -1.000000000000000 0.000000000000000 0.000000000000000 0.000000000000000 -3.175000000000000 1.000000000000000 I I #
-467 vertex $-1 $338 $468 #
-468 point $-1 15.875000000000000 0.000000000000000 -12.699999999999999 #
-469 straight-curve $-1 15.875000000000000 -1.587500000000000 -12.699999999999999 0.000000000000000 1.000000000000000 0.000000000000000 I I #
-470 vertex $-1 $339 $471 #
-471 point $-1 15.875000000000000 -1.587500000000000 -12.699999999999999 #
-472 ellipse-curve $-1 15.875000000000000 -1.587500000000000 -9.525000000000000 0.000000000000000 -1.000000000000000 0.000000000000000 0.000000000000000 0.000000000000000 -3.175000000000000 1.000000000000000 I I #
-473 straight-curve $-1 23.812500000000000 0.000000000000000 -12.699999999999999 1.000000000000000 0.000000000000000 0.000000000000000 I I #
-474 vertex $-1 $341 $475 #
-475 point $-1 31.750000000000000 0.000000000000000 -12.699999999999999 #
-476 straight-curve $-1 31.750000000000000 -1.587500000000000 -12.699999999999999 0.000000000000000 1.000000000000000 0.000000000000000 I I #
-477 vertex $-1 $342 $478 #
-478 point $-1 31.750000000000000 -1.587500000000000 -12.699999999999999 #
-479 straight-curve $-1 23.812500000000000 -1.587500000000000 -12.699999999999999 1.000000000000000 0.000000000000000 0.000000000000000 I I #
-480 ellipse-curve $-1 31.750000000000000 0.000000000000000 -9.525000000000000 0.000000000000000 -1.000000000000000 0.000000000000000 0.000000000000000 0.000000000000000 -3.175000000000000 1.000000000000000 I I #
-481 vertex $-1 $344 $482 #
-482 point $-1 34.924999999999997 0.000000000000000 -9.525000000000000 #
-483 straight-curve $-1 34.924999999999997 -1.587500000000000 -9.525000000000000 0.000000000000000 1.000000000000000 0.000000000000000 I I #
-484 vertex $-1 $345 $485 #
-485 point $-1 34.924999999999997 -1.587500000000000 -9.525000000000000 #
-486 ellipse-curve $-1 31.750000000000000 -1.587500000000000 -9.525000000000000 0.000000000000000 -1.000000000000000 0.000000000000000 0.000000000000000 0.000000000000000 -3.175000000000000 1.000000000000000 I I #
-487 straight-curve $-1 69.849999999999994 -1.587500000000000 -8.458200000000000 0.000000000000000 1.000000000000000 0.000000000000000 I I #
-488 vertex $-1 $347 $489 #
-489 point $-1 69.849999999999994 -1.587500000000000 -8.458200000000000 #
-490 vertex $-1 $347 $491 #
-491 point $-1 69.849999999999994 0.000000000000000 -8.458200000000000 #
-492 ellipse-curve $-1 69.849999999999994 0.000000000000000 -6.350000000000000 0.000000000000000 -1.000000000000000 0.000000000000000 0.000000000000000 0.000000000000000 -2.108200000000000 1.000000000000000 I I #
-493 vertex $-1 $348 $494 #
-494 point $-1 69.849999999999994 0.000000000000000 -4.241800000000000 #
-495 straight-curve $-1 69.849999999999994 -1.587500000000000 -4.241800000000000 0.000000000000000 1.000000000000000 0.000000000000000 I I #
-496 vertex $-1 $349 $497 #
-497 point $-1 69.849999999999994 -1.587500000000000 -4.241800000000000 #
-498 ellipse-curve $-1 69.849999999999994 -1.587500000000000 -6.350000000000000 0.000000000000000 -1.000000000000000 0.000000000000000 0.000000000000000 0.000000000000000 -2.108200000000000 1.000000000000000 I I #
-499 straight-curve $-1 69.849999999999994 -1.587500000000000 4.241800000000000 0.000000000000000 1.000000000000000 0.000000000000000 I I #
-500 vertex $-1 $351 $501 #
-501 point $-1 69.849999999999994 -1.587500000000000 4.241800000000000 #
-502 vertex $-1 $351 $503 #
-503 point $-1 69.849999999999994 0.000000000000000 4.241800000000000 #
-504 ellipse-curve $-1 69.849999999999994 0.000000000000000 6.350000000000000 0.000000000000000 -1.000000000000000 0.000000000000000 0.000000000000000 0.000000000000000 -2.108200000000000 1.000000000000000 I I #
-505 vertex $-1 $352 $506 #
-506 point $-1 69.849999999999994 0.000000000000000 8.458200000000000 #
-507 straight-curve $-1 69.849999999999994 -1.587500000000000 8.458200000000000 0.000000000000000 1.000000000000000 0.000000000000000 I I #
-508 vertex $-1 $353 $509 #
-509 point $-1 69.849999999999994 -1.587500000000000 8.458200000000000 #
-510 ellipse-curve $-1 69.849999999999994 -1.587500000000000 6.350000000000000 0.000000000000000 -1.000000000000000 0.000000000000000 0.000000000000000 0.000000000000000 -2.108200000000000 1.000000000000000 I I #
-511 straight-curve $-1 69.849999999999994 -1.587500000000000 48.691800000000001 0.000000000000000 1.000000000000000 0.000000000000000 I I #
-512 vertex $-1 $355 $513 #
-513 point $-1 69.849999999999994 -1.587500000000000 48.691800000000001 #
-514 vertex $-1 $355 $515 #
-515 point $-1 69.849999999999994 0.000000000000000 48.691800000000001 #
-516 ellipse-curve $-1 69.849999999999994 0.000000000000000 50.799999999999997 0.000000000000000 -1.000000000000000 0.000000000000000 0.000000000000000 0.000000000000000 -2.108200000000000 1.000000000000000 I I #
-517 vertex $-1 $356 $518 #
-518 point $-1 69.849999999999994 0.000000000000000 52.908199999999994 #
-519 straight-curve $-1 69.849999999999994 -1.587500000000000 52.908199999999994 0.000000000000000 1.000000000000000 0.000000000000000 I I #
-520 vertex $-1 $357 $521 #
-521 point $-1 69.849999999999994 -1.587500000000000 52.908199999999994 #
-522 ellipse-curve $-1 69.849999999999994 -1.587500000000000 50.799999999999997 0.000000000000000 -1.000000000000000 0.000000000000000 0.000000000000000 0.000000000000000 -2.108200000000000 1.000000000000000 I I #
-523 straight-curve $-1 44.450000000000003 -1.587500000000000 64.566800000000001 0.000000000000000 1.000000000000000 0.000000000000000 I I #
-524 vertex $-1 $359 $525 #
-525 point $-1 44.450000000000003 -1.587500000000000 64.566800000000001 #
-526 vertex $-1 $359 $527 #
-527 point $-1 44.450000000000003 0.000000000000000 64.566800000000001 #
-528 ellipse-curve $-1 44.450000000000003 0.000000000000000 66.674999999999997 0.000000000000000 -1.000000000000000 0.000000000000000 0.000000000000000 0.000000000000000 -2.108200000000000 1.000000000000000 I I #
-529 vertex $-1 $360 $530 #
-530 point $-1 44.450000000000003 0.000000000000000 68.783199999999994 #
-531 straight-curve $-1 44.450000000000003 -1.587500000000000 68.783199999999994 0.000000000000000 1.000000000000000 0.000000000000000 I I #
-532 vertex $-1 $361 $533 #
-533 point $-1 44.450000000000003 -1.587500000000000 68.783199999999994 #
-534 ellipse-curve $-1 44.450000000000003 -1.587500000000000 66.674999999999997 0.000000000000000 -1.000000000000000 0.000000000000000 0.000000000000000 0.000000000000000 -2.108200000000000 1.000000000000000 I I #
-535 straight-curve $-1 19.050000000000001 -1.587500000000000 4.241800000000000 0.000000000000000 1.000000000000000 0.000000000000000 I I #
-536 vertex $-1 $363 $537 #
-537 point $-1 19.050000000000001 -1.587500000000000 4.241800000000000 #
-538 vertex $-1 $363 $539 #
-539 point $-1 19.050000000000001 0.000000000000000 4.241800000000000 #
-540 ellipse-curve $-1 19.050000000000001 0.000000000000000 6.350000000000000 0.000000000000000 -1.000000000000000 0.000000000000000 0.000000000000000 0.000000000000000 -2.108200000000000 1.000000000000000 I I #
-541 vertex $-1 $364 $542 #
-542 point $-1 19.050000000000001 0.000000000000000 8.458200000000000 #
-543 straight-curve $-1 19.050000000000001 -1.587500000000000 8.458200000000000 0.000000000000000 1.000000000000000 0.000000000000000 I I #
-544 vertex $-1 $365 $545 #
-545 point $-1 19.050000000000001 -1.587500000000000 8.458200000000000 #
-546 ellipse-curve $-1 19.050000000000001 -1.587500000000000 6.350000000000000 0.000000000000000 -1.000000000000000 0.000000000000000 0.000000000000000 0.000000000000000 -2.108200000000000 1.000000000000000 I I #
-547 straight-curve $-1 19.050000000000001 -1.587500000000000 -8.458200000000000 0.000000000000000 1.000000000000000 0.000000000000000 I I #
-548 vertex $-1 $367 $549 #
-549 point $-1 19.050000000000001 -1.587500000000000 -8.458200000000000 #
-550 vertex $-1 $367 $551 #
-551 point $-1 19.050000000000001 0.000000000000000 -8.458200000000000 #
-552 ellipse-curve $-1 19.050000000000001 0.000000000000000 -6.350000000000000 0.000000000000000 -1.000000000000000 0.000000000000000 0.000000000000000 0.000000000000000 -2.108200000000000 1.000000000000000 I I #
-553 vertex $-1 $368 $554 #
-554 point $-1 19.050000000000001 0.000000000000000 -4.241800000000000 #
-555 straight-curve $-1 19.050000000000001 -1.587500000000000 -4.241800000000000 0.000000000000000 1.000000000000000 0.000000000000000 I I #
-556 vertex $-1 $369 $557 #
-557 point $-1 19.050000000000001 -1.587500000000000 -4.241800000000000 #
-558 ellipse-curve $-1 19.050000000000001 -1.587500000000000 -6.350000000000000 0.000000000000000 -1.000000000000000 0.000000000000000 0.000000000000000 0.000000000000000 -2.108200000000000 1.000000000000000 I I #
-559 straight-curve $-1 34.924999999999997 0.000000000000000 -7.937500000000000 0.000000000000000 0.000000000000000 -1.000000000000000 I I #
-560 straight-curve $-1 34.924999999999997 -1.587500000000000 -7.937500000000000 0.000000000000000 0.000000000000000 -1.000000000000000 I I #
-561 straight-curve $-1 19.050000000000001 -1.587500000000000 29.641800000000000 0.000000000000000 1.000000000000000 0.000000000000000 I I #
-562 vertex $-1 $373 $563 #
-563 point $-1 19.050000000000001 -1.587500000000000 29.641800000000000 #
-564 vertex $-1 $373 $565 #
-565 point $-1 19.050000000000001 0.000000000000000 29.641800000000000 #
-566 ellipse-curve $-1 19.050000000000001 0.000000000000000 31.750000000000000 0.000000000000000 -1.000000000000000 0.000000000000000 0.000000000000000 0.000000000000000 -2.108200000000000 1.000000000000000 I I #
-567 vertex $-1 $374 $568 #
-568 point $-1 19.050000000000001 0.000000000000000 33.858199999999997 #
-569 straight-curve $-1 19.050000000000001 -1.587500000000000 33.858199999999997 0.000000000000000 1.000000000000000 0.000000000000000 I I #
-570 vertex $-1 $375 $571 #
-571 point $-1 19.050000000000001 -1.587500000000000 33.858199999999997 #
-572 ellipse-curve $-1 19.050000000000001 -1.587500000000000 31.750000000000000 0.000000000000000 -1.000000000000000 0.000000000000000 0.000000000000000 0.000000000000000 -2.108200000000000 1.000000000000000 I I #
-573 ellipse-curve $-1 19.050000000000001 -1.587500000000000 -6.350000000000000 0.000000000000000 -1.000000000000000 0.000000000000000 0.000000000000000 0.000000000000000 -2.108200000000000 1.000000000000000 I I #
-574 ellipse-curve $-1 19.050000000000001 -1.587500000000000 6.350000000000000 0.000000000000000 -1.000000000000000 0.000000000000000 0.000000000000000 0.000000000000000 -2.108200000000000 1.000000000000000 I I #
-575 ellipse-curve $-1 44.450000000000003 -1.587500000000000 66.674999999999997 0.000000000000000 -1.000000000000000 0.000000000000000 0.000000000000000 0.000000000000000 -2.108200000000000 1.000000000000000 I I #
-576 ellipse-curve $-1 69.849999999999994 -1.587500000000000 50.799999999999997 0.000000000000000 -1.000000000000000 0.000000000000000 0.000000000000000 0.000000000000000 -2.108200000000000 1.000000000000000 I I #
-577 ellipse-curve $-1 69.849999999999994 -1.587500000000000 6.350000000000000 0.000000000000000 -1.000000000000000 0.000000000000000 0.000000000000000 0.000000000000000 -2.108200000000000 1.000000000000000 I I #
-578 ellipse-curve $-1 69.849999999999994 -1.587500000000000 -6.350000000000000 0.000000000000000 -1.000000000000000 0.000000000000000 0.000000000000000 0.000000000000000 -2.108200000000000 1.000000000000000 I I #
-579 ellipse-curve $-1 19.050000000000001 -1.587500000000000 31.750000000000000 0.000000000000000 -1.000000000000000 0.000000000000000 0.000000000000000 0.000000000000000 -2.108200000000000 1.000000000000000 I I #
-580 ellipse-curve $-1 19.050000000000001 0.000000000000000 -6.350000000000000 0.000000000000000 -1.000000000000000 0.000000000000000 0.000000000000000 0.000000000000000 -2.108200000000000 1.000000000000000 I I #
-581 ellipse-curve $-1 19.050000000000001 0.000000000000000 6.350000000000000 0.000000000000000 -1.000000000000000 0.000000000000000 0.000000000000000 0.000000000000000 -2.108200000000000 1.000000000000000 I I #
-582 ellipse-curve $-1 44.450000000000003 0.000000000000000 66.674999999999997 0.000000000000000 -1.000000000000000 0.000000000000000 0.000000000000000 0.000000000000000 -2.108200000000000 1.000000000000000 I I #
-583 ellipse-curve $-1 69.849999999999994 0.000000000000000 50.799999999999997 0.000000000000000 -1.000000000000000 0.000000000000000 0.000000000000000 0.000000000000000 -2.108200000000000 1.000000000000000 I I #
-584 ellipse-curve $-1 69.849999999999994 0.000000000000000 6.350000000000000 0.000000000000000 -1.000000000000000 0.000000000000000 0.000000000000000 0.000000000000000 -2.108200000000000 1.000000000000000 I I #
-585 ellipse-curve $-1 69.849999999999994 0.000000000000000 -6.350000000000000 0.000000000000000 -1.000000000000000 0.000000000000000 0.000000000000000 0.000000000000000 -2.108200000000000 1.000000000000000 I I #
-586 ellipse-curve $-1 19.050000000000001 0.000000000000000 31.750000000000000 0.000000000000000 -1.000000000000000 0.000000000000000 0.000000000000000 0.000000000000000 -2.108200000000000 1.000000000000000 I I #
End-of-ACIS-data 