500 0 1 0                                           
26 Datakit CrossCadWare V23.3 2    24 Sun Oct 22 01:17:57 2023 
1 9.9999999999999995e-007 1e-010
-0 body $1 $3 $-1 $-1 #
-1 rgb_color-st-attrib $-1 $2 $-1 $0 0.976471 0.709804 0.003922 #
-2 string_attrib-name_attrib-gen-attrib $-1 $-1 $1 $0 keep keep_kept ignore 17 ATTRIB_XACIS_NAME 10 Intake Arm #
-3 lump $-1 $-1 $4 $0 #
-4 shell $-1 $-1 $-1 $5 $-1 $3 #
-5 face $6 $7 $101 $4 $-1 $69 forward single #
-6 rgb_color-st-attrib $-1 $-1 $-1 $5 0.976471 0.709804 0.003922 #
-7 face $8 $9 $102 $4 $-1 $70 reversed single #
-8 rgb_color-st-attrib $-1 $-1 $-1 $7 0.976471 0.709804 0.003922 #
-9 face $10 $11 $103 $4 $-1 $71 reversed single #
-10 rgb_color-st-attrib $-1 $-1 $-1 $9 0.976471 0.709804 0.003922 #
-11 face $12 $13 $104 $4 $-1 $72 forward single #
-12 rgb_color-st-attrib $-1 $-1 $-1 $11 0.976471 0.709804 0.003922 #
-13 face $14 $15 $105 $4 $-1 $73 forward single #
-14 rgb_color-st-attrib $-1 $-1 $-1 $13 0.976471 0.709804 0.003922 #
-15 face $16 $17 $106 $4 $-1 $74 reversed single #
-16 rgb_color-st-attrib $-1 $-1 $-1 $15 0.976471 0.709804 0.003922 #
-17 face $18 $19 $107 $4 $-1 $75 forward single #
-18 rgb_color-st-attrib $-1 $-1 $-1 $17 0.976471 0.709804 0.003922 #
-19 face $20 $21 $108 $4 $-1 $76 reversed single #
-20 rgb_color-st-attrib $-1 $-1 $-1 $19 0.976471 0.709804 0.003922 #
-21 face $22 $23 $109 $4 $-1 $77 forward single #
-22 rgb_color-st-attrib $-1 $-1 $-1 $21 0.976471 0.709804 0.003922 #
-23 face $24 $25 $110 $4 $-1 $78 forward single #
-24 rgb_color-st-attrib $-1 $-1 $-1 $23 0.976471 0.709804 0.003922 #
-25 face $26 $27 $111 $4 $-1 $79 reversed single #
-26 rgb_color-st-attrib $-1 $-1 $-1 $25 0.976471 0.709804 0.003922 #
-27 face $28 $29 $112 $4 $-1 $80 reversed single #
-28 rgb_color-st-attrib $-1 $-1 $-1 $27 0.976471 0.709804 0.003922 #
-29 face $30 $31 $113 $4 $-1 $81 reversed single #
-30 rgb_color-st-attrib $-1 $-1 $-1 $29 0.976471 0.709804 0.003922 #
-31 face $32 $33 $114 $4 $-1 $82 reversed single #
-32 rgb_color-st-attrib $-1 $-1 $-1 $31 0.976471 0.709804 0.003922 #
-33 face $34 $35 $115 $4 $-1 $83 reversed single #
-34 rgb_color-st-attrib $-1 $-1 $-1 $33 0.976471 0.709804 0.003922 #
-35 face $36 $37 $116 $4 $-1 $84 reversed single #
-36 rgb_color-st-attrib $-1 $-1 $-1 $35 0.976471 0.709804 0.003922 #
-37 face $38 $39 $117 $4 $-1 $85 reversed single #
-38 rgb_color-st-attrib $-1 $-1 $-1 $37 0.976471 0.709804 0.003922 #
-39 face $40 $41 $118 $4 $-1 $86 reversed single #
-40 rgb_color-st-attrib $-1 $-1 $-1 $39 0.976471 0.709804 0.003922 #
-41 face $42 $43 $119 $4 $-1 $87 reversed single #
-42 rgb_color-st-attrib $-1 $-1 $-1 $41 0.976471 0.709804 0.003922 #
-43 face $44 $45 $120 $4 $-1 $88 reversed single #
-44 rgb_color-st-attrib $-1 $-1 $-1 $43 0.976471 0.709804 0.003922 #
-45 face $46 $47 $121 $4 $-1 $89 forward single #
-46 rgb_color-st-attrib $-1 $-1 $-1 $45 0.976471 0.709804 0.003922 #
-47 face $48 $49 $122 $4 $-1 $90 forward single #
-48 rgb_color-st-attrib $-1 $-1 $-1 $47 0.976471 0.709804 0.003922 #
-49 face $50 $51 $132 $4 $-1 $91 reversed single #
-50 rgb_color-st-attrib $-1 $-1 $-1 $49 0.976471 0.709804 0.003922 #
-51 face $52 $53 $142 $4 $-1 $92 reversed single #
-52 rgb_color-st-attrib $-1 $-1 $-1 $51 0.976471 0.709804 0.003922 #
-53 face $54 $55 $143 $4 $-1 $93 reversed single #
-54 rgb_color-st-attrib $-1 $-1 $-1 $53 0.976471 0.709804 0.003922 #
-55 face $56 $57 $144 $4 $-1 $94 reversed single #
-56 rgb_color-st-attrib $-1 $-1 $-1 $55 0.976471 0.709804 0.003922 #
-57 face $58 $59 $145 $4 $-1 $95 reversed single #
-58 rgb_color-st-attrib $-1 $-1 $-1 $57 0.976471 0.709804 0.003922 #
-59 face $60 $61 $146 $4 $-1 $96 reversed single #
-60 rgb_color-st-attrib $-1 $-1 $-1 $59 0.976471 0.709804 0.003922 #
-61 face $62 $63 $147 $4 $-1 $97 reversed single #
-62 rgb_color-st-attrib $-1 $-1 $-1 $61 0.976471 0.709804 0.003922 #
-63 face $64 $65 $148 $4 $-1 $98 reversed single #
-64 rgb_color-st-attrib $-1 $-1 $-1 $63 0.976471 0.709804 0.003922 #
-65 face $66 $67 $149 $4 $-1 $99 reversed single #
-66 rgb_color-st-attrib $-1 $-1 $-1 $65 0.976471 0.709804 0.003922 #
-67 face $68 $-1 $150 $4 $-1 $100 reversed single #
-68 rgb_color-st-attrib $-1 $-1 $-1 $67 0.976471 0.709804 0.003922 #
-69 cone-surface $-1 44.4500000000 -1.5875000000 66.6750000000 -0.0000000000 1.0000000000 0.0000000000 12.7000000000 0.0000000000 0.0000000000 1 I I 0 1 1 forward I I I I #
-70 plane-surface $-1 113.0797134860 -1.5875000000 53.9750000000 -0.0000000000 0.0000000000 1.0000000000 1.0000000000 0.0000000000 0.0000000000 forward_v I I I I #
-71 cone-surface $-1 181.7094269719 -1.5875000000 3.1750000000 0.0000000000 1.0000000000 0.0000000000 -12.4640413634 0.0000000000 -49.2472097980 1 I I 0 1 1 forward I I I I #
-72 plane-surface $-1 231.9108595978 -1.5875000000 33.7782062467 -0.4757108779 0.0000000000 -0.8796017057 -0.8796017057 0.0000000000 0.4757108779 forward_v I I I I #
-73 cone-surface $-1 273.0500000000 -1.5875000000 47.6250000000 0.0000000000 1.0000000000 0.0000000000 -16.2560173960 0.0000000000 27.2727776074 1 I I 0 1 1 forward I I I I #
-74 plane-surface $-1 304.8000000000 -1.5875000000 63.5000000000 -1.0000000000 0.0000000000 0.0000000000 0.0000000000 0.0000000000 1.0000000000 forward_v I I I I #
-75 cone-surface $-1 298.4500000000 -1.5875000000 79.3750000000 0.0000000000 1.0000000000 0.0000000000 -4.4901280605 0.0000000000 -4.4901280605 1 I I 0 1 1 forward I I I I #
-76 plane-surface $-1 238.1250000000 -1.5875000000 85.7250000000 0.0000000000 0.0000000000 -1.0000000000 -1.0000000000 0.0000000000 -0.0000000000 forward_v I I I I #
-77 cone-surface $-1 177.8000000000 -1.5875000000 79.3750000000 0.0000000000 1.0000000000 0.0000000000 2.4300397955 0.0000000000 -5.8666350314 1 I I 0 1 1 forward I I I I #
-78 plane-surface $-1 171.9947438789 -1.5875000000 82.5500000000 -0.7071067812 0.0000000000 0.7071067812 0.7071067812 0.0000000000 0.7071067812 forward_v I I I I #
-79 cone-surface $-1 166.1894877579 -1.5875000000 85.7250000000 0.0000000000 1.0000000000 0.0000000000 -2.4300397955 0.0000000000 5.8666350314 1 I I 0 1 1 forward I I I I #
-80 cone-surface $-1 44.4500000000 -1.5875000000 66.6750000000 0.0000000000 1.0000000000 0.0000000000 2.1082000000 0.0000000000 0.0000000000 1 I I 0 1 1 forward I I I I #
-81 cone-surface $-1 273.0500000000 -1.5875000000 47.6250000000 0.0000000000 1.0000000000 0.0000000000 11.0490000000 0.0000000000 0.0000000000 1 I I 0 1 1 forward I I I I #
-82 cone-surface $-1 57.1500000000 -1.5875000000 66.6750000000 0.0000000000 1.0000000000 0.0000000000 2.1082000000 0.0000000000 0.0000000000 1 I I 0 1 1 forward I I I I #
-83 cone-surface $-1 69.8500000000 -1.5875000000 66.6750000000 0.0000000000 1.0000000000 0.0000000000 2.1082000000 0.0000000000 0.0000000000 1 I I 0 1 1 forward I I I I #
-84 cone-surface $-1 82.5500000000 -1.5875000000 66.6750000000 0.0000000000 1.0000000000 0.0000000000 2.1082000000 0.0000000000 0.0000000000 1 I I 0 1 1 forward I I I I #
-85 cone-surface $-1 298.4500000000 -1.5875000000 73.0250000000 0.0000000000 1.0000000000 0.0000000000 2.1082000000 0.0000000000 0.0000000000 1 I I 0 1 1 forward I I I I #
-86 cone-surface $-1 298.4500000000 -1.5875000000 60.3250000000 0.0000000000 1.0000000000 0.0000000000 2.1082000000 0.0000000000 0.0000000000 1 I I 0 1 1 forward I I I I #
-87 cone-surface $-1 247.6500000000 -1.5875000000 73.0250000000 0.0000000000 1.0000000000 0.0000000000 2.1082000000 0.0000000000 -0.0000000000 1 I I 0 1 1 forward I I I I #
-88 cone-surface $-1 247.6500000000 -1.5875000000 60.3250000000 0.0000000000 1.0000000000 0.0000000000 2.1082000000 0.0000000000 -0.0000000000 1 I I 0 1 1 forward I I I I #
-89 plane-surface $-1 105.3197438789 -1.5875000000 79.3750000000 -0.0000000000 0.0000000000 1.0000000000 1.0000000000 0.0000000000 0.0000000000 forward_v I I I I #
-90 plane-surface $-1 168.2750000000 -1.5875000000 50.8000000000 0.0000000000 -1.0000000000 0.0000000000 1.0000000000 0.0000000000 0.0000000000 forward_v I I I I #
-91 plane-surface $-1 168.2750000000 0.0000000000 50.8000000000 0.0000000000 -1.0000000000 0.0000000000 1.0000000000 0.0000000000 0.0000000000 forward_v I I I I #
-92 cone-surface $-1 44.4500000000 -1.5875000000 66.6750000000 0.0000000000 1.0000000000 0.0000000000 -2.1082000000 0.0000000000 0.0000000000 1 I I 0 1 1 forward I I I I #
-93 cone-surface $-1 273.0500000000 -1.5875000000 47.6250000000 0.0000000000 1.0000000000 0.0000000000 -11.0490000000 0.0000000000 0.0000000000 1 I I 0 1 1 forward I I I I #
-94 cone-surface $-1 57.1500000000 -1.5875000000 66.6750000000 0.0000000000 1.0000000000 0.0000000000 -2.1082000000 0.0000000000 0.0000000000 1 I I 0 1 1 forward I I I I #
-95 cone-surface $-1 69.8500000000 -1.5875000000 66.6750000000 0.0000000000 1.0000000000 0.0000000000 -2.1082000000 0.0000000000 0.0000000000 1 I I 0 1 1 forward I I I I #
-96 cone-surface $-1 82.5500000000 -1.5875000000 66.6750000000 0.0000000000 1.0000000000 0.0000000000 -2.1082000000 0.0000000000 0.0000000000 1 I I 0 1 1 forward I I I I #
-97 cone-surface $-1 298.4500000000 -1.5875000000 73.0250000000 0.0000000000 1.0000000000 0.0000000000 -2.1082000000 0.0000000000 0.0000000000 1 I I 0 1 1 forward I I I I #
-98 cone-surface $-1 298.4500000000 -1.5875000000 60.3250000000 0.0000000000 1.0000000000 0.0000000000 -2.1082000000 0.0000000000 0.0000000000 1 I I 0 1 1 forward I I I I #
-99 cone-surface $-1 247.6500000000 -1.5875000000 73.0250000000 0.0000000000 1.0000000000 0.0000000000 -2.1082000000 0.0000000000 -0.0000000000 1 I I 0 1 1 forward I I I I #
-100 cone-surface $-1 247.6500000000 -1.5875000000 60.3250000000 0.0000000000 1.0000000000 0.0000000000 -2.1082000000 0.0000000000 -0.0000000000 1 I I 0 1 1 forward I I I I #
-101 loop $-1 $-1 $151 $5 #
-102 loop $-1 $-1 $155 $7 #
-103 loop $-1 $-1 $159 $9 #
-104 loop $-1 $-1 $163 $11 #
-105 loop $-1 $-1 $167 $13 #
-106 loop $-1 $-1 $171 $15 #
-107 loop $-1 $-1 $175 $17 #
-108 loop $-1 $-1 $179 $19 #
-109 loop $-1 $-1 $183 $21 #
-110 loop $-1 $-1 $187 $23 #
-111 loop $-1 $-1 $191 $25 #
-112 loop $-1 $-1 $195 $27 #
-113 loop $-1 $-1 $199 $29 #
-114 loop $-1 $-1 $203 $31 #
-115 loop $-1 $-1 $207 $33 #
-116 loop $-1 $-1 $211 $35 #
-117 loop $-1 $-1 $215 $37 #
-118 loop $-1 $-1 $219 $39 #
-119 loop $-1 $-1 $223 $41 #
-120 loop $-1 $-1 $227 $43 #
-121 loop $-1 $-1 $231 $45 #
-122 loop $-1 $123 $235 $47 #
-123 loop $-1 $124 $237 $47 #
-124 loop $-1 $125 $239 $47 #
-125 loop $-1 $126 $241 $47 #
-126 loop $-1 $127 $243 $47 #
-127 loop $-1 $128 $245 $47 #
-128 loop $-1 $129 $247 $47 #
-129 loop $-1 $130 $249 $47 #
-130 loop $-1 $131 $251 $47 #
-131 loop $-1 $-1 $253 $47 #
-132 loop $-1 $133 $265 $49 #
-133 loop $-1 $134 $267 $49 #
-134 loop $-1 $135 $269 $49 #
-135 loop $-1 $136 $271 $49 #
-136 loop $-1 $137 $273 $49 #
-137 loop $-1 $138 $275 $49 #
-138 loop $-1 $139 $277 $49 #
-139 loop $-1 $140 $279 $49 #
-140 loop $-1 $141 $281 $49 #
-141 loop $-1 $-1 $283 $49 #
-142 loop $-1 $-1 $295 $51 #
-143 loop $-1 $-1 $299 $53 #
-144 loop $-1 $-1 $303 $55 #
-145 loop $-1 $-1 $307 $57 #
-146 loop $-1 $-1 $311 $59 #
-147 loop $-1 $-1 $315 $61 #
-148 loop $-1 $-1 $319 $63 #
-149 loop $-1 $-1 $323 $65 #
-150 loop $-1 $-1 $327 $67 #
-151 coedge $-1 $152 $154 $283 $331 forward $101 $-1 #
-152 coedge $-1 $153 $151 $158 $332 reversed $101 $-1 #
-153 coedge $-1 $154 $152 $253 $333 reversed $101 $-1 #
-154 coedge $-1 $151 $153 $232 $334 forward $101 $-1 #
-155 coedge $-1 $156 $158 $294 $335 forward $102 $-1 #
-156 coedge $-1 $157 $155 $162 $336 reversed $102 $-1 #
-157 coedge $-1 $158 $156 $254 $337 reversed $102 $-1 #
-158 coedge $-1 $155 $157 $152 $332 forward $102 $-1 #
-159 coedge $-1 $160 $162 $293 $338 reversed $103 $-1 #
-160 coedge $-1 $161 $159 $166 $339 reversed $103 $-1 #
-161 coedge $-1 $162 $160 $255 $340 forward $103 $-1 #
-162 coedge $-1 $159 $161 $156 $336 forward $103 $-1 #
-163 coedge $-1 $164 $166 $292 $341 reversed $104 $-1 #
-164 coedge $-1 $165 $163 $170 $342 reversed $104 $-1 #
-165 coedge $-1 $166 $164 $256 $343 forward $104 $-1 #
-166 coedge $-1 $163 $165 $160 $339 forward $104 $-1 #
-167 coedge $-1 $168 $170 $291 $344 forward $105 $-1 #
-168 coedge $-1 $169 $167 $174 $345 reversed $105 $-1 #
-169 coedge $-1 $170 $168 $257 $346 reversed $105 $-1 #
-170 coedge $-1 $167 $169 $164 $342 forward $105 $-1 #
-171 coedge $-1 $172 $174 $290 $347 forward $106 $-1 #
-172 coedge $-1 $173 $171 $178 $348 reversed $106 $-1 #
-173 coedge $-1 $174 $172 $258 $349 reversed $106 $-1 #
-174 coedge $-1 $171 $173 $168 $345 forward $106 $-1 #
-175 coedge $-1 $176 $178 $289 $350 forward $107 $-1 #
-176 coedge $-1 $177 $175 $182 $351 reversed $107 $-1 #
-177 coedge $-1 $178 $176 $259 $352 reversed $107 $-1 #
-178 coedge $-1 $175 $177 $172 $348 forward $107 $-1 #
-179 coedge $-1 $180 $182 $288 $353 forward $108 $-1 #
-180 coedge $-1 $181 $179 $186 $354 reversed $108 $-1 #
-181 coedge $-1 $182 $180 $260 $355 reversed $108 $-1 #
-182 coedge $-1 $179 $181 $176 $351 forward $108 $-1 #
-183 coedge $-1 $184 $186 $287 $356 forward $109 $-1 #
-184 coedge $-1 $185 $183 $190 $357 reversed $109 $-1 #
-185 coedge $-1 $186 $184 $261 $358 reversed $109 $-1 #
-186 coedge $-1 $183 $185 $180 $354 forward $109 $-1 #
-187 coedge $-1 $188 $190 $286 $359 reversed $110 $-1 #
-188 coedge $-1 $189 $187 $194 $360 reversed $110 $-1 #
-189 coedge $-1 $190 $188 $262 $361 forward $110 $-1 #
-190 coedge $-1 $187 $189 $184 $357 forward $110 $-1 #
-191 coedge $-1 $192 $194 $285 $362 reversed $111 $-1 #
-192 coedge $-1 $193 $191 $234 $363 reversed $111 $-1 #
-193 coedge $-1 $194 $192 $263 $364 forward $111 $-1 #
-194 coedge $-1 $191 $193 $188 $360 forward $111 $-1 #
-195 coedge $-1 $196 $198 $295 $365 forward $112 $-1 #
-196 coedge $-1 $197 $195 $282 $366 reversed $112 $-1 #
-197 coedge $-1 $198 $196 $297 $367 reversed $112 $-1 #
-198 coedge $-1 $195 $197 $251 $368 forward $112 $-1 #
-199 coedge $-1 $200 $202 $299 $369 forward $113 $-1 #
-200 coedge $-1 $201 $199 $280 $370 reversed $113 $-1 #
-201 coedge $-1 $202 $200 $301 $371 reversed $113 $-1 #
-202 coedge $-1 $199 $201 $249 $372 forward $113 $-1 #
-203 coedge $-1 $204 $206 $303 $373 forward $114 $-1 #
-204 coedge $-1 $205 $203 $278 $374 reversed $114 $-1 #
-205 coedge $-1 $206 $204 $305 $375 reversed $114 $-1 #
-206 coedge $-1 $203 $205 $247 $376 forward $114 $-1 #
-207 coedge $-1 $208 $210 $307 $377 forward $115 $-1 #
-208 coedge $-1 $209 $207 $276 $378 reversed $115 $-1 #
-209 coedge $-1 $210 $208 $309 $379 reversed $115 $-1 #
-210 coedge $-1 $207 $209 $245 $380 forward $115 $-1 #
-211 coedge $-1 $212 $214 $311 $381 forward $116 $-1 #
-212 coedge $-1 $213 $211 $274 $382 reversed $116 $-1 #
-213 coedge $-1 $214 $212 $313 $383 reversed $116 $-1 #
-214 coedge $-1 $211 $213 $243 $384 forward $116 $-1 #
-215 coedge $-1 $216 $218 $315 $385 forward $117 $-1 #
-216 coedge $-1 $217 $215 $272 $386 reversed $117 $-1 #
-217 coedge $-1 $218 $216 $317 $387 reversed $117 $-1 #
-218 coedge $-1 $215 $217 $241 $388 forward $117 $-1 #
-219 coedge $-1 $220 $222 $319 $389 forward $118 $-1 #
-220 coedge $-1 $221 $219 $270 $390 reversed $118 $-1 #
-221 coedge $-1 $222 $220 $321 $391 reversed $118 $-1 #
-222 coedge $-1 $219 $221 $239 $392 forward $118 $-1 #
-223 coedge $-1 $224 $226 $323 $393 forward $119 $-1 #
-224 coedge $-1 $225 $223 $268 $394 forward $119 $-1 #
-225 coedge $-1 $226 $224 $325 $395 reversed $119 $-1 #
-226 coedge $-1 $223 $225 $237 $396 reversed $119 $-1 #
-227 coedge $-1 $228 $230 $327 $397 forward $120 $-1 #
-228 coedge $-1 $229 $227 $266 $398 forward $120 $-1 #
-229 coedge $-1 $230 $228 $329 $399 reversed $120 $-1 #
-230 coedge $-1 $227 $229 $235 $400 reversed $120 $-1 #
-231 coedge $-1 $232 $234 $284 $401 reversed $121 $-1 #
-232 coedge $-1 $233 $231 $154 $334 reversed $121 $-1 #
-233 coedge $-1 $234 $232 $264 $402 forward $121 $-1 #
-234 coedge $-1 $231 $233 $192 $363 forward $121 $-1 #
-235 coedge $-1 $236 $236 $230 $400 forward $122 $-1 #
-236 coedge $-1 $235 $235 $328 $403 forward $122 $-1 #
-237 coedge $-1 $238 $238 $226 $396 forward $123 $-1 #
-238 coedge $-1 $237 $237 $324 $404 forward $123 $-1 #
-239 coedge $-1 $240 $240 $222 $392 reversed $124 $-1 #
-240 coedge $-1 $239 $239 $320 $405 reversed $124 $-1 #
-241 coedge $-1 $242 $242 $218 $388 reversed $125 $-1 #
-242 coedge $-1 $241 $241 $316 $406 reversed $125 $-1 #
-243 coedge $-1 $244 $244 $214 $384 reversed $126 $-1 #
-244 coedge $-1 $243 $243 $312 $407 reversed $126 $-1 #
-245 coedge $-1 $246 $246 $210 $380 reversed $127 $-1 #
-246 coedge $-1 $245 $245 $308 $408 reversed $127 $-1 #
-247 coedge $-1 $248 $248 $206 $376 reversed $128 $-1 #
-248 coedge $-1 $247 $247 $304 $409 reversed $128 $-1 #
-249 coedge $-1 $250 $250 $202 $372 reversed $129 $-1 #
-250 coedge $-1 $249 $249 $300 $410 reversed $129 $-1 #
-251 coedge $-1 $252 $252 $198 $368 reversed $130 $-1 #
-252 coedge $-1 $251 $251 $296 $411 reversed $130 $-1 #
-253 coedge $-1 $254 $264 $153 $333 forward $131 $-1 #
-254 coedge $-1 $255 $253 $157 $337 forward $131 $-1 #
-255 coedge $-1 $256 $254 $161 $340 reversed $131 $-1 #
-256 coedge $-1 $257 $255 $165 $343 reversed $131 $-1 #
-257 coedge $-1 $258 $256 $169 $346 forward $131 $-1 #
-258 coedge $-1 $259 $257 $173 $349 forward $131 $-1 #
-259 coedge $-1 $260 $258 $177 $352 forward $131 $-1 #
-260 coedge $-1 $261 $259 $181 $355 forward $131 $-1 #
-261 coedge $-1 $262 $260 $185 $358 forward $131 $-1 #
-262 coedge $-1 $263 $261 $189 $361 reversed $131 $-1 #
-263 coedge $-1 $264 $262 $193 $364 reversed $131 $-1 #
-264 coedge $-1 $253 $263 $233 $402 reversed $131 $-1 #
-265 coedge $-1 $266 $266 $330 $412 reversed $132 $-1 #
-266 coedge $-1 $265 $265 $228 $398 reversed $132 $-1 #
-267 coedge $-1 $268 $268 $326 $413 reversed $133 $-1 #
-268 coedge $-1 $267 $267 $224 $394 reversed $133 $-1 #
-269 coedge $-1 $270 $270 $322 $414 forward $134 $-1 #
-270 coedge $-1 $269 $269 $220 $390 forward $134 $-1 #
-271 coedge $-1 $272 $272 $318 $415 forward $135 $-1 #
-272 coedge $-1 $271 $271 $216 $386 forward $135 $-1 #
-273 coedge $-1 $274 $274 $314 $416 forward $136 $-1 #
-274 coedge $-1 $273 $273 $212 $382 forward $136 $-1 #
-275 coedge $-1 $276 $276 $310 $417 forward $137 $-1 #
-276 coedge $-1 $275 $275 $208 $378 forward $137 $-1 #
-277 coedge $-1 $278 $278 $306 $418 forward $138 $-1 #
-278 coedge $-1 $277 $277 $204 $374 forward $138 $-1 #
-279 coedge $-1 $280 $280 $302 $419 forward $139 $-1 #
-280 coedge $-1 $279 $279 $200 $370 forward $139 $-1 #
-281 coedge $-1 $282 $282 $298 $420 forward $140 $-1 #
-282 coedge $-1 $281 $281 $196 $366 forward $140 $-1 #
-283 coedge $-1 $284 $294 $151 $331 reversed $141 $-1 #
-284 coedge $-1 $285 $283 $231 $401 forward $141 $-1 #
-285 coedge $-1 $286 $284 $191 $362 forward $141 $-1 #
-286 coedge $-1 $287 $285 $187 $359 forward $141 $-1 #
-287 coedge $-1 $288 $286 $183 $356 reversed $141 $-1 #
-288 coedge $-1 $289 $287 $179 $353 reversed $141 $-1 #
-289 coedge $-1 $290 $288 $175 $350 reversed $141 $-1 #
-290 coedge $-1 $291 $289 $171 $347 reversed $141 $-1 #
-291 coedge $-1 $292 $290 $167 $344 reversed $141 $-1 #
-292 coedge $-1 $293 $291 $163 $341 forward $141 $-1 #
-293 coedge $-1 $294 $292 $159 $338 forward $141 $-1 #
-294 coedge $-1 $283 $293 $155 $335 reversed $141 $-1 #
-295 coedge $-1 $296 $298 $195 $365 reversed $142 $-1 #
-296 coedge $-1 $297 $295 $252 $411 forward $142 $-1 #
-297 coedge $-1 $298 $296 $197 $367 forward $142 $-1 #
-298 coedge $-1 $295 $297 $281 $420 reversed $142 $-1 #
-299 coedge $-1 $300 $302 $199 $369 reversed $143 $-1 #
-300 coedge $-1 $301 $299 $250 $410 forward $143 $-1 #
-301 coedge $-1 $302 $300 $201 $371 forward $143 $-1 #
-302 coedge $-1 $299 $301 $279 $419 reversed $143 $-1 #
-303 coedge $-1 $304 $306 $203 $373 reversed $144 $-1 #
-304 coedge $-1 $305 $303 $248 $409 forward $144 $-1 #
-305 coedge $-1 $306 $304 $205 $375 forward $144 $-1 #
-306 coedge $-1 $303 $305 $277 $418 reversed $144 $-1 #
-307 coedge $-1 $308 $310 $207 $377 reversed $145 $-1 #
-308 coedge $-1 $309 $307 $246 $408 forward $145 $-1 #
-309 coedge $-1 $310 $308 $209 $379 forward $145 $-1 #
-310 coedge $-1 $307 $309 $275 $417 reversed $145 $-1 #
-311 coedge $-1 $312 $314 $211 $381 reversed $146 $-1 #
-312 coedge $-1 $313 $311 $244 $407 forward $146 $-1 #
-313 coedge $-1 $314 $312 $213 $383 forward $146 $-1 #
-314 coedge $-1 $311 $313 $273 $416 reversed $146 $-1 #
-315 coedge $-1 $316 $318 $215 $385 reversed $147 $-1 #
-316 coedge $-1 $317 $315 $242 $406 forward $147 $-1 #
-317 coedge $-1 $318 $316 $217 $387 forward $147 $-1 #
-318 coedge $-1 $315 $317 $271 $415 reversed $147 $-1 #
-319 coedge $-1 $320 $322 $219 $389 reversed $148 $-1 #
-320 coedge $-1 $321 $319 $240 $405 forward $148 $-1 #
-321 coedge $-1 $322 $320 $221 $391 forward $148 $-1 #
-322 coedge $-1 $319 $321 $269 $414 reversed $148 $-1 #
-323 coedge $-1 $324 $326 $223 $393 reversed $149 $-1 #
-324 coedge $-1 $325 $323 $238 $404 reversed $149 $-1 #
-325 coedge $-1 $326 $324 $225 $395 forward $149 $-1 #
-326 coedge $-1 $323 $325 $267 $413 forward $149 $-1 #
-327 coedge $-1 $328 $330 $227 $397 reversed $150 $-1 #
-328 coedge $-1 $329 $327 $236 $403 reversed $150 $-1 #
-329 coedge $-1 $330 $328 $229 $399 forward $150 $-1 #
-330 coedge $-1 $327 $329 $265 $412 forward $150 $-1 #
-331 edge $-1 $422 3.1415926536 $424 6.2831853072 $151 $421 forward 7 unknown #
-332 edge $-1 $427 0.0000000000 $424 1.5875000000 $152 $426 forward 7 unknown #
-333 edge $-1 $430 3.1415926536 $427 6.2831853072 $153 $429 forward 7 unknown #
-334 edge $-1 $430 0.0000000000 $422 1.5875000000 $154 $432 forward 7 unknown #
-335 edge $-1 $424 -68.6297134860 $434 68.6297134860 $155 $433 forward 7 unknown #
-336 edge $-1 $437 0.0000000000 $434 1.5875000000 $156 $436 forward 7 unknown #
-337 edge $-1 $427 -68.6297134860 $437 68.6297134860 $157 $439 forward 7 unknown #
-338 edge $-1 $441 2.6458206242 $434 3.1415926536 $159 $440 forward 7 unknown #
-339 edge $-1 $444 0.0000000000 $441 1.5875000000 $160 $443 forward 7 unknown #
-340 edge $-1 $444 2.6458206242 $437 3.1415926536 $161 $446 forward 7 unknown #
-341 edge $-1 $448 -29.5989876562 $441 29.5989876562 $163 $447 forward 7 unknown #
-342 edge $-1 $451 0.0000000000 $448 1.5875000000 $164 $450 forward 7 unknown #
-343 edge $-1 $451 -29.5989876562 $444 29.5989876562 $165 $453 forward 7 unknown #
-344 edge $-1 $448 -0.4957720294 $455 1.5707963268 $167 $454 forward 7 unknown #
-345 edge $-1 $458 0.0000000000 $455 1.5875000000 $168 $457 forward 7 unknown #
-346 edge $-1 $451 -0.4957720294 $458 1.5707963268 $169 $460 forward 7 unknown #
-347 edge $-1 $455 -15.8750000000 $462 15.8750000000 $171 $461 forward 7 unknown #
-348 edge $-1 $465 0.0000000000 $462 1.5875000000 $172 $464 forward 7 unknown #
-349 edge $-1 $458 -15.8750000000 $465 15.8750000000 $173 $467 forward 7 unknown #
-350 edge $-1 $462 1.5707963268 $469 3.1415926536 $175 $468 forward 7 unknown #
-351 edge $-1 $472 0.0000000000 $469 1.5875000000 $176 $471 forward 7 unknown #
-352 edge $-1 $465 1.5707963268 $472 3.1415926536 $177 $474 forward 7 unknown #
-353 edge $-1 $469 -60.3250000000 $476 60.3250000000 $179 $475 forward 7 unknown #
-354 edge $-1 $479 0.0000000000 $476 1.5875000000 $180 $478 forward 7 unknown #
-355 edge $-1 $472 -60.3250000000 $479 60.3250000000 $181 $481 forward 7 unknown #
-356 edge $-1 $476 3.1415926536 $483 3.9269908170 $183 $482 forward 7 unknown #
-357 edge $-1 $486 0.0000000000 $483 1.5875000000 $184 $485 forward 7 unknown #
-358 edge $-1 $479 3.1415926536 $486 3.9269908170 $185 $488 forward 7 unknown #
-359 edge $-1 $490 -1.8598719395 $483 1.8598719395 $187 $489 forward 7 unknown #
-360 edge $-1 $493 0.0000000000 $490 1.5875000000 $188 $492 forward 7 unknown #
-361 edge $-1 $493 -1.8598719395 $486 1.8598719395 $189 $495 forward 7 unknown #
-362 edge $-1 $497 0.0000000000 $490 0.7853981634 $191 $496 forward 7 unknown #
-363 edge $-1 $500 0.0000000000 $497 1.5875000000 $192 $499 forward 7 unknown #
-364 edge $-1 $500 0.0000000000 $493 0.7853981634 $193 $502 forward 7 unknown #
-365 edge $-1 $504 0.0000000000 $506 1.5875000000 $195 $503 forward 7 unknown #
-366 edge $-1 $509 3.1415926536 $506 6.2831853072 $196 $508 forward 7 unknown #
-367 edge $-1 $512 0.0000000000 $509 1.5875000000 $197 $511 forward 7 unknown #
-368 edge $-1 $512 3.1415926536 $504 6.2831853072 $198 $514 forward 7 unknown #
-369 edge $-1 $516 0.0000000000 $518 1.5875000000 $199 $515 forward 7 unknown #
-370 edge $-1 $521 3.1415926536 $518 6.2831853072 $200 $520 forward 7 unknown #
-371 edge $-1 $524 0.0000000000 $521 1.5875000000 $201 $523 forward 7 unknown #
-372 edge $-1 $524 3.1415926536 $516 6.2831853072 $202 $526 forward 7 unknown #
-373 edge $-1 $528 0.0000000000 $530 1.5875000000 $203 $527 forward 7 unknown #
-374 edge $-1 $533 3.1415926536 $530 6.2831853072 $204 $532 forward 7 unknown #
-375 edge $-1 $536 0.0000000000 $533 1.5875000000 $205 $535 forward 7 unknown #
-376 edge $-1 $536 3.1415926536 $528 6.2831853072 $206 $538 forward 7 unknown #
-377 edge $-1 $540 0.0000000000 $542 1.5875000000 $207 $539 forward 7 unknown #
-378 edge $-1 $545 3.1415926536 $542 6.2831853072 $208 $544 forward 7 unknown #
-379 edge $-1 $548 0.0000000000 $545 1.5875000000 $209 $547 forward 7 unknown #
-380 edge $-1 $548 3.1415926536 $540 6.2831853072 $210 $550 forward 7 unknown #
-381 edge $-1 $552 0.0000000000 $554 1.5875000000 $211 $551 forward 7 unknown #
-382 edge $-1 $557 3.1415926536 $554 6.2831853072 $212 $556 forward 7 unknown #
-383 edge $-1 $560 0.0000000000 $557 1.5875000000 $213 $559 forward 7 unknown #
-384 edge $-1 $560 3.1415926536 $552 6.2831853072 $214 $562 forward 7 unknown #
-385 edge $-1 $564 0.0000000000 $566 1.5875000000 $215 $563 forward 7 unknown #
-386 edge $-1 $569 3.1415926536 $566 6.2831853072 $216 $568 forward 7 unknown #
-387 edge $-1 $572 0.0000000000 $569 1.5875000000 $217 $571 forward 7 unknown #
-388 edge $-1 $572 3.1415926536 $564 6.2831853072 $218 $574 forward 7 unknown #
-389 edge $-1 $576 0.0000000000 $578 1.5875000000 $219 $575 forward 7 unknown #
-390 edge $-1 $581 3.1415926536 $578 6.2831853072 $220 $580 forward 7 unknown #
-391 edge $-1 $584 0.0000000000 $581 1.5875000000 $221 $583 forward 7 unknown #
-392 edge $-1 $584 3.1415926536 $576 6.2831853072 $222 $586 forward 7 unknown #
-393 edge $-1 $588 0.0000000000 $590 1.5875000000 $223 $587 forward 7 unknown #
-394 edge $-1 $590 0.0000000000 $593 3.1415926536 $224 $592 forward 7 unknown #
-395 edge $-1 $596 0.0000000000 $593 1.5875000000 $225 $595 forward 7 unknown #
-396 edge $-1 $588 0.0000000000 $596 3.1415926536 $226 $598 forward 7 unknown #
-397 edge $-1 $600 0.0000000000 $602 1.5875000000 $227 $599 forward 7 unknown #
-398 edge $-1 $602 0.0000000000 $605 3.1415926536 $228 $604 forward 7 unknown #
-399 edge $-1 $608 0.0000000000 $605 1.5875000000 $229 $607 forward 7 unknown #
-400 edge $-1 $600 0.0000000000 $608 3.1415926536 $230 $610 forward 7 unknown #
-401 edge $-1 $422 -60.8697438789 $497 60.8697438789 $231 $611 forward 7 unknown #
-402 edge $-1 $430 -60.8697438789 $500 60.8697438789 $233 $612 forward 7 unknown #
-403 edge $-1 $608 3.1415926536 $600 6.2831853072 $236 $613 forward 7 unknown #
-404 edge $-1 $596 3.1415926536 $588 6.2831853072 $238 $614 forward 7 unknown #
-405 edge $-1 $576 0.0000000000 $584 3.1415926536 $240 $615 forward 7 unknown #
-406 edge $-1 $564 0.0000000000 $572 3.1415926536 $242 $616 forward 7 unknown #
-407 edge $-1 $552 0.0000000000 $560 3.1415926536 $244 $617 forward 7 unknown #
-408 edge $-1 $540 0.0000000000 $548 3.1415926536 $246 $618 forward 7 unknown #
-409 edge $-1 $528 0.0000000000 $536 3.1415926536 $248 $619 forward 7 unknown #
-410 edge $-1 $516 0.0000000000 $524 3.1415926536 $250 $620 forward 7 unknown #
-411 edge $-1 $504 0.0000000000 $512 3.1415926536 $252 $621 forward 7 unknown #
-412 edge $-1 $605 3.1415926536 $602 6.2831853072 $265 $622 forward 7 unknown #
-413 edge $-1 $593 3.1415926536 $590 6.2831853072 $267 $623 forward 7 unknown #
-414 edge $-1 $578 0.0000000000 $581 3.1415926536 $269 $624 forward 7 unknown #
-415 edge $-1 $566 0.0000000000 $569 3.1415926536 $271 $625 forward 7 unknown #
-416 edge $-1 $554 0.0000000000 $557 3.1415926536 $273 $626 forward 7 unknown #
-417 edge $-1 $542 0.0000000000 $545 3.1415926536 $275 $627 forward 7 unknown #
-418 edge $-1 $530 0.0000000000 $533 3.1415926536 $277 $628 forward 7 unknown #
-419 edge $-1 $518 0.0000000000 $521 3.1415926536 $279 $629 forward 7 unknown #
-420 edge $-1 $506 0.0000000000 $509 3.1415926536 $281 $630 forward 7 unknown #
-421 ellipse-curve $-1 44.450000000000003 0.000000000000000 66.674999999999997 0.000000000000000 -1.000000000000000 0.000000000000000 0.000000000000000 0.000000000000000 -12.699999999999999 1.000000000000000 I I #
-422 vertex $-1 $331 $423 #
-423 point $-1 44.450000000000003 0.000000000000000 79.375000000000000 #
-424 vertex $-1 $331 $425 #
-425 point $-1 44.450000000000003 0.000000000000000 53.975000000000001 #
-426 straight-curve $-1 44.450000000000003 -1.587500000000000 53.975000000000001 0.000000000000000 1.000000000000000 0.000000000000000 I I #
-427 vertex $-1 $332 $428 #
-428 point $-1 44.450000000000003 -1.587500000000000 53.975000000000001 #
-429 ellipse-curve $-1 44.450000000000003 -1.587500000000000 66.674999999999997 0.000000000000000 -1.000000000000000 0.000000000000000 0.000000000000000 0.000000000000000 -12.699999999999999 1.000000000000000 I I #
-430 vertex $-1 $333 $431 #
-431 point $-1 44.450000000000003 -1.587500000000000 79.375000000000000 #
-432 straight-curve $-1 44.450000000000003 -1.587500000000000 79.375000000000000 0.000000000000000 1.000000000000000 0.000000000000000 I I #
-433 straight-curve $-1 113.079713485961392 0.000000000000000 53.975000000000001 1.000000000000000 0.000000000000000 0.000000000000000 I I #
-434 vertex $-1 $335 $435 #
-435 point $-1 181.709426971922483 0.000000000000000 53.975000000000001 #
-436 straight-curve $-1 181.709426971922483 -1.587500000000000 53.975000000000001 0.000000000000000 1.000000000000000 0.000000000000000 I I #
-437 vertex $-1 $336 $438 #
-438 point $-1 181.709426971922483 -1.587500000000000 53.975000000000001 #
-439 straight-curve $-1 113.079713485961392 -1.587500000000000 53.975000000000001 1.000000000000000 0.000000000000000 0.000000000000000 I I #
-440 ellipse-curve $-1 181.709426971922994 0.000000000000000 3.175000000000000 0.000000000000000 -1.000000000000000 0.000000000000000 0.000000000000000 0.000000000000000 -50.799999999999997 1.000000000000000 I I #
-441 vertex $-1 $338 $442 #
-442 point $-1 205.875539568589005 0.000000000000000 47.858766649256999 #
-443 straight-curve $-1 205.875539568589005 -1.587500000000000 47.858766649256999 0.000000000000000 1.000000000000000 0.000000000000000 I I #
-444 vertex $-1 $339 $445 #
-445 point $-1 205.875539568589005 -1.587500000000000 47.858766649256999 #
-446 ellipse-curve $-1 181.709426971922994 -1.587500000000000 3.175000000000000 0.000000000000000 -1.000000000000000 0.000000000000000 0.000000000000000 0.000000000000000 -50.799999999999997 1.000000000000000 I I #
-447 straight-curve $-1 231.910859597836492 0.000000000000000 33.778206246735699 -0.879601705694036 0.000000000000000 0.475710877887129 I I #
-448 vertex $-1 $341 $449 #
-449 point $-1 257.946179627084007 0.000000000000000 19.697645844214350 #
-450 straight-curve $-1 257.946179627084007 -1.587500000000000 19.697645844214350 0.000000000000000 1.000000000000000 0.000000000000000 I I #
-451 vertex $-1 $342 $452 #
-452 point $-1 257.946179627084007 -1.587500000000000 19.697645844214350 #
-453 straight-curve $-1 231.910859597836492 -1.587500000000000 33.778206246735699 -0.879601705694036 0.000000000000000 0.475710877887129 I I #
-454 ellipse-curve $-1 273.050000000000011 0.000000000000000 47.625000000000000 0.000000000000000 -1.000000000000000 0.000000000000000 0.000000000000000 0.000000000000000 -31.750000000000000 1.000000000000000 I I #
-455 vertex $-1 $344 $456 #
-456 point $-1 304.800000000000011 0.000000000000000 47.625000000000000 #
-457 straight-curve $-1 304.800000000000011 -1.587500000000000 47.625000000000000 0.000000000000000 1.000000000000000 0.000000000000000 I I #
-458 vertex $-1 $345 $459 #
-459 point $-1 304.800000000000011 -1.587500000000000 47.625000000000000 #
-460 ellipse-curve $-1 273.050000000000011 -1.587500000000000 47.625000000000000 0.000000000000000 -1.000000000000000 0.000000000000000 0.000000000000000 0.000000000000000 -31.750000000000000 1.000000000000000 I I #
-461 straight-curve $-1 304.800000000000011 0.000000000000000 63.500000000000000 0.000000000000000 0.000000000000000 1.000000000000000 I I #
-462 vertex $-1 $347 $463 #
-463 point $-1 304.800000000000011 0.000000000000000 79.375000000000000 #
-464 straight-curve $-1 304.800000000000011 -1.587500000000000 79.375000000000000 0.000000000000000 1.000000000000000 0.000000000000000 I I #
-465 vertex $-1 $348 $466 #
-466 point $-1 304.800000000000011 -1.587500000000000 79.375000000000000 #
-467 straight-curve $-1 304.800000000000011 -1.587500000000000 63.500000000000000 0.000000000000000 0.000000000000000 1.000000000000000 I I #
-468 ellipse-curve $-1 298.449999999999989 0.000000000000000 79.375000000000000 0.000000000000000 -1.000000000000000 0.000000000000000 0.000000000000000 0.000000000000000 -6.350000000000000 1.000000000000000 I I #
-469 vertex $-1 $350 $470 #
-470 point $-1 298.449999999999989 0.000000000000000 85.724999999999994 #
-471 straight-curve $-1 298.449999999999989 -1.587500000000000 85.724999999999994 0.000000000000000 1.000000000000000 0.000000000000000 I I #
-472 vertex $-1 $351 $473 #
-473 point $-1 298.449999999999989 -1.587500000000000 85.724999999999994 #
-474 ellipse-curve $-1 298.449999999999989 -1.587500000000000 79.375000000000000 0.000000000000000 -1.000000000000000 0.000000000000000 0.000000000000000 0.000000000000000 -6.350000000000000 1.000000000000000 I I #
-475 straight-curve $-1 238.125000000000000 0.000000000000000 85.724999999999994 -1.000000000000000 0.000000000000000 -0.000000000000000 I I #
-476 vertex $-1 $353 $477 #
-477 point $-1 177.800000000000011 0.000000000000000 85.724999999999994 #
-478 straight-curve $-1 177.800000000000011 -1.587500000000000 85.724999999999994 0.000000000000000 1.000000000000000 0.000000000000000 I I #
-479 vertex $-1 $354 $480 #
-480 point $-1 177.800000000000011 -1.587500000000000 85.724999999999994 #
-481 straight-curve $-1 238.125000000000000 -1.587500000000000 85.724999999999994 -1.000000000000000 0.000000000000000 -0.000000000000000 I I #
-482 ellipse-curve $-1 177.800000000000011 0.000000000000000 79.375000000000000 0.000000000000000 -1.000000000000000 0.000000000000000 0.000000000000000 0.000000000000000 -6.350000000000000 1.000000000000000 I I #
-483 vertex $-1 $356 $484 #
-484 point $-1 173.309871939465523 0.000000000000000 83.865128060534602 #
-485 straight-curve $-1 173.309871939465523 -1.587500000000000 83.865128060534602 0.000000000000000 1.000000000000000 0.000000000000000 I I #
-486 vertex $-1 $357 $487 #
-487 point $-1 173.309871939465523 -1.587500000000000 83.865128060534602 #
-488 ellipse-curve $-1 177.800000000000011 -1.587500000000000 79.375000000000000 0.000000000000000 -1.000000000000000 0.000000000000000 0.000000000000000 0.000000000000000 -6.350000000000000 1.000000000000000 I I #
-489 straight-curve $-1 171.994743878930990 0.000000000000000 82.549999999999997 0.707106781186546 0.000000000000000 0.707106781186549 I I #
-490 vertex $-1 $359 $491 #
-491 point $-1 170.679615818396002 0.000000000000000 81.234871939465393 #
-492 straight-curve $-1 170.679615818396002 -1.587500000000000 81.234871939465393 0.000000000000000 1.000000000000000 0.000000000000000 I I #
-493 vertex $-1 $360 $494 #
-494 point $-1 170.679615818396002 -1.587500000000000 81.234871939465393 #
-495 straight-curve $-1 171.994743878930990 -1.587500000000000 82.549999999999997 0.707106781186546 0.000000000000000 0.707106781186549 I I #
-496 ellipse-curve $-1 166.189487757861485 0.000000000000000 85.724999999999994 0.000000000000000 -1.000000000000000 0.000000000000000 0.000000000000000 0.000000000000000 -6.349999999999911 1.000000000000000 I I #
-497 vertex $-1 $362 $498 #
-498 point $-1 166.189487757861485 0.000000000000000 79.375000000000000 #
-499 straight-curve $-1 166.189487757861485 -1.587500000000000 79.375000000000000 0.000000000000000 1.000000000000000 0.000000000000000 I I #
-500 vertex $-1 $363 $501 #
-501 point $-1 166.189487757861485 -1.587500000000000 79.375000000000000 #
-502 ellipse-curve $-1 166.189487757861485 -1.587500000000000 85.724999999999994 0.000000000000000 -1.000000000000000 0.000000000000000 0.000000000000000 0.000000000000000 -6.349999999999911 1.000000000000000 I I #
-503 straight-curve $-1 44.450000000000003 -1.587500000000000 64.566800000000001 0.000000000000000 1.000000000000000 0.000000000000000 I I #
-504 vertex $-1 $365 $505 #
-505 point $-1 44.450000000000003 -1.587500000000000 64.566800000000001 #
-506 vertex $-1 $365 $507 #
-507 point $-1 44.450000000000003 0.000000000000000 64.566800000000001 #
-508 ellipse-curve $-1 44.450000000000003 0.000000000000000 66.674999999999997 0.000000000000000 -1.000000000000000 0.000000000000000 0.000000000000000 0.000000000000000 -2.108200000000000 1.000000000000000 I I #
-509 vertex $-1 $366 $510 #
-510 point $-1 44.450000000000003 0.000000000000000 68.783199999999994 #
-511 straight-curve $-1 44.450000000000003 -1.587500000000000 68.783199999999994 0.000000000000000 1.000000000000000 0.000000000000000 I I #
-512 vertex $-1 $367 $513 #
-513 point $-1 44.450000000000003 -1.587500000000000 68.783199999999994 #
-514 ellipse-curve $-1 44.450000000000003 -1.587500000000000 66.674999999999997 0.000000000000000 -1.000000000000000 0.000000000000000 0.000000000000000 0.000000000000000 -2.108200000000000 1.000000000000000 I I #
-515 straight-curve $-1 273.050000000000011 -1.587500000000000 36.576000000000001 0.000000000000000 1.000000000000000 0.000000000000000 I I #
-516 vertex $-1 $369 $517 #
-517 point $-1 273.050000000000011 -1.587500000000000 36.576000000000001 #
-518 vertex $-1 $369 $519 #
-519 point $-1 273.050000000000011 0.000000000000000 36.576000000000001 #
-520 ellipse-curve $-1 273.050000000000011 0.000000000000000 47.625000000000000 0.000000000000000 -1.000000000000000 0.000000000000000 0.000000000000000 0.000000000000000 -11.048999999999999 1.000000000000000 I I #
-521 vertex $-1 $370 $522 #
-522 point $-1 273.050000000000011 0.000000000000000 58.673999999999999 #
-523 straight-curve $-1 273.050000000000011 -1.587500000000000 58.673999999999999 0.000000000000000 1.000000000000000 0.000000000000000 I I #
-524 vertex $-1 $371 $525 #
-525 point $-1 273.050000000000011 -1.587500000000000 58.673999999999999 #
-526 ellipse-curve $-1 273.050000000000011 -1.587500000000000 47.625000000000000 0.000000000000000 -1.000000000000000 0.000000000000000 0.000000000000000 0.000000000000000 -11.048999999999999 1.000000000000000 I I #
-527 straight-curve $-1 57.149999999999999 -1.587500000000000 64.566800000000001 0.000000000000000 1.000000000000000 0.000000000000000 I I #
-528 vertex $-1 $373 $529 #
-529 point $-1 57.149999999999999 -1.587500000000000 64.566800000000001 #
-530 vertex $-1 $373 $531 #
-531 point $-1 57.149999999999999 0.000000000000000 64.566800000000001 #
-532 ellipse-curve $-1 57.149999999999999 0.000000000000000 66.674999999999997 0.000000000000000 -1.000000000000000 0.000000000000000 0.000000000000000 0.000000000000000 -2.108200000000000 1.000000000000000 I I #
-533 vertex $-1 $374 $534 #
-534 point $-1 57.149999999999999 0.000000000000000 68.783199999999994 #
-535 straight-curve $-1 57.149999999999999 -1.587500000000000 68.783199999999994 0.000000000000000 1.000000000000000 0.000000000000000 I I #
-536 vertex $-1 $375 $537 #
-537 point $-1 57.149999999999999 -1.587500000000000 68.783199999999994 #
-538 ellipse-curve $-1 57.149999999999999 -1.587500000000000 66.674999999999997 0.000000000000000 -1.000000000000000 0.000000000000000 0.000000000000000 0.000000000000000 -2.108200000000000 1.000000000000000 I I #
-539 straight-curve $-1 69.849999999999994 -1.587500000000000 64.566800000000001 0.000000000000000 1.000000000000000 0.000000000000000 I I #
-540 vertex $-1 $377 $541 #
-541 point $-1 69.849999999999994 -1.587500000000000 64.566800000000001 #
-542 vertex $-1 $377 $543 #
-543 point $-1 69.849999999999994 0.000000000000000 64.566800000000001 #
-544 ellipse-curve $-1 69.849999999999994 0.000000000000000 66.674999999999997 0.000000000000000 -1.000000000000000 0.000000000000000 0.000000000000000 0.000000000000000 -2.108200000000000 1.000000000000000 I I #
-545 vertex $-1 $378 $546 #
-546 point $-1 69.849999999999994 0.000000000000000 68.783199999999994 #
-547 straight-curve $-1 69.849999999999994 -1.587500000000000 68.783199999999994 0.000000000000000 1.000000000000000 0.000000000000000 I I #
-548 vertex $-1 $379 $549 #
-549 point $-1 69.849999999999994 -1.587500000000000 68.783199999999994 #
-550 ellipse-curve $-1 69.849999999999994 -1.587500000000000 66.674999999999997 0.000000000000000 -1.000000000000000 0.000000000000000 0.000000000000000 0.000000000000000 -2.108200000000000 1.000000000000000 I I #
-551 straight-curve $-1 82.549999999999997 -1.587500000000000 64.566800000000001 0.000000000000000 1.000000000000000 0.000000000000000 I I #
-552 vertex $-1 $381 $553 #
-553 point $-1 82.549999999999997 -1.587500000000000 64.566800000000001 #
-554 vertex $-1 $381 $555 #
-555 point $-1 82.549999999999997 0.000000000000000 64.566800000000001 #
-556 ellipse-curve $-1 82.549999999999997 0.000000000000000 66.674999999999997 0.000000000000000 -1.000000000000000 0.000000000000000 0.000000000000000 0.000000000000000 -2.108200000000000 1.000000000000000 I I #
-557 vertex $-1 $382 $558 #
-558 point $-1 82.549999999999997 0.000000000000000 68.783199999999994 #
-559 straight-curve $-1 82.549999999999997 -1.587500000000000 68.783199999999994 0.000000000000000 1.000000000000000 0.000000000000000 I I #
-560 vertex $-1 $383 $561 #
-561 point $-1 82.549999999999997 -1.587500000000000 68.783199999999994 #
-562 ellipse-curve $-1 82.549999999999997 -1.587500000000000 66.674999999999997 0.000000000000000 -1.000000000000000 0.000000000000000 0.000000000000000 0.000000000000000 -2.108200000000000 1.000000000000000 I I #
-563 straight-curve $-1 298.449999999999989 -1.587500000000000 70.916800000000009 0.000000000000000 1.000000000000000 0.000000000000000 I I #
-564 vertex $-1 $385 $565 #
-565 point $-1 298.449999999999989 -1.587500000000000 70.916800000000009 #
-566 vertex $-1 $385 $567 #
-567 point $-1 298.449999999999989 0.000000000000000 70.916800000000009 #
-568 ellipse-curve $-1 298.449999999999989 0.000000000000000 73.025000000000006 0.000000000000000 -1.000000000000000 0.000000000000000 0.000000000000000 0.000000000000000 -2.108200000000000 1.000000000000000 I I #
-569 vertex $-1 $386 $570 #
-570 point $-1 298.449999999999989 0.000000000000000 75.133200000000002 #
-571 straight-curve $-1 298.449999999999989 -1.587500000000000 75.133200000000002 0.000000000000000 1.000000000000000 0.000000000000000 I I #
-572 vertex $-1 $387 $573 #
-573 point $-1 298.449999999999989 -1.587500000000000 75.133200000000002 #
-574 ellipse-curve $-1 298.449999999999989 -1.587500000000000 73.025000000000006 0.000000000000000 -1.000000000000000 0.000000000000000 0.000000000000000 0.000000000000000 -2.108200000000000 1.000000000000000 I I #
-575 straight-curve $-1 298.449999999999989 -1.587500000000000 58.216799999999992 0.000000000000000 1.000000000000000 0.000000000000000 I I #
-576 vertex $-1 $389 $577 #
-577 point $-1 298.449999999999989 -1.587500000000000 58.216799999999992 #
-578 vertex $-1 $389 $579 #
-579 point $-1 298.449999999999989 0.000000000000000 58.216799999999992 #
-580 ellipse-curve $-1 298.449999999999989 0.000000000000000 60.324999999999996 0.000000000000000 -1.000000000000000 0.000000000000000 0.000000000000000 0.000000000000000 -2.108200000000000 1.000000000000000 I I #
-581 vertex $-1 $390 $582 #
-582 point $-1 298.449999999999989 0.000000000000000 62.433199999999999 #
-583 straight-curve $-1 298.449999999999989 -1.587500000000000 62.433199999999999 0.000000000000000 1.000000000000000 0.000000000000000 I I #
-584 vertex $-1 $391 $585 #
-585 point $-1 298.449999999999989 -1.587500000000000 62.433199999999999 #
-586 ellipse-curve $-1 298.449999999999989 -1.587500000000000 60.324999999999996 0.000000000000000 -1.000000000000000 0.000000000000000 0.000000000000000 0.000000000000000 -2.108200000000000 1.000000000000000 I I #
-587 straight-curve $-1 247.650000000000006 -1.587500000000000 70.916800000000009 0.000000000000000 1.000000000000000 0.000000000000000 I I #
-588 vertex $-1 $393 $589 #
-589 point $-1 247.650000000000006 -1.587500000000000 70.916800000000009 #
-590 vertex $-1 $393 $591 #
-591 point $-1 247.650000000000006 0.000000000000000 70.916800000000009 #
-592 ellipse-curve $-1 247.650000000000006 0.000000000000000 73.025000000000006 0.000000000000000 1.000000000000000 0.000000000000000 0.000000000000000 0.000000000000000 -2.108200000000000 1.000000000000000 I I #
-593 vertex $-1 $394 $594 #
-594 point $-1 247.650000000000006 0.000000000000000 75.133200000000002 #
-595 straight-curve $-1 247.650000000000006 -1.587500000000000 75.133200000000002 0.000000000000000 1.000000000000000 0.000000000000000 I I #
-596 vertex $-1 $395 $597 #
-597 point $-1 247.650000000000006 -1.587500000000000 75.133200000000002 #
-598 ellipse-curve $-1 247.650000000000006 -1.587500000000000 73.025000000000006 0.000000000000000 1.000000000000000 0.000000000000000 0.000000000000000 0.000000000000000 -2.108200000000000 1.000000000000000 I I #
-599 straight-curve $-1 247.650000000000006 -1.587500000000000 58.216799999999992 0.000000000000000 1.000000000000000 0.000000000000000 I I #
-600 vertex $-1 $397 $601 #
-601 point $-1 247.650000000000006 -1.587500000000000 58.216799999999992 #
-602 vertex $-1 $397 $603 #
-603 point $-1 247.650000000000006 0.000000000000000 58.216799999999992 #
-604 ellipse-curve $-1 247.650000000000006 0.000000000000000 60.324999999999996 0.000000000000000 1.000000000000000 0.000000000000000 0.000000000000000 0.000000000000000 -2.108200000000000 1.000000000000000 I I #
-605 vertex $-1 $398 $606 #
-606 point $-1 247.650000000000006 0.000000000000000 62.433199999999999 #
-607 straight-curve $-1 247.650000000000006 -1.587500000000000 62.433199999999999 0.000000000000000 1.000000000000000 0.000000000000000 I I #
-608 vertex $-1 $399 $609 #
-609 point $-1 247.650000000000006 -1.587500000000000 62.433199999999999 #
-610 ellipse-curve $-1 247.650000000000006 -1.587500000000000 60.324999999999996 0.000000000000000 1.000000000000000 0.000000000000000 0.000000000000000 0.000000000000000 -2.108200000000000 1.000000000000000 I I #
-611 straight-curve $-1 105.319743878930794 0.000000000000000 79.375000000000000 1.000000000000000 0.000000000000000 0.000000000000000 I I #
-612 straight-curve $-1 105.319743878930794 -1.587500000000000 79.375000000000000 1.000000000000000 0.000000000000000 0.000000000000000 I I #
-613 ellipse-curve $-1 247.650000000000006 -1.587500000000000 60.324999999999996 0.000000000000000 1.000000000000000 0.000000000000000 0.000000000000000 0.000000000000000 -2.108200000000000 1.000000000000000 I I #
-614 ellipse-curve $-1 247.650000000000006 -1.587500000000000 73.025000000000006 0.000000000000000 1.000000000000000 0.000000000000000 0.000000000000000 0.000000000000000 -2.108200000000000 1.000000000000000 I I #
-615 ellipse-curve $-1 298.449999999999989 -1.587500000000000 60.324999999999996 0.000000000000000 -1.000000000000000 0.000000000000000 0.000000000000000 0.000000000000000 -2.108200000000000 1.000000000000000 I I #
-616 ellipse-curve $-1 298.449999999999989 -1.587500000000000 73.025000000000006 0.000000000000000 -1.000000000000000 0.000000000000000 0.000000000000000 0.000000000000000 -2.108200000000000 1.000000000000000 I I #
-617 ellipse-curve $-1 82.549999999999997 -1.587500000000000 66.674999999999997 0.000000000000000 -1.000000000000000 0.000000000000000 0.000000000000000 0.000000000000000 -2.108200000000000 1.000000000000000 I I #
-618 ellipse-curve $-1 69.849999999999994 -1.587500000000000 66.674999999999997 0.000000000000000 -1.000000000000000 0.000000000000000 0.000000000000000 0.000000000000000 -2.108200000000000 1.000000000000000 I I #
-619 ellipse-curve $-1 57.149999999999999 -1.587500000000000 66.674999999999997 0.000000000000000 -1.000000000000000 0.000000000000000 0.000000000000000 0.000000000000000 -2.108200000000000 1.000000000000000 I I #
-620 ellipse-curve $-1 273.050000000000011 -1.587500000000000 47.625000000000000 0.000000000000000 -1.000000000000000 0.000000000000000 0.000000000000000 0.000000000000000 -11.048999999999999 1.000000000000000 I I #
-621 ellipse-curve $-1 44.450000000000003 -1.587500000000000 66.674999999999997 0.000000000000000 -1.000000000000000 0.000000000000000 0.000000000000000 0.000000000000000 -2.108200000000000 1.000000000000000 I I #
-622 ellipse-curve $-1 247.650000000000006 0.000000000000000 60.324999999999996 0.000000000000000 1.000000000000000 0.000000000000000 0.000000000000000 0.000000000000000 -2.108200000000000 1.000000000000000 I I #
-623 ellipse-curve $-1 247.650000000000006 0.000000000000000 73.025000000000006 0.000000000000000 1.000000000000000 0.000000000000000 0.000000000000000 0.000000000000000 -2.108200000000000 1.000000000000000 I I #
-624 ellipse-curve $-1 298.449999999999989 0.000000000000000 60.324999999999996 0.000000000000000 -1.000000000000000 0.000000000000000 0.000000000000000 0.000000000000000 -2.108200000000000 1.000000000000000 I I #
-625 ellipse-curve $-1 298.449999999999989 0.000000000000000 73.025000000000006 0.000000000000000 -1.000000000000000 0.000000000000000 0.000000000000000 0.000000000000000 -2.108200000000000 1.000000000000000 I I #
-626 ellipse-curve $-1 82.549999999999997 0.000000000000000 66.674999999999997 0.000000000000000 -1.000000000000000 0.000000000000000 0.000000000000000 0.000000000000000 -2.108200000000000 1.000000000000000 I I #
-627 ellipse-curve $-1 69.849999999999994 0.000000000000000 66.674999999999997 0.000000000000000 -1.000000000000000 0.000000000000000 0.000000000000000 0.000000000000000 -2.108200000000000 1.000000000000000 I I #
-628 ellipse-curve $-1 57.149999999999999 0.000000000000000 66.674999999999997 0.000000000000000 -1.000000000000000 0.000000000000000 0.000000000000000 0.000000000000000 -2.108200000000000 1.000000000000000 I I #
-629 ellipse-curve $-1 273.050000000000011 0.000000000000000 47.625000000000000 0.000000000000000 -1.000000000000000 0.000000000000000 0.000000000000000 0.000000000000000 -11.048999999999999 1.000000000000000 I I #
-630 ellipse-curve $-1 44.450000000000003 0.000000000000000 66.674999999999997 0.000000000000000 -1.000000000000000 0.000000000000000 0.000000000000000 0.000000000000000 -2.108200000000000 1.000000000000000 I I #
End-of-ACIS-data 