500 0 1 0                                           
26 Datakit CrossCadWare V23.3 2    24 Sun Oct 22 01:18:50 2023 
1 9.9999999999999995e-007 1e-010
-0 body $1 $3 $-1 $-1 #
-1 rgb_color-st-attrib $-1 $2 $-1 $0 0.647059 0.647059 0.647059 #
-2 string_attrib-name_attrib-gen-attrib $-1 $-1 $1 $0 keep keep_kept ignore 17 ATTRIB_XACIS_NAME 14 Blocker Gusset #
-3 lump $-1 $-1 $4 $0 #
-4 shell $-1 $-1 $-1 $5 $-1 $3 #
-5 face $6 $7 $62 $4 $-1 $43 forward single #
-6 rgb_color-st-attrib $-1 $-1 $-1 $5 0.647059 0.647059 0.647059 #
-7 face $8 $9 $63 $4 $-1 $44 reversed single #
-8 rgb_color-st-attrib $-1 $-1 $-1 $7 0.647059 0.647059 0.647059 #
-9 face $10 $11 $64 $4 $-1 $45 forward single #
-10 rgb_color-st-attrib $-1 $-1 $-1 $9 0.647059 0.647059 0.647059 #
-11 face $12 $13 $65 $4 $-1 $46 reversed single #
-12 rgb_color-st-attrib $-1 $-1 $-1 $11 0.647059 0.647059 0.647059 #
-13 face $14 $15 $66 $4 $-1 $47 forward single #
-14 rgb_color-st-attrib $-1 $-1 $-1 $13 0.647059 0.647059 0.647059 #
-15 face $16 $17 $67 $4 $-1 $48 forward single #
-16 rgb_color-st-attrib $-1 $-1 $-1 $15 0.647059 0.647059 0.647059 #
-17 face $18 $19 $68 $4 $-1 $49 reversed single #
-18 rgb_color-st-attrib $-1 $-1 $-1 $17 0.647059 0.647059 0.647059 #
-19 face $20 $21 $69 $4 $-1 $50 reversed single #
-20 rgb_color-st-attrib $-1 $-1 $-1 $19 0.647059 0.647059 0.647059 #
-21 face $22 $23 $70 $4 $-1 $51 reversed single #
-22 rgb_color-st-attrib $-1 $-1 $-1 $21 0.647059 0.647059 0.647059 #
-23 face $24 $25 $71 $4 $-1 $52 reversed single #
-24 rgb_color-st-attrib $-1 $-1 $-1 $23 0.647059 0.647059 0.647059 #
-25 face $26 $27 $72 $4 $-1 $53 reversed single #
-26 rgb_color-st-attrib $-1 $-1 $-1 $25 0.647059 0.647059 0.647059 #
-27 face $28 $29 $73 $4 $-1 $54 reversed single #
-28 rgb_color-st-attrib $-1 $-1 $-1 $27 0.647059 0.647059 0.647059 #
-29 face $30 $31 $74 $4 $-1 $55 forward single #
-30 rgb_color-st-attrib $-1 $-1 $-1 $29 0.647059 0.647059 0.647059 #
-31 face $32 $33 $80 $4 $-1 $56 reversed single #
-32 rgb_color-st-attrib $-1 $-1 $-1 $31 0.647059 0.647059 0.647059 #
-33 face $34 $35 $86 $4 $-1 $57 reversed single #
-34 rgb_color-st-attrib $-1 $-1 $-1 $33 0.647059 0.647059 0.647059 #
-35 face $36 $37 $87 $4 $-1 $58 reversed single #
-36 rgb_color-st-attrib $-1 $-1 $-1 $35 0.647059 0.647059 0.647059 #
-37 face $38 $39 $88 $4 $-1 $59 reversed single #
-38 rgb_color-st-attrib $-1 $-1 $-1 $37 0.647059 0.647059 0.647059 #
-39 face $40 $41 $89 $4 $-1 $60 reversed single #
-40 rgb_color-st-attrib $-1 $-1 $-1 $39 0.647059 0.647059 0.647059 #
-41 face $42 $-1 $90 $4 $-1 $61 reversed single #
-42 rgb_color-st-attrib $-1 $-1 $-1 $41 0.647059 0.647059 0.647059 #
-43 cone-surface $-1 -53.9750000000 -1.5875000000 100.5332000000 0.0000000000 1.0000000000 0.0000000000 2.0164760019 0.0000000000 -3.7318483053 1 I I 0 1 1 forward I I I I #
-44 plane-surface $-1 -55.3192330638 -1.5875000000 94.5972057362 0.8533456190 0.0000000000 0.5213456190 0.5213456190 0.0000000000 -0.8533456190 forward_v I I I I #
-45 cone-surface $-1 -47.6250000000 -1.5875000000 94.1832000000 -0.0000000000 1.0000000000 0.0000000000 3.1064884739 0.0000000000 5.5382514715 1 I I 0 1 1 forward I I I I #
-46 plane-surface $-1 -25.4000000000 -1.5875000000 87.8332000000 0.0000000000 0.0000000000 1.0000000000 1.0000000000 0.0000000000 0.0000000000 forward_v I I I I #
-47 cone-surface $-1 -3.1750000000 -1.5875000000 94.1832000000 0.0000000000 1.0000000000 0.0000000000 -6.3500000000 0.0000000000 0.0000000000 1 I I 0 1 1 forward I I I I #
-48 plane-surface $-1 -25.2235713032 -1.5875000000 100.5332000000 0.0000000000 0.0000000000 1.0000000000 1.0000000000 0.0000000000 0.0000000000 forward_v I I I I #
-49 cone-surface $-1 -15.8750000000 -1.5875000000 94.1832000000 0.0000000000 1.0000000000 0.0000000000 2.1082000000 0.0000000000 0.0000000000 1 I I 0 1 1 forward I I I I #
-50 cone-surface $-1 -28.5750000000 -1.5875000000 94.1832000000 0.0000000000 1.0000000000 0.0000000000 2.1082000000 0.0000000000 0.0000000000 1 I I 0 1 1 forward I I I I #
-51 cone-surface $-1 -41.2750000000 -1.5875000000 94.1832000000 0.0000000000 1.0000000000 0.0000000000 2.1082000000 0.0000000000 0.0000000000 1 I I 0 1 1 forward I I I I #
-52 cone-surface $-1 -47.2721426063 -1.5875000000 103.7082000000 -0.0000000000 1.0000000000 0.0000000000 1.6978352413 0.0000000000 2.6829052338 1 I I 0 1 1 forward I I I I #
-53 cone-surface $-1 -53.9750000000 -1.5875000000 100.5332000000 0.0000000000 1.0000000000 0.0000000000 2.1082000000 0.0000000000 0.0000000000 1 I I 0 1 1 forward I I I I #
-54 cone-surface $-1 -3.1750000000 -1.5875000000 94.1832000000 0.0000000000 1.0000000000 0.0000000000 2.1082000000 0.0000000000 0.0000000000 1 I I 0 1 1 forward I I I I #
-55 plane-surface $-1 118.5291000000 -1.5875000000 96.3041000000 0.0000000000 -1.0000000000 0.0000000000 1.0000000000 0.0000000000 0.0000000000 forward_v I I I I #
-56 plane-surface $-1 118.5291000000 0.0000000000 96.3041000000 0.0000000000 -1.0000000000 0.0000000000 1.0000000000 0.0000000000 0.0000000000 forward_v I I I I #
-57 cone-surface $-1 -15.8750000000 -1.5875000000 94.1832000000 0.0000000000 1.0000000000 0.0000000000 -2.1082000000 0.0000000000 0.0000000000 1 I I 0 1 1 forward I I I I #
-58 cone-surface $-1 -28.5750000000 -1.5875000000 94.1832000000 0.0000000000 1.0000000000 0.0000000000 -2.1082000000 0.0000000000 0.0000000000 1 I I 0 1 1 forward I I I I #
-59 cone-surface $-1 -41.2750000000 -1.5875000000 94.1832000000 0.0000000000 1.0000000000 0.0000000000 -2.1082000000 0.0000000000 0.0000000000 1 I I 0 1 1 forward I I I I #
-60 cone-surface $-1 -53.9750000000 -1.5875000000 100.5332000000 0.0000000000 1.0000000000 0.0000000000 -2.1082000000 0.0000000000 0.0000000000 1 I I 0 1 1 forward I I I I #
-61 cone-surface $-1 -3.1750000000 -1.5875000000 94.1832000000 0.0000000000 1.0000000000 0.0000000000 -2.1082000000 0.0000000000 0.0000000000 1 I I 0 1 1 forward I I I I #
-62 loop $-1 $-1 $91 $5 #
-63 loop $-1 $-1 $95 $7 #
-64 loop $-1 $-1 $99 $9 #
-65 loop $-1 $-1 $103 $11 #
-66 loop $-1 $-1 $107 $13 #
-67 loop $-1 $-1 $111 $15 #
-68 loop $-1 $-1 $115 $17 #
-69 loop $-1 $-1 $119 $19 #
-70 loop $-1 $-1 $123 $21 #
-71 loop $-1 $-1 $127 $23 #
-72 loop $-1 $-1 $131 $25 #
-73 loop $-1 $-1 $135 $27 #
-74 loop $-1 $75 $139 $29 #
-75 loop $-1 $76 $141 $29 #
-76 loop $-1 $77 $148 $29 #
-77 loop $-1 $78 $150 $29 #
-78 loop $-1 $79 $152 $29 #
-79 loop $-1 $-1 $154 $29 #
-80 loop $-1 $81 $156 $31 #
-81 loop $-1 $82 $158 $31 #
-82 loop $-1 $83 $165 $31 #
-83 loop $-1 $84 $167 $31 #
-84 loop $-1 $85 $169 $31 #
-85 loop $-1 $-1 $171 $31 #
-86 loop $-1 $-1 $173 $33 #
-87 loop $-1 $-1 $177 $35 #
-88 loop $-1 $-1 $181 $37 #
-89 loop $-1 $-1 $185 $39 #
-90 loop $-1 $-1 $189 $41 #
-91 coedge $-1 $92 $94 $158 $193 forward $62 $-1 #
-92 coedge $-1 $93 $91 $98 $194 reversed $62 $-1 #
-93 coedge $-1 $94 $92 $141 $195 reversed $62 $-1 #
-94 coedge $-1 $91 $93 $128 $196 forward $62 $-1 #
-95 coedge $-1 $96 $98 $164 $197 forward $63 $-1 #
-96 coedge $-1 $97 $95 $102 $198 reversed $63 $-1 #
-97 coedge $-1 $98 $96 $142 $199 reversed $63 $-1 #
-98 coedge $-1 $95 $97 $92 $194 forward $63 $-1 #
-99 coedge $-1 $100 $102 $163 $200 forward $64 $-1 #
-100 coedge $-1 $101 $99 $106 $201 reversed $64 $-1 #
-101 coedge $-1 $102 $100 $143 $202 reversed $64 $-1 #
-102 coedge $-1 $99 $101 $96 $198 forward $64 $-1 #
-103 coedge $-1 $104 $106 $162 $203 forward $65 $-1 #
-104 coedge $-1 $105 $103 $110 $204 reversed $65 $-1 #
-105 coedge $-1 $106 $104 $144 $205 reversed $65 $-1 #
-106 coedge $-1 $103 $105 $100 $201 forward $65 $-1 #
-107 coedge $-1 $108 $110 $161 $206 forward $66 $-1 #
-108 coedge $-1 $109 $107 $114 $207 reversed $66 $-1 #
-109 coedge $-1 $110 $108 $145 $208 reversed $66 $-1 #
-110 coedge $-1 $107 $109 $104 $204 forward $66 $-1 #
-111 coedge $-1 $112 $114 $160 $209 reversed $67 $-1 #
-112 coedge $-1 $113 $111 $130 $210 reversed $67 $-1 #
-113 coedge $-1 $114 $112 $146 $211 forward $67 $-1 #
-114 coedge $-1 $111 $113 $108 $207 forward $67 $-1 #
-115 coedge $-1 $116 $118 $173 $212 forward $68 $-1 #
-116 coedge $-1 $117 $115 $170 $213 reversed $68 $-1 #
-117 coedge $-1 $118 $116 $175 $214 reversed $68 $-1 #
-118 coedge $-1 $115 $117 $152 $215 forward $68 $-1 #
-119 coedge $-1 $120 $122 $177 $216 forward $69 $-1 #
-120 coedge $-1 $121 $119 $168 $217 reversed $69 $-1 #
-121 coedge $-1 $122 $120 $179 $218 reversed $69 $-1 #
-122 coedge $-1 $119 $121 $150 $219 forward $69 $-1 #
-123 coedge $-1 $124 $126 $181 $220 forward $70 $-1 #
-124 coedge $-1 $125 $123 $166 $221 reversed $70 $-1 #
-125 coedge $-1 $126 $124 $183 $222 reversed $70 $-1 #
-126 coedge $-1 $123 $125 $148 $223 forward $70 $-1 #
-127 coedge $-1 $128 $130 $159 $224 reversed $71 $-1 #
-128 coedge $-1 $129 $127 $94 $196 reversed $71 $-1 #
-129 coedge $-1 $130 $128 $147 $225 forward $71 $-1 #
-130 coedge $-1 $127 $129 $112 $210 forward $71 $-1 #
-131 coedge $-1 $132 $134 $185 $226 forward $72 $-1 #
-132 coedge $-1 $133 $131 $157 $227 reversed $72 $-1 #
-133 coedge $-1 $134 $132 $187 $228 reversed $72 $-1 #
-134 coedge $-1 $131 $133 $139 $229 forward $72 $-1 #
-135 coedge $-1 $136 $138 $189 $230 forward $73 $-1 #
-136 coedge $-1 $137 $135 $172 $231 reversed $73 $-1 #
-137 coedge $-1 $138 $136 $191 $232 reversed $73 $-1 #
-138 coedge $-1 $135 $137 $154 $233 forward $73 $-1 #
-139 coedge $-1 $140 $140 $134 $229 reversed $74 $-1 #
-140 coedge $-1 $139 $139 $186 $234 reversed $74 $-1 #
-141 coedge $-1 $142 $147 $93 $195 forward $75 $-1 #
-142 coedge $-1 $143 $141 $97 $199 forward $75 $-1 #
-143 coedge $-1 $144 $142 $101 $202 forward $75 $-1 #
-144 coedge $-1 $145 $143 $105 $205 forward $75 $-1 #
-145 coedge $-1 $146 $144 $109 $208 forward $75 $-1 #
-146 coedge $-1 $147 $145 $113 $211 reversed $75 $-1 #
-147 coedge $-1 $141 $146 $129 $225 reversed $75 $-1 #
-148 coedge $-1 $149 $149 $126 $223 reversed $76 $-1 #
-149 coedge $-1 $148 $148 $182 $235 reversed $76 $-1 #
-150 coedge $-1 $151 $151 $122 $219 reversed $77 $-1 #
-151 coedge $-1 $150 $150 $178 $236 reversed $77 $-1 #
-152 coedge $-1 $153 $153 $118 $215 reversed $78 $-1 #
-153 coedge $-1 $152 $152 $174 $237 reversed $78 $-1 #
-154 coedge $-1 $155 $155 $138 $233 reversed $79 $-1 #
-155 coedge $-1 $154 $154 $190 $238 reversed $79 $-1 #
-156 coedge $-1 $157 $157 $188 $239 forward $80 $-1 #
-157 coedge $-1 $156 $156 $132 $227 forward $80 $-1 #
-158 coedge $-1 $159 $164 $91 $193 reversed $81 $-1 #
-159 coedge $-1 $160 $158 $127 $224 forward $81 $-1 #
-160 coedge $-1 $161 $159 $111 $209 forward $81 $-1 #
-161 coedge $-1 $162 $160 $107 $206 reversed $81 $-1 #
-162 coedge $-1 $163 $161 $103 $203 reversed $81 $-1 #
-163 coedge $-1 $164 $162 $99 $200 reversed $81 $-1 #
-164 coedge $-1 $158 $163 $95 $197 reversed $81 $-1 #
-165 coedge $-1 $166 $166 $184 $240 forward $82 $-1 #
-166 coedge $-1 $165 $165 $124 $221 forward $82 $-1 #
-167 coedge $-1 $168 $168 $180 $241 forward $83 $-1 #
-168 coedge $-1 $167 $167 $120 $217 forward $83 $-1 #
-169 coedge $-1 $170 $170 $176 $242 forward $84 $-1 #
-170 coedge $-1 $169 $169 $116 $213 forward $84 $-1 #
-171 coedge $-1 $172 $172 $192 $243 forward $85 $-1 #
-172 coedge $-1 $171 $171 $136 $231 forward $85 $-1 #
-173 coedge $-1 $174 $176 $115 $212 reversed $86 $-1 #
-174 coedge $-1 $175 $173 $153 $237 forward $86 $-1 #
-175 coedge $-1 $176 $174 $117 $214 forward $86 $-1 #
-176 coedge $-1 $173 $175 $169 $242 reversed $86 $-1 #
-177 coedge $-1 $178 $180 $119 $216 reversed $87 $-1 #
-178 coedge $-1 $179 $177 $151 $236 forward $87 $-1 #
-179 coedge $-1 $180 $178 $121 $218 forward $87 $-1 #
-180 coedge $-1 $177 $179 $167 $241 reversed $87 $-1 #
-181 coedge $-1 $182 $184 $123 $220 reversed $88 $-1 #
-182 coedge $-1 $183 $181 $149 $235 forward $88 $-1 #
-183 coedge $-1 $184 $182 $125 $222 forward $88 $-1 #
-184 coedge $-1 $181 $183 $165 $240 reversed $88 $-1 #
-185 coedge $-1 $186 $188 $131 $226 reversed $89 $-1 #
-186 coedge $-1 $187 $185 $140 $234 forward $89 $-1 #
-187 coedge $-1 $188 $186 $133 $228 forward $89 $-1 #
-188 coedge $-1 $185 $187 $156 $239 reversed $89 $-1 #
-189 coedge $-1 $190 $192 $135 $230 reversed $90 $-1 #
-190 coedge $-1 $191 $189 $155 $238 forward $90 $-1 #
-191 coedge $-1 $192 $190 $137 $232 forward $90 $-1 #
-192 coedge $-1 $189 $191 $171 $243 reversed $90 $-1 #
-193 edge $-1 $245 2.0131659482 $247 5.2608160600 $91 $244 forward 7 unknown #
-194 edge $-1 $250 0.0000000000 $247 1.5875000000 $92 $249 forward 7 unknown #
-195 edge $-1 $253 2.0131659482 $250 5.2608160600 $93 $252 forward 7 unknown #
-196 edge $-1 $253 0.0000000000 $245 1.5875000000 $94 $255 forward 7 unknown #
-197 edge $-1 $247 -4.3646446808 $257 4.3646446808 $95 $256 forward 7 unknown #
-198 edge $-1 $260 0.0000000000 $257 1.5875000000 $96 $259 forward 7 unknown #
-199 edge $-1 $250 -4.3646446808 $260 4.3646446808 $97 $262 forward 7 unknown #
-200 edge $-1 $257 5.2608160600 $264 6.2831853072 $99 $263 forward 7 unknown #
-201 edge $-1 $267 0.0000000000 $264 1.5875000000 $100 $266 forward 7 unknown #
-202 edge $-1 $260 5.2608160600 $267 6.2831853072 $101 $269 forward 7 unknown #
-203 edge $-1 $264 -22.2250000000 $271 22.2250000000 $103 $270 forward 7 unknown #
-204 edge $-1 $274 0.0000000000 $271 1.5875000000 $104 $273 forward 7 unknown #
-205 edge $-1 $267 -22.2250000000 $274 22.2250000000 $105 $276 forward 7 unknown #
-206 edge $-1 $271 0.0000000000 $278 3.1415926536 $107 $277 forward 7 unknown #
-207 edge $-1 $281 0.0000000000 $278 1.5875000000 $108 $280 forward 7 unknown #
-208 edge $-1 $274 0.0000000000 $281 3.1415926536 $109 $283 forward 7 unknown #
-209 edge $-1 $285 -22.0485713032 $278 22.0485713032 $111 $284 forward 7 unknown #
-210 edge $-1 $288 0.0000000000 $285 1.5875000000 $112 $287 forward 7 unknown #
-211 edge $-1 $288 -22.0485713032 $281 22.0485713032 $113 $290 forward 7 unknown #
-212 edge $-1 $292 0.0000000000 $294 1.5875000000 $115 $291 forward 7 unknown #
-213 edge $-1 $297 3.1415926536 $294 6.2831853072 $116 $296 forward 7 unknown #
-214 edge $-1 $300 0.0000000000 $297 1.5875000000 $117 $299 forward 7 unknown #
-215 edge $-1 $300 3.1415926536 $292 6.2831853072 $118 $302 forward 7 unknown #
-216 edge $-1 $304 0.0000000000 $306 1.5875000000 $119 $303 forward 7 unknown #
-217 edge $-1 $309 3.1415926536 $306 6.2831853072 $120 $308 forward 7 unknown #
-218 edge $-1 $312 0.0000000000 $309 1.5875000000 $121 $311 forward 7 unknown #
-219 edge $-1 $312 3.1415926536 $304 6.2831853072 $122 $314 forward 7 unknown #
-220 edge $-1 $316 0.0000000000 $318 1.5875000000 $123 $315 forward 7 unknown #
-221 edge $-1 $321 3.1415926536 $318 6.2831853072 $124 $320 forward 7 unknown #
-222 edge $-1 $324 0.0000000000 $321 1.5875000000 $125 $323 forward 7 unknown #
-223 edge $-1 $324 3.1415926536 $316 6.2831853072 $126 $326 forward 7 unknown #
-224 edge $-1 $245 5.1547586017 $285 6.2831853072 $127 $327 forward 7 unknown #
-225 edge $-1 $253 5.1547586017 $288 6.2831853072 $129 $328 forward 7 unknown #
-226 edge $-1 $330 0.0000000000 $332 1.5875000000 $131 $329 forward 7 unknown #
-227 edge $-1 $335 3.1415926536 $332 6.2831853072 $132 $334 forward 7 unknown #
-228 edge $-1 $338 0.0000000000 $335 1.5875000000 $133 $337 forward 7 unknown #
-229 edge $-1 $338 3.1415926536 $330 6.2831853072 $134 $340 forward 7 unknown #
-230 edge $-1 $342 0.0000000000 $344 1.5875000000 $135 $341 forward 7 unknown #
-231 edge $-1 $347 3.1415926536 $344 6.2831853072 $136 $346 forward 7 unknown #
-232 edge $-1 $350 0.0000000000 $347 1.5875000000 $137 $349 forward 7 unknown #
-233 edge $-1 $350 3.1415926536 $342 6.2831853072 $138 $352 forward 7 unknown #
-234 edge $-1 $330 0.0000000000 $338 3.1415926536 $140 $353 forward 7 unknown #
-235 edge $-1 $316 0.0000000000 $324 3.1415926536 $149 $354 forward 7 unknown #
-236 edge $-1 $304 0.0000000000 $312 3.1415926536 $151 $355 forward 7 unknown #
-237 edge $-1 $292 0.0000000000 $300 3.1415926536 $153 $356 forward 7 unknown #
-238 edge $-1 $342 0.0000000000 $350 3.1415926536 $155 $357 forward 7 unknown #
-239 edge $-1 $332 0.0000000000 $335 3.1415926536 $156 $358 forward 7 unknown #
-240 edge $-1 $318 0.0000000000 $321 3.1415926536 $165 $359 forward 7 unknown #
-241 edge $-1 $306 0.0000000000 $309 3.1415926536 $167 $360 forward 7 unknown #
-242 edge $-1 $294 0.0000000000 $297 3.1415926536 $169 $361 forward 7 unknown #
-243 edge $-1 $344 0.0000000000 $347 3.1415926536 $171 $362 forward 7 unknown #
-244 ellipse-curve $-1 -53.975000000000001 0.000000000000000 100.533200000000008 0.000000000000000 -1.000000000000000 0.000000000000000 0.000000000000000 0.000000000000000 -4.241800000000000 1.000000000000000 I I #
-245 vertex $-1 $193 $246 #
-246 point $-1 -50.141516490601298 0.000000000000000 102.349039041096006 #
-247 vertex $-1 $193 $248 #
-248 point $-1 -57.594721446802296 0.000000000000000 98.321756153197697 #
-249 straight-curve $-1 -57.594721446802296 -1.587500000000000 98.321756153197697 0.000000000000000 1.000000000000000 0.000000000000000 I I #
-250 vertex $-1 $194 $251 #
-251 point $-1 -57.594721446802296 -1.587500000000000 98.321756153197697 #
-252 ellipse-curve $-1 -53.975000000000001 -1.587500000000000 100.533200000000008 0.000000000000000 -1.000000000000000 0.000000000000000 0.000000000000000 0.000000000000000 -4.241800000000000 1.000000000000000 I I #
-253 vertex $-1 $195 $254 #
-254 point $-1 -50.141516490601298 -1.587500000000000 102.349039041096006 #
-255 straight-curve $-1 -50.141516490601298 -1.587500000000000 102.349039041096006 0.000000000000000 1.000000000000000 0.000000000000000 I I #
-256 straight-curve $-1 -55.319233063821997 0.000000000000000 94.597205736177997 0.521345619030195 0.000000000000000 -0.853345619030193 I I #
-257 vertex $-1 $197 $258 #
-258 point $-1 -53.043744680841698 0.000000000000000 90.872655319158298 #
-259 straight-curve $-1 -53.043744680841698 -1.587500000000000 90.872655319158298 0.000000000000000 1.000000000000000 0.000000000000000 I I #
-260 vertex $-1 $198 $261 #
-261 point $-1 -53.043744680841698 -1.587500000000000 90.872655319158298 #
-262 straight-curve $-1 -55.319233063821997 -1.587500000000000 94.597205736177997 0.521345619030195 0.000000000000000 -0.853345619030193 I I #
-263 ellipse-curve $-1 -47.625000000000000 0.000000000000000 94.183199999999999 0.000000000000000 -1.000000000000000 0.000000000000000 0.000000000000000 0.000000000000000 -6.350000000000000 1.000000000000000 I I #
-264 vertex $-1 $200 $265 #
-265 point $-1 -47.625000000000000 0.000000000000000 87.833200000000005 #
-266 straight-curve $-1 -47.625000000000000 -1.587500000000000 87.833200000000005 0.000000000000000 1.000000000000000 0.000000000000000 I I #
-267 vertex $-1 $201 $268 #
-268 point $-1 -47.625000000000000 -1.587500000000000 87.833200000000005 #
-269 ellipse-curve $-1 -47.625000000000000 -1.587500000000000 94.183199999999999 0.000000000000000 -1.000000000000000 0.000000000000000 0.000000000000000 0.000000000000000 -6.350000000000000 1.000000000000000 I I #
-270 straight-curve $-1 -25.399999999999999 0.000000000000000 87.833200000000005 1.000000000000000 0.000000000000000 0.000000000000000 I I #
-271 vertex $-1 $203 $272 #
-272 point $-1 -3.175000000000040 0.000000000000000 87.833200000000005 #
-273 straight-curve $-1 -3.175000000000040 -1.587500000000000 87.833200000000005 0.000000000000000 1.000000000000000 0.000000000000000 I I #
-274 vertex $-1 $204 $275 #
-275 point $-1 -3.175000000000040 -1.587500000000000 87.833200000000005 #
-276 straight-curve $-1 -25.399999999999999 -1.587500000000000 87.833200000000005 1.000000000000000 0.000000000000000 0.000000000000000 I I #
-277 ellipse-curve $-1 -3.175000000000040 0.000000000000000 94.183199999999999 0.000000000000000 -1.000000000000000 0.000000000000000 0.000000000000000 0.000000000000000 -6.350000000000000 1.000000000000000 I I #
-278 vertex $-1 $206 $279 #
-279 point $-1 -3.175000000000040 0.000000000000000 100.533200000000008 #
-280 straight-curve $-1 -3.175000000000040 -1.587500000000000 100.533200000000008 0.000000000000000 1.000000000000000 0.000000000000000 I I #
-281 vertex $-1 $207 $282 #
-282 point $-1 -3.175000000000040 -1.587500000000000 100.533200000000008 #
-283 ellipse-curve $-1 -3.175000000000040 -1.587500000000000 94.183199999999999 0.000000000000000 -1.000000000000000 0.000000000000000 0.000000000000000 0.000000000000000 -6.350000000000000 1.000000000000000 I I #
-284 straight-curve $-1 -25.223571303160448 0.000000000000000 100.533200000000008 1.000000000000000 0.000000000000000 0.000000000000000 I I #
-285 vertex $-1 $209 $286 #
-286 point $-1 -47.272142606320806 0.000000000000000 100.533200000000008 #
-287 straight-curve $-1 -47.272142606320806 -1.587500000000000 100.533200000000008 0.000000000000000 1.000000000000000 0.000000000000000 I I #
-288 vertex $-1 $210 $289 #
-289 point $-1 -47.272142606320806 -1.587500000000000 100.533200000000008 #
-290 straight-curve $-1 -25.223571303160448 -1.587500000000000 100.533200000000008 1.000000000000000 0.000000000000000 0.000000000000000 I I #
-291 straight-curve $-1 -15.875000000000000 -1.587500000000000 92.075000000000003 0.000000000000000 1.000000000000000 0.000000000000000 I I #
-292 vertex $-1 $212 $293 #
-293 point $-1 -15.875000000000000 -1.587500000000000 92.075000000000003 #
-294 vertex $-1 $212 $295 #
-295 point $-1 -15.875000000000000 0.000000000000000 92.075000000000003 #
-296 ellipse-curve $-1 -15.875000000000000 0.000000000000000 94.183199999999999 0.000000000000000 -1.000000000000000 0.000000000000000 0.000000000000000 0.000000000000000 -2.108200000000000 1.000000000000000 I I #
-297 vertex $-1 $213 $298 #
-298 point $-1 -15.875000000000000 0.000000000000000 96.291399999999996 #
-299 straight-curve $-1 -15.875000000000000 -1.587500000000000 96.291399999999996 0.000000000000000 1.000000000000000 0.000000000000000 I I #
-300 vertex $-1 $214 $301 #
-301 point $-1 -15.875000000000000 -1.587500000000000 96.291399999999996 #
-302 ellipse-curve $-1 -15.875000000000000 -1.587500000000000 94.183199999999999 0.000000000000000 -1.000000000000000 0.000000000000000 0.000000000000000 0.000000000000000 -2.108200000000000 1.000000000000000 I I #
-303 straight-curve $-1 -28.574999999999999 -1.587500000000000 92.075000000000003 0.000000000000000 1.000000000000000 0.000000000000000 I I #
-304 vertex $-1 $216 $305 #
-305 point $-1 -28.574999999999999 -1.587500000000000 92.075000000000003 #
-306 vertex $-1 $216 $307 #
-307 point $-1 -28.574999999999999 0.000000000000000 92.075000000000003 #
-308 ellipse-curve $-1 -28.574999999999999 0.000000000000000 94.183199999999999 0.000000000000000 -1.000000000000000 0.000000000000000 0.000000000000000 0.000000000000000 -2.108200000000000 1.000000000000000 I I #
-309 vertex $-1 $217 $310 #
-310 point $-1 -28.574999999999999 0.000000000000000 96.291399999999996 #
-311 straight-curve $-1 -28.574999999999999 -1.587500000000000 96.291399999999996 0.000000000000000 1.000000000000000 0.000000000000000 I I #
-312 vertex $-1 $218 $313 #
-313 point $-1 -28.574999999999999 -1.587500000000000 96.291399999999996 #
-314 ellipse-curve $-1 -28.574999999999999 -1.587500000000000 94.183199999999999 0.000000000000000 -1.000000000000000 0.000000000000000 0.000000000000000 0.000000000000000 -2.108200000000000 1.000000000000000 I I #
-315 straight-curve $-1 -41.274999999999999 -1.587500000000000 92.075000000000003 0.000000000000000 1.000000000000000 0.000000000000000 I I #
-316 vertex $-1 $220 $317 #
-317 point $-1 -41.274999999999999 -1.587500000000000 92.075000000000003 #
-318 vertex $-1 $220 $319 #
-319 point $-1 -41.274999999999999 0.000000000000000 92.075000000000003 #
-320 ellipse-curve $-1 -41.274999999999999 0.000000000000000 94.183199999999999 0.000000000000000 -1.000000000000000 0.000000000000000 0.000000000000000 0.000000000000000 -2.108200000000000 1.000000000000000 I I #
-321 vertex $-1 $221 $322 #
-322 point $-1 -41.274999999999999 0.000000000000000 96.291399999999996 #
-323 straight-curve $-1 -41.274999999999999 -1.587500000000000 96.291399999999996 0.000000000000000 1.000000000000000 0.000000000000000 I I #
-324 vertex $-1 $222 $325 #
-325 point $-1 -41.274999999999999 -1.587500000000000 96.291399999999996 #
-326 ellipse-curve $-1 -41.274999999999999 -1.587500000000000 94.183199999999999 0.000000000000000 -1.000000000000000 0.000000000000000 0.000000000000000 0.000000000000000 -2.108200000000000 1.000000000000000 I I #
-327 ellipse-curve $-1 -47.272142606320806 0.000000000000000 103.708200000000005 0.000000000000000 -1.000000000000000 0.000000000000000 0.000000000000000 0.000000000000000 -3.175000000000000 1.000000000000000 I I #
-328 ellipse-curve $-1 -47.272142606320806 -1.587500000000000 103.708200000000005 0.000000000000000 -1.000000000000000 0.000000000000000 0.000000000000000 0.000000000000000 -3.175000000000000 1.000000000000000 I I #
-329 straight-curve $-1 -53.975000000000001 -1.587500000000000 98.425000000000011 0.000000000000000 1.000000000000000 0.000000000000000 I I #
-330 vertex $-1 $226 $331 #
-331 point $-1 -53.975000000000001 -1.587500000000000 98.425000000000011 #
-332 vertex $-1 $226 $333 #
-333 point $-1 -53.975000000000001 0.000000000000000 98.425000000000011 #
-334 ellipse-curve $-1 -53.975000000000001 0.000000000000000 100.533200000000008 0.000000000000000 -1.000000000000000 0.000000000000000 0.000000000000000 0.000000000000000 -2.108200000000000 1.000000000000000 I I #
-335 vertex $-1 $227 $336 #
-336 point $-1 -53.975000000000001 0.000000000000000 102.641400000000004 #
-337 straight-curve $-1 -53.975000000000001 -1.587500000000000 102.641400000000004 0.000000000000000 1.000000000000000 0.000000000000000 I I #
-338 vertex $-1 $228 $339 #
-339 point $-1 -53.975000000000001 -1.587500000000000 102.641400000000004 #
-340 ellipse-curve $-1 -53.975000000000001 -1.587500000000000 100.533200000000008 0.000000000000000 -1.000000000000000 0.000000000000000 0.000000000000000 0.000000000000000 -2.108200000000000 1.000000000000000 I I #
-341 straight-curve $-1 -3.175000000000040 -1.587500000000000 92.075000000000003 0.000000000000000 1.000000000000000 0.000000000000000 I I #
-342 vertex $-1 $230 $343 #
-343 point $-1 -3.175000000000040 -1.587500000000000 92.075000000000003 #
-344 vertex $-1 $230 $345 #
-345 point $-1 -3.175000000000040 0.000000000000000 92.075000000000003 #
-346 ellipse-curve $-1 -3.175000000000040 0.000000000000000 94.183199999999999 0.000000000000000 -1.000000000000000 0.000000000000000 0.000000000000000 0.000000000000000 -2.108200000000000 1.000000000000000 I I #
-347 vertex $-1 $231 $348 #
-348 point $-1 -3.175000000000040 0.000000000000000 96.291399999999996 #
-349 straight-curve $-1 -3.175000000000040 -1.587500000000000 96.291399999999996 0.000000000000000 1.000000000000000 0.000000000000000 I I #
-350 vertex $-1 $232 $351 #
-351 point $-1 -3.175000000000040 -1.587500000000000 96.291399999999996 #
-352 ellipse-curve $-1 -3.175000000000040 -1.587500000000000 94.183199999999999 0.000000000000000 -1.000000000000000 0.000000000000000 0.000000000000000 0.000000000000000 -2.108200000000000 1.000000000000000 I I #
-353 ellipse-curve $-1 -53.975000000000001 -1.587500000000000 100.533200000000008 0.000000000000000 -1.000000000000000 0.000000000000000 0.000000000000000 0.000000000000000 -2.108200000000000 1.000000000000000 I I #
-354 ellipse-curve $-1 -41.274999999999999 -1.587500000000000 94.183199999999999 0.000000000000000 -1.000000000000000 0.000000000000000 0.000000000000000 0.000000000000000 -2.108200000000000 1.000000000000000 I I #
-355 ellipse-curve $-1 -28.574999999999999 -1.587500000000000 94.183199999999999 0.000000000000000 -1.000000000000000 0.000000000000000 0.000000000000000 0.000000000000000 -2.108200000000000 1.000000000000000 I I #
-356 ellipse-curve $-1 -15.875000000000000 -1.587500000000000 94.183199999999999 0.000000000000000 -1.000000000000000 0.000000000000000 0.000000000000000 0.000000000000000 -2.108200000000000 1.000000000000000 I I #
-357 ellipse-curve $-1 -3.175000000000040 -1.587500000000000 94.183199999999999 0.000000000000000 -1.000000000000000 0.000000000000000 0.000000000000000 0.000000000000000 -2.108200000000000 1.000000000000000 I I #
-358 ellipse-curve $-1 -53.975000000000001 0.000000000000000 100.533200000000008 0.000000000000000 -1.000000000000000 0.000000000000000 0.000000000000000 0.000000000000000 -2.108200000000000 1.000000000000000 I I #
-359 ellipse-curve $-1 -41.274999999999999 0.000000000000000 94.183199999999999 0.000000000000000 -1.000000000000000 0.000000000000000 0.000000000000000 0.000000000000000 -2.108200000000000 1.000000000000000 I I #
-360 ellipse-curve $-1 -28.574999999999999 0.000000000000000 94.183199999999999 0.000000000000000 -1.000000000000000 0.000000000000000 0.000000000000000 0.000000000000000 -2.108200000000000 1.000000000000000 I I #
-361 ellipse-curve $-1 -15.875000000000000 0.000000000000000 94.183199999999999 0.000000000000000 -1.000000000000000 0.000000000000000 0.000000000000000 0.000000000000000 -2.108200000000000 1.000000000000000 I I #
-362 ellipse-curve $-1 -3.175000000000040 0.000000000000000 94.183199999999999 0.000000000000000 -1.000000000000000 0.000000000000000 0.000000000000000 0.000000000000000 -2.108200000000000 1.000000000000000 I I #
End-of-ACIS-data 